<?xml version="1.0" encoding="UTF-8"?>
<!DOCTYPE svg PUBLIC "-//W3C//DTD SVG 1.1//EN" "http://www.w3.org/Graphics/SVG/1.1/DTD/svg11.dtd">
<!-- Creator: CorelDRAW 2019 (64-Bit) -->
<svg xmlns="http://www.w3.org/2000/svg" xml:space="preserve" width="60.1864mm" height="47.9774mm" version="1.1" style="shape-rendering:geometricPrecision; text-rendering:geometricPrecision; image-rendering:optimizeQuality; fill-rule:evenodd; clip-rule:evenodd"
viewBox="0 0 14961.43 11926.46"
 xmlns:xlink="http://www.w3.org/1999/xlink"
 xmlns:xodm="http://www.corel.com/coreldraw/odm/2003">
 <defs>
  <style type="text/css">
   <![CDATA[
    .fil0 {fill:#9089B0}
   ]]>
  </style>
 </defs>
 <g id="Vrstva_x0020_1">
  <metadata id="CorelCorpID_0Corel-Layer"/>
  <path id="Obrys" class="fil0" d="M3319.03 10820.31c5,5.29 10.64,13.05 17.33,22.27 20.78,28.66 55.34,76.24 74.38,68.98 14.79,-5.62 32.24,-29.36 48,-50.86 16.48,-22.47 31.62,-43.08 48.8,-48.82 51.11,-17.25 90.01,-27.17 120.64,-32.74 31.42,-5.72 53.94,-6.96 72.16,-6.96 95.38,0 160.64,-93.64 230.12,-193.37 33.73,-48.45 68.46,-98.29 108.88,-141.07 66.5,-70.4 177.69,-107.49 299.15,-123 160.81,-20.53 340.76,-3.53 456.35,23.39l112.31 26.45c246.42,58.47 252.39,59.88 589.67,59.88 86.83,0 173.14,-15.51 248.73,-29.06 60.73,-10.89 114.9,-20.63 157.75,-20.63 51.83,0 85.29,-31.42 108.68,-53.4 8,-7.51 15.06,-14.12 22.32,-19.19 40.57,-28.39 87.05,-100.95 113.45,-142.17 8.15,-12.68 14.79,-22.94 20.61,-29.73 37.51,-106.52 173.84,-224.5 260.84,-299.79 34.9,-30.2 61.52,-53.25 67.96,-63.14 17.6,-27.12 40.05,-42.96 64.61,-50.04 20.81,-5.97 42.66,-5.57 64.11,-0.47 20.61,4.9 41.17,14.32 60.01,26.57 41.39,26.87 75.57,68.53 87.08,108.38 5.99,20.86 11.36,50.26 17.43,83.6 18.62,102.24 44.62,244.86 109.97,261.14 82.68,20.61 111.86,44.94 137.02,65.9 28.71,23.94 51.33,42.81 177.29,42.81 47.58,0 106.17,-18.54 158.87,-46.31 53.22,-28.02 99.86,-65.05 122.5,-101.42 24.21,-38.9 58.67,-48.52 100.08,-60.06 32.99,-9.2 71.19,-19.86 110.32,-50.51 30.55,-23.89 68.41,-72.61 105.5,-120.39 53.77,-69.31 106.27,-136.87 147.09,-137.79 238.77,-5.39 292.58,68.81 343.99,139.78 42.76,58.99 83.8,115.57 262.06,108.58 71.34,-2.81 126.11,35.77 166.68,91.38 54.04,74.05 82.73,179.06 91.83,252.76 19.74,159.99 139.85,300.19 160.49,324.18l7.18 2.51c41.49,14.69 179.06,63.59 211.22,65.18 170.11,8.5 257.98,90.19 340.26,166.63 41.61,38.65 81.81,76.02 130.13,100.06 45.02,22.4 136.17,103.31 224.02,181.24 59.76,53.07 118.08,104.78 157.75,134.56 36.29,27.22 121.06,75.12 208.21,120.24 90.44,46.83 182.93,90.39 226.04,104.53 64.76,21.3 154.2,77.38 247.99,136.22 123.72,77.63 255.45,160.26 340.06,169.26 37.88,4.03 75.2,11.96 112.14,19.79 117.61,24.98 232.75,49.42 340.93,-67.07l9.05 -9.15c50.94,-48.5 126.06,-71.89 194.05,-77.68 69.28,-5.87 133.12,7.08 158.37,30.55l2.54 2.51c49.77,52.25 89.69,77.86 120.07,84.27 15.49,3.26 28.02,1.22 37.56,-4.87 9.94,-6.36 17.6,-17.5 22.77,-31.87 11.53,-32.02 10.81,-78.11 -2.31,-126.11 -57.27,-209.66 -22.05,-235.01 93.59,-318.06l26.15 -18.89c118.77,-86.66 162.77,-218.93 195.69,-317.87 29.88,-89.84 51.76,-155.39 113.98,-150.02 27.27,2.31 78.23,-10.34 131.05,-28.07 70,-23.44 142.02,-55.26 168.96,-73.26 76.81,-51.36 132.64,-102.39 182.49,-147.98 111.47,-101.89 194.62,-177.96 410.04,-177.96 158.15,0 197.67,-211.52 224.5,-355.25 15.11,-80.99 26.72,-143.18 60.73,-150.12 224.82,-45.79 282.57,-10.47 434.85,82.7l33.86 20.66c301.06,182.51 470.57,69.53 627.4,-35.03 61.33,-40.89 120.81,-80.54 186.02,-102.74 -31.3,-49.27 -49.87,-99.09 -65.03,-139.9 -10.81,-29.13 -19.89,-53.45 -29.83,-67.27 -22.84,-31.69 -50.14,-160.86 -75,-278.66 -9.55,-45.29 -18.79,-88.99 -27.39,-125.36 -17.55,-74.28 -48.85,-204.46 -78.45,-320.67 -19.41,-76.19 -37.83,-145.02 -50.39,-184.72 -21.48,-67.81 -63.39,-139.38 -91.23,-187.01 -12.83,-21.93 -22.84,-39.03 -27.37,-49.89 -7.93,-19.02 -93.94,-164.14 -169.88,-275.38 -43.6,-63.84 -82.68,-115.49 -98.19,-121.91 -41.44,-17.15 -175.03,-160.51 -273.64,-266.38 -37.54,-40.32 -70,-75.15 -90.11,-95.26 -32.56,-32.56 -67.62,-63.54 -105.7,-97.2 -46.58,-41.17 -97.79,-86.43 -152.61,-141.25 -49.57,-49.57 -131.1,-112.53 -215.8,-169.58 -85.39,-57.55 -173.61,-108.93 -235.09,-134.39 -103.01,-42.68 -131.25,-73.63 -171.18,-117.41 -10.24,-11.24 -21.33,-23.34 -33.63,-35.7 -46.16,-46.26 -79.3,-116.71 -97.74,-155.91 -5.22,-11.21 7.66,-16.56 -0.47,-17.5 -16.31,-2.06 -36.14,-72.46 -54.81,-139.03 -12.8,-45.79 -25.11,-89.61 -29.78,-100.93l-3.65 -8.43c-3.65,-3.55 -8.35,-8.1 -26.15,-51.16 -7.08,-17.15 -11.96,-37.96 -17.35,-61.03 -15.83,-67.96 -36.84,-157.9 -131.48,-197.1 -96.48,-39.95 -297.18,-31.05 -465.5,-23.62 -61.1,2.68 -118.15,5.22 -163.3,5.22 -145.57,0 -262.48,-135.28 -319.53,-201.28 -14.19,-16.46 -24.24,-28.04 -26.55,-29.18 -25.21,-12.55 -22.32,-23.67 -18.4,-38.48 0.75,-2.86 1.74,-6.64 -6.34,-14.72 -22,-22 -50.76,-88.82 -71.29,-136.62 -9.6,-22.37 -17.38,-40.37 -20.46,-45.02 -6.07,-9.22 -13.15,-37.36 -19.74,-70.5 -9.84,-49.57 -19.76,-113.7 -22.7,-136.2 -2.93,-22.55 -2.49,-31 -1.59,-47.7 0.55,-10.84 1.37,-25.65 1.37,-54.07 0,-44.57 20.38,-101.45 35.45,-143.53 7.88,-22.27 14.22,-39.95 14.22,-45.22 0,-21.38 50.19,-76.42 89.74,-119.77 21.63,-23.69 39.77,-43.55 40.79,-46.11 4.87,-12.13 24.49,-25.55 50.49,-43.3 28.04,-19.17 64.63,-44.17 92.7,-72.24 32.56,-32.56 107.64,-67.96 172.02,-98.27 45.44,-21.38 85.36,-40.2 96.4,-50.91 28.54,-27.62 174.26,-80.42 237.72,-103.41l26.67 -9.79c9.99,-4.03 28.24,-12.6 47.68,-21.7 21.83,-10.24 45.27,-21.25 61.43,-27.89l49.57 -20.04c90.11,-36.29 268.1,-107.96 286.25,-118.1 11.56,-6.44 53.55,-50.86 92.85,-92.45 29.58,-31.3 57.77,-61.13 72.93,-74.25 16.01,-13.85 55.09,-86.38 88.62,-160.19 29.41,-64.68 53.92,-129.07 53.92,-153.63 0,-33.71 14.52,-109.53 33.14,-174.68 15.79,-55.34 35.5,-104.53 53.74,-118.35 17.35,-13.13 55.68,-68.71 89.57,-117.85 22.87,-33.19 43.88,-63.64 56.68,-78.23 14.96,-17.05 23.59,-21.97 35.22,-28.61 12.98,-7.38 30.7,-17.53 74.9,-61.72 38.9,-38.9 78.45,-108.61 107.71,-187.23 27.49,-73.98 45.76,-155.61 45.76,-226.78 0,-85.66 -0.65,-86.76 -4.92,-94.01 -4.97,-8.43 -12.85,-21.78 -24.39,-70.65 -20.04,-84.87 -60.36,-129.12 -90.98,-162.72 -8.97,-9.84 -17.25,-18.92 -24.86,-28.91 -16.13,-21.13 -58.47,-68.66 -96.72,-109.18 -31.74,-33.58 -59.59,-61.77 -64.31,-63.66 -10.66,-4.28 -57.03,-44.1 -99.28,-83.85 -36.29,-34.18 -70.87,-69.33 -78.8,-83.1 -6.86,-11.91 -80.94,-98.99 -158.3,-187.73 -75.92,-87.08 -154.67,-175.28 -176.15,-195.44l-11.63 -11.09c-67.76,-64.96 -323.28,-309.74 -435.47,-263.43l-57.12 24.24c-83.67,35.97 -108.73,46.76 -218.18,46.76 -126.93,0 -171.65,-97.1 -183.46,-124.79 -10.04,-0.7 -24.78,-2.46 -45.99,-17.9 -23.19,-16.83 -66.55,-16.66 -118.7,-16.41l-19.44 0.05c-30.95,0.07 -58.04,2.46 -85.46,4.87 -28.99,2.54 -58.39,5.15 -93.34,5.15 -28.51,0 -66.79,14.72 -107.36,30.3 -49.44,18.99 -102.09,39.23 -150.94,39.23 -30.65,0 -90.78,65.85 -156.73,138.06 -86.48,94.71 -182.39,199.74 -260.54,199.74 -30.3,0 -48.62,0.52 -62.07,0.89 -20.53,0.57 -31.6,0.85 -42.81,-0.99 -13.35,-2.21 -24.01,-6.81 -46.73,-16.61l-34.33 -14.59c-79.55,-32.99 -84.47,-38.33 -117.78,-74.35 -9.07,-9.77 -20.48,-22.1 -37.29,-38.9 -44.05,-44.15 -71.62,-58.62 -99.86,-73.41 -17.4,-9.1 -35.1,-18.4 -56.8,-34.01 -24.46,-17.62 -61.08,-22.1 -96.85,-20.93 -37.41,1.19 -74.15,8.75 -96.6,14.05l-17.05 4.08c-48.25,11.51 -120.76,28.86 -183.8,36.04 -28.39,3.21 -62.87,11.66 -95.06,21.3 -44.07,13.2 -83.05,28.46 -96.75,36.07 -12.38,6.86 -44.47,48.1 -71.92,83.38 -17.5,22.5 -33.29,42.76 -43.23,52.65 -10.99,10.94 -37.46,32.07 -70.55,57.27 -41.02,31.25 -94.11,70.18 -140.3,103.54 -38.8,28.02 -50.07,49.84 -63.41,75.72 -13.8,26.8 -29.68,57.55 -73.38,101.25 -22.87,22.87 -42.73,36.34 -59.69,42.88 -19.09,7.38 -35.17,6.59 -48.42,0.72 -13.13,-5.82 -22.8,-16.43 -29.56,-28.86 -8.03,-14.67 -12.08,-32.09 -13.3,-46.24 -1.02,-11.88 -4.05,-30.25 -7.76,-52.85 -9.02,-55.14 -22.1,-134.81 -22.1,-207.02 0,-50.11 -4.92,-77.06 -9.74,-103.66 -5.1,-27.99 -10.14,-55.78 -10.14,-104.98 0,-48.8 -13.27,-107.09 -25.93,-162.77 -12.13,-53.25 -23.76,-104.41 -23.76,-145.2 0,-48.4 -23.32,-82.95 -45.17,-115.29 -12.33,-18.27 -24.34,-36.02 -32.79,-56.4 -6.94,-16.66 -31.97,-34.26 -62.87,-50.36 -52.43,-27.34 -120.29,-48.9 -153.45,-58.07 -24.91,-6.89 -69.18,-11.24 -115.14,-13 -51.43,-1.96 -104.58,-0.77 -135.48,3.51 -25.9,3.58 -59.14,14.12 -91.65,24.41 -40.77,12.88 -80.59,25.5 -109.63,25.5 -17.82,0 -27.37,3.18 -38.23,6.81 -18.12,5.99 -39.25,13.05 -90.88,13.05 -34.16,0 -82.43,20.71 -136.15,43.78 -71.59,30.77 -152.48,65.48 -231.46,65.48 -104.26,0 -121.71,-19.02 -121.71,-32.66 0,-4.75 1.27,-8.45 2.96,-11.39 -14.27,-31.99 -40.47,-94.31 -61.48,-153.15 -15.69,-43.97 -29.98,-87.08 -36.57,-115.22 -9.12,-38.9 -16.7,-74.92 -22.02,-116.46 -5.29,-41.49 -8.3,-87.58 -8.3,-146.07 0,-79.07 -19.12,-141.89 -30.45,-179.18 -5.44,-17.9 -9.32,-30.68 -9.32,-39.38 0,-10.17 -47.45,-85.19 -79.82,-136.32 -11.63,-18.42 -21.48,-33.91 -26.82,-43.05 -8.95,-15.24 -22.57,-30.65 -34.08,-43.68 -7.18,-8.13 -13.75,-15.56 -18.72,-22.55 -7.13,0.6 -16.18,-0.75 -27.64,-5.47 -18.72,-7.73 -74.63,-4.25 -122.65,-1.27 -22.8,1.39 -44,2.73 -59.04,2.73 -23.69,0 -55.86,6.56 -90.31,18.62 -32.51,11.39 -67.02,27.69 -98.34,47.93 -39.72,25.58 -176.05,81.24 -309.07,123.99 -100.98,32.47 -200.96,57.85 -257.34,57.85 -95.48,0 -168.17,-22.07 -206.7,-33.73 -11.98,-3.53 -20.21,-6.04 -21.78,-6.04 -9.87,0 -41.51,-12.13 -78.93,-26.5 -50.29,-19.32 -112.14,-43.05 -129.74,-43.05 -25.01,0 -108.63,-63.61 -186.96,-123.27 -63.41,-48.25 -123.32,-93.87 -133.91,-95.58 -25.38,-4.13 -32.96,-12.45 -41.04,-21.38 -2.93,-3.33 -6.12,-6.81 -12.78,-9.57 -15.26,-6.34 -87.15,-43.88 -147.11,-77.73 -41.12,-23.24 -77.26,-45.24 -87.45,-55.43 -19.94,-19.94 -213.63,-140.55 -250.42,-163.42l-17.23 -11.48c-18.97,-13.27 -49.54,-34.7 -133.56,-69.48 -93.79,-38.83 -297.95,-38.61 -554.05,-38.38l-64.73 0.05c-22.65,0.07 -45.47,-1.07 -68.24,-3.13 -15.49,-1.42 -30.53,-3.23 -45.07,-5.42 -7.21,93.19 -11.41,237.87 12.63,355.38 16.33,79.97 45.49,146.94 95.21,173.84 38.01,20.56 123.17,74.08 185.07,129.61 42.01,37.69 74,77.38 76.49,111.37 1.76,24.41 4.82,39.45 7.91,54.69 5.47,27.07 11.16,55.04 11.16,125.49 0,24.54 1.52,50.89 3.08,78.35 6.49,112.81 14.02,244.33 -69.55,312.7 -113.95,93.19 -61,213.56 -3.03,345.36 38.65,87.83 79.42,180.5 79.42,276.9 0,30.08 -1.32,67.32 -2.73,107.24 -5.64,160.34 -12.95,366.76 61.92,464.23 6.21,8.08 13.52,27.89 22.84,53.07 17.62,47.78 43.3,117.21 69.88,138.44 2.56,2.01 5.02,4.72 7.33,7.98 13.5,19.17 33.26,78.85 39.43,144.73 6.24,66.57 -0.85,141.15 -40.77,191.04 -8.38,10.49 -18.17,19.86 -29.31,27.69 -11.96,8.4 -21.38,18.05 -28.51,28.54 -21.38,31.52 -23.89,73.01 -14.42,116.29 9.92,45.39 32.94,92.55 61.4,133.04 25.38,36.12 54.89,66.7 83.1,85.84 20.78,14 78.83,72.56 128.12,130.11 37.88,44.25 71.32,88.79 80.32,114.03l2.14 6.16c32.44,90.44 94.46,263.77 25.26,361.14 -6.59,9.27 -12.3,22.2 -18.37,36.04 -25.06,57.08 -56.35,128.22 -198.02,128.22 -17.35,0 -30.97,0.37 -44.42,0.72 -58.84,1.59 -116.41,3.13 -171.25,-19.54 -45.49,-18.79 -105.62,32.09 -166.43,83.55 -46.34,39.23 -93.14,78.83 -139.75,93.34 -122.43,38.13 -167,-9.22 -223.08,-68.86 -31.69,-33.71 -67.62,-71.92 -126.75,-97.3 -23.07,-9.92 -50.41,-24.39 -80.29,-40.2 -65.78,-34.83 -144.58,-76.54 -214.08,-87.92 -81.39,-13.32 -152.28,17.55 -175.77,161.11 -10.66,65.18 -55.98,65.97 -103.54,66.72 -41.56,0.67 -85.79,1.42 -85.79,85.84 0,20.98 0.35,36.37 0.65,52.05 2.44,116.76 4.85,233.37 -95.28,305.16 -27,19.34 -99.68,54.39 -181.67,84.92 -64.63,24.06 -135.45,45.57 -194.72,54.64 -64.71,9.92 -117.8,4.82 -140.57,-26.95 -2.91,-4.18 -5.37,-8.75 -7.21,-13.72 -23.39,-62.87 -101.8,-75.47 -193.87,-90.24 -121.61,-19.51 -265.12,-42.58 -357.54,-183.36 -23.32,-35.52 -37.44,-69.13 -50.49,-100.38 -32.14,-76.76 -57.95,-138.24 -221.46,-171.5 -71.94,-14.62 -225.54,-27.34 -351.37,-10.47 -80.44,10.79 -148.48,33.31 -172.05,74.48 -26.13,45.64 -91.45,148.38 -158.35,220.99 -44.45,48.25 -90.76,83.87 -130.03,83.87 -51.68,0 -85.86,-33.93 -127.87,-75.64 -46.54,-46.21 -103.88,-103.19 -206.52,-126.11 -66.57,-14.87 -113.9,-48.77 -163.12,-84.05 -88.07,-63.09 -183.03,-131.1 -411.21,-86.28 -48.7,64.51 -77.04,73.43 -92.23,76.96 -0.37,5.99 -0.25,19.24 -0.02,43.85l0.4 58.91c0,171.57 3.43,187.83 19.46,263.75 6.79,32.17 15.79,74.7 27.37,141.32 20.19,116.11 46.11,173.11 74.2,234.91 22.25,48.92 45.91,100.93 69.55,187.11l34.08 121.73c66.22,234.52 103.16,365.27 103.16,664.05 0,191.76 -136.03,260.29 -248.58,317 -87.9,44.27 -159.39,80.32 -117.38,169.19 43.9,92.9 76.39,163.3 102.42,236.98 26.13,73.9 45.71,150.82 63.69,256.34 1.67,9.77 4.42,17.97 8,24.66 7.78,14.64 20.21,23.14 34.43,27.34 15.76,4.65 34.06,4.4 51.48,1.44 18.72,-3.18 36.14,-9.45 48.75,-16.16 147.88,-79.07 249.31,-80.72 331.56,-30.13 80.19,49.27 139.16,147.78 205.36,271.9 50.29,94.31 67.52,217.01 83.23,329.23 13.72,98.04 26.37,187.98 58.32,238.49 49.07,77.51 194.89,5.89 310.56,-50.91 31.17,-15.31 60.36,-29.66 85.64,-40.1 56.35,-23.27 131.7,-7.71 186.74,3.65 21.4,4.42 39.5,8.15 49.89,8.28 25.53,0.3 63.22,15.91 100.13,35.9 53,28.64 106.97,67.64 118.97,81.59 61.87,71.94 98.37,40.99 131.8,12.6 11.46,-9.74 22.75,-19.32 35.32,-26.55 141.17,-81.16 198.64,-81.81 318.31,-83.08 22.94,-0.22 48.35,-0.55 77.81,-1.47 50.94,-1.62 94.04,16.7 129.76,47.83 46.26,40.35 79.8,102.24 102.04,169.49 21.85,66 33.09,137.77 35.03,199.02 2.19,69.5 -8.15,127.2 -28.84,150.97 -52.48,60.26 -90.34,165.13 -94.71,267.65 -3.7,86.13 16.31,169.96 71.34,222.41 137.67,131.15 135.38,376.88 133.59,569.01l-0.3 60.41c0,103.73 -50.66,119.4 -105.23,136.25 -49.57,15.31 -103.44,31.99 -103.44,162.62 0,152.73 28.86,193.57 45.02,216.39 7.13,9.99 12.43,17.5 14.32,29.01 3.63,22.25 52.05,65.23 111.74,109.58 87.35,64.88 196.78,129.46 233.3,141.37l45.79 14.87c290.45,93.87 314.39,101.7 314.83,442.26z"/>
 </g>
</svg>
