<?xml version="1.0" encoding="UTF-8"?>
<!DOCTYPE svg PUBLIC "-//W3C//DTD SVG 1.1//EN" "http://www.w3.org/Graphics/SVG/1.1/DTD/svg11.dtd">
<!-- Creator: CorelDRAW 2019 (64-Bit) -->
<svg xmlns="http://www.w3.org/2000/svg" xml:space="preserve" width="83.5267mm" height="65.4006mm" version="1.1" style="shape-rendering:geometricPrecision; text-rendering:geometricPrecision; image-rendering:optimizeQuality; fill-rule:evenodd; clip-rule:evenodd"
viewBox="0 0 4568.56 3577.14"
 xmlns:xlink="http://www.w3.org/1999/xlink"
 xmlns:xodm="http://www.corel.com/coreldraw/odm/2003">
 <defs>
  <style type="text/css">
   <![CDATA[
    .fil0 {fill:#769897}
   ]]>
  </style>
 </defs>
 <g id="Vrstva_x0020_1">
  <metadata id="CorelCorpID_0Corel-Layer"/>
  <path id="Obrys" class="fil0" d="M4526.35 2228.74c0.48,-3.83 0.93,-7.35 1.71,-10.16 -0.9,-6.98 -1.03,-7.15 -1.39,-7.58 -0.75,-0.88 -1.8,-2.13 -3.39,-5.87 -2.06,-4.8 -10.61,-13.77 -16.22,-19.65 -2.74,-2.88 -4.85,-5.09 -5.61,-6.27 -9.9,-15.6 -21.39,-19.61 -33.21,-23.73 -15.46,-5.39 -31.47,-10.97 -46.1,-38.46 -11.06,-20.82 -13.15,-22.66 -18.95,-27.75 -3.35,-2.95 -7.86,-6.91 -15.55,-15.44l-1.48 -1.74c-8.4,-10.52 -11.66,-25.86 -10.48,-40.6 1.18,-14.77 6.85,-29.14 16.28,-37.66l1.61 -1.36c14.23,-11.36 26.59,-25.71 36.09,-41.68 9.36,-15.74 15.95,-33.03 18.82,-50.57 1.43,-8.74 4.8,-16.97 7.79,-24.3 1.64,-4.02 3.17,-7.76 4.15,-11.09 3.06,-10.47 3.92,-12.27 7.21,-19.2l2.14 -4.53c14.93,-31.94 25.67,-30.03 34.61,-28.44 3.28,0.58 6.17,1.09 9.02,-3.64l1.32 -2.19 2.53 0.22c1.53,0.13 8.24,-2.08 12.95,-3.64l4.34 -1.38c9.48,-2.74 15.34,-5.46 19.64,-9.44 4.33,-4.01 7.46,-9.65 11.38,-18.14 5.35,-11.55 3,-30.67 -2.99,-49.97 -7.38,-23.79 -20.22,-47.49 -31.11,-58.05 -24.19,-23.46 -43.37,-37.32 -63.71,-40.93 -20.26,-3.6 -42.29,2.89 -72.31,20.07 -5.4,3.09 -16.72,5.04 -27.94,5.55 -11.25,0.51 -22.75,-0.38 -28.43,-2.94 -6.8,-3.06 -18.44,-4.45 -30.87,-4.77 -16.79,-0.43 -34.84,1.12 -44.78,3.06 -17.45,3.41 -31.86,5.43 -46.15,4.44 -14.41,-1.01 -28.55,-5.07 -45.26,-13.83 -19.67,-10.31 -39.04,-29.56 -55.26,-45.69 -11.31,-11.23 -21.06,-20.93 -27.73,-24.45 -14.17,-7.47 -19.58,-8.36 -22.86,-8.9 -2.46,-0.4 -4.06,-0.67 -6.43,-2.28 -3.48,-2.37 -7.94,-7.73 -20.72,-23.08l-0.14 -0.17c-4.51,-5.44 -9.7,-17.82 -13.77,-30.73 -4.32,-13.7 -7.5,-28.32 -7.39,-36.06 0.32,-21.64 -4.2,-49.72 -13.34,-75.22 -7.18,-20.03 -17.2,-38.39 -29.9,-50.58 -8.9,4.91 -26.52,3.53 -47.45,1.88 -13,-1.02 -27.36,-2.15 -41.15,-2 -8.93,0.09 -28.05,-1.06 -43.55,-5.59 -10.65,-3.12 -19.79,-7.92 -23.59,-15.19 -2.66,-5.09 -10.76,-10.43 -17.26,-14.71 -2.5,-1.65 -4.81,-3.17 -6.44,-4.39 -3.93,-2.96 -34.22,-4.09 -63.68,-3.4 -26.42,0.61 -51.65,2.67 -55.7,6.14 -8.49,7.27 -15.45,12.6 -22.73,17.45 -7.26,4.84 -14.83,9.19 -24.58,14.54 -26.22,14.4 -44.91,-14.36 -59.06,-36.15 -5.63,-8.68 -10.48,-16.14 -13.93,-18.03 -13.2,-7.26 -19.83,-13.63 -26.81,-20.32 -4.6,-4.41 -9.37,-9 -16.33,-14.02 -5.16,-3.72 -23.65,-20.12 -31.08,-26.72l-2.8 -2.48c-4.03,-2.48 -6.03,-7.34 -6.59,-12.63 -0.62,-5.97 0.61,-12.83 2.82,-16.96 6.09,-11.44 8.53,-22.77 7.98,-34.09 -0.56,-11.4 -4.17,-22.92 -10.13,-34.63 -9.18,-18.03 -52.23,-15.38 -81.56,-13.58 -7.59,0.47 -14.32,0.89 -19.33,0.89 -6.15,0 -13.67,-1.91 -21.11,-4.65 -9.44,-3.48 -18.95,-8.36 -25.29,-12.26 -14.2,-8.72 -15.07,-8.58 -18.71,-7.93 -2.58,0.46 -6.13,1.09 -12.77,0.79 -3.56,-0.16 -8.27,3.21 -14.22,7.47 -10.53,7.54 -24.47,17.54 -46.57,18.85 -44.77,2.68 -55.98,-11.68 -69.69,-29.27 -5.83,-7.48 -12.16,-15.6 -22.14,-22.99 -14.39,-10.65 -24.25,-29.88 -32.43,-45.86 -6.03,-11.76 -11.09,-21.63 -15.29,-23.42 -17.97,-7.67 -20.84,-12.77 -23.55,-17.58 -1.12,-2.03 -2.24,-3.99 -5.5,-6.24 -6.66,-4.59 -13.31,-13.5 -18.24,-20.1 -1.71,-2.29 -2.57,-4.17 -3.16,-5.25 -1.86,1.16 -3.8,1.43 -5.68,0.97 -2.75,-0.67 -4.95,-2.93 -6.31,-6.24 -1.06,-2.57 -1.66,-5.92 -1.62,-9.6 0.11,-10.33 5.28,-24.01 20.14,-31.41 6.88,-3.42 15.33,-10.32 21.47,-18.09 4.84,-6.13 8.19,-12.67 7.96,-18.14 -1.71,-40.01 -17.09,-45.82 -30.09,-50.74 -7.93,-3 -15.14,-5.73 -19.44,-13.9 -10.93,-20.81 2.98,-29.55 16.75,-38.18 2.4,-1.5 4.79,-3 6.89,-4.49 7.03,-4.99 8.46,-7.35 10.03,-9.97 1.01,-1.68 2.09,-3.47 4.11,-5.79 2.1,-2.41 4.01,-7.31 5.5,-12.8 1.85,-6.85 2.95,-14.43 2.95,-19.49 0,-1.92 -3.53,-8.64 -7.9,-16.05 -5.92,-10.05 -13.25,-20.87 -15.95,-23.57 -5.31,-5.33 -7.41,-8.35 -9.76,-11.72 -1.09,-1.54 -2.23,-3.17 -3.77,-5.14 -1.54,-1.95 -2.99,-5.11 -4.09,-8.78 -1.48,-4.92 -2.44,-11.06 -2.26,-16.61 0.2,-6.2 1.87,-11.85 5.82,-14.95 1.1,-0.85 2.33,-1.5 3.68,-1.91 0.99,-0.29 -0.42,-0.95 0.34,-2.71 2.77,-6.42 7.36,-17.01 18.1,-23.48 36.77,-22.14 36.06,-35.96 34.61,-63.66 -0.51,-9.96 -1.12,-21.62 -0.32,-35.89 0.61,-10.87 2.22,-18.03 3.83,-25.19 1.95,-8.67 3.9,-17.37 3.9,-33.42 0,-4.8 -2.56,-13.94 -5.9,-22.55 -3.17,-8.18 -6.93,-15.65 -9.68,-18.1 -6.22,-5.54 -16.03,-15.94 -22.96,-26.69 -5.08,-7.87 -8.66,-16.08 -8.45,-23.11 0.22,-7.37 0.16,-13.27 0.13,-18.17 -0.21,-23.51 -0.24,-26.05 25.97,-47.45 10.28,-8.41 9.17,-18.6 7.82,-31.13 -0.43,-4 -0.89,-8.23 -1.06,-12.8 -0.81,-0.1 -1.59,-0.35 -2.6,-1.07 -1.91,-1.36 -10.43,-3.82 -20.66,-6.78 -22.51,-6.5 -52.69,-15.22 -52.22,-26.68 1.74,-41.26 -8.76,-49.64 -18.41,-57.32 -3.92,-3.12 -7.74,-6.17 -10.94,-10.94 -0.99,-1.48 -11.05,-4.25 -23.16,-7.03 -18.76,-4.32 -41.54,-8.05 -45.97,-7.89 -14.45,0.56 -19.35,-2.29 -25.6,-5.94 -2.87,-1.68 -6.08,-3.56 -10.87,-5.22 -15.38,-5.33 -29.98,-14.04 -43.12,-24.64 -14.63,-11.8 -27.54,-25.97 -37.77,-40.44 -1.1,-1.56 -2.25,-3 -3.44,-4.31 -12.13,-13.43 -31.2,-18.62 -50.51,-18.21 -19.59,0.42 -39.28,6.6 -52.33,15.83 -1.76,1.25 -3.41,2.58 -4.93,3.94 -52.82,47.72 -51.88,79.46 -50.19,136.36 0.34,11.47 0.71,23.91 0.71,36.89 0,27.96 -30.76,45.51 -58.64,61.43 -17.9,10.22 -34.55,19.73 -39.36,29.94 -7.32,15.51 -22.44,30.95 -40.03,41.36 -10.23,6.05 -21.38,10.45 -32.4,12.21 -11.26,1.79 -22.4,0.85 -32.33,-3.84 -8.52,-4.02 -16.09,-10.75 -22.02,-20.78l-0.67 -1.13c-26.5,-44.82 -44.37,-75.03 -104.1,-71.37 -8.33,0.51 -17.95,9.06 -28.24,18.2 -22.73,20.2 -48.44,43.04 -80.78,5.16 -28.84,-33.77 -65.93,-30.1 -95.95,-27.14 -16.34,1.61 -30.73,3.04 -41.64,-1.47 -15.69,-6.48 -42.59,-10.56 -69.1,-10.73 -23.48,-0.15 -46.52,2.75 -60.9,9.76 -19.01,9.26 -31.56,18.74 -41.68,26.39 -24.58,18.57 -36.06,27.22 -84.98,1.79 -17.61,-9.16 -41.67,-34.87 -62.99,-57.65 -17.79,-19.01 -33.63,-35.95 -40.74,-38.27 -27.43,-9 -73.11,-16.39 -112.59,-11.29 -27.73,3.57 -52.27,13.32 -64.68,33.06l-5.96 9.65c-16,26.11 -36.88,60.18 -63.12,67.01 -33.09,8.63 -124.61,8.43 -173,8.33l-12.77 -0.02c-13.58,0.02 -23.6,0.45 -31.31,0.78 -13.06,0.56 -20.1,0.86 -25.11,-1.64 -6.48,-3.23 -7.92,-9.34 -11.03,-22.53 -0.9,-3.78 -1.95,-8.23 -3.15,-12.84 -2.49,-9.57 -3.96,-15.53 -5,-19.79 -1.26,-5.14 -1.93,-7.83 -2.73,-10.23 -0.88,-2.63 -2.09,-5.39 -4.59,-11.1l-6.47 -14.95c-1.18,-2.77 -2.76,-5.02 -4.63,-6.77 -5.04,-4.73 -12.68,-6.16 -21.53,-5.41 -9.49,0.8 -20.27,4.11 -30.89,8.65 -21.81,9.32 -42.7,23.65 -50.94,32.46 -10.14,10.84 -19.3,20.43 -28.46,29.85 -9.28,9.54 -18.71,19.06 -29.2,29.57l-5 5.02c-17.43,17.48 -25.07,25.16 -33.53,29.65 -6.73,3.57 -13.44,4.93 -25.37,7.31 -6.54,1.31 -14.7,2.95 -25.12,5.4 -24.1,5.67 -34.1,11.49 -41.35,15.7 -13.69,7.97 -18.66,10.85 -73.69,-0.38 -28.05,-5.73 -46.6,-14.82 -63.85,-23.26 -21.63,-10.6 -41.15,-20.17 -75.43,-20.17 -12.38,0 -18.77,1.84 -26.23,3.99 -2.9,0.85 -5.97,1.74 -9.81,2.64 -10.83,2.54 -20.06,4.87 -28.07,6.9 -28.74,7.25 -41.96,10.59 -79.51,10.6 -1.97,0.18 -3.99,1.2 -5.97,2.87 -7.18,6.04 -13.47,19.64 -17.82,34.96 -4.43,15.59 -6.75,32.76 -5.96,45.57 0.43,7.04 1.76,12.54 4.1,15.33 5.67,6.73 9.91,15.98 12.8,25.9 3.31,11.37 4.91,23.71 4.91,34.13l-0.02 5.06c0,9.18 -0.01,13.33 0.36,16.88 0.28,2.76 0.86,5.41 1.9,10.21l2.22 10.56c3.32,16.37 5.53,40.7 6.34,65.32 0.82,24.66 0.27,49.67 -1.9,67.33 -1.21,9.82 -5.58,12.15 -10.86,14.95 -7.54,4 -17.72,9.4 -17.72,63.8 0,38.31 6.73,44.55 16.32,53.42 9.14,8.46 20.6,19.07 31.59,54.29 6.39,20.48 -4.07,47.67 -14.28,74.17 -6.22,16.18 -12.36,32.11 -14.19,45.45 -0.68,4.93 -7.24,5.54 -16.86,6.4 -18.42,1.67 -51.6,4.68 -60.4,29.93 -5.29,15.18 -5.64,31.82 -6.01,48.93 -0.57,27.12 -1.18,55.43 -20.55,82.87 -4.28,6.06 -7.94,6.78 -10.82,7.35 -2.12,0.42 -3.16,0.62 -3.16,29.45 0,9.25 -1.02,33.66 -4.31,52.99 -2.16,12.67 -5.46,23.43 -10.4,27.3 -3.51,2.75 -6.91,7.53 -9.92,13.59 -5.64,11.4 -9.62,26.99 -10.15,42.32 -0.52,15.07 2.28,29.79 10.1,39.77 2.88,3.68 6.49,6.73 10.9,8.91 0.84,0.43 1.64,0.97 2.37,1.63 4.85,4.37 9.17,16.15 10.75,29.39 1.55,13 0.63,27.8 -4.77,38.74 -1.4,2.83 -3.11,5.43 -5.11,7.66 -0.59,0.63 -2.6,3.53 -5.15,7.18 -5.46,7.84 -13.32,19.11 -17.78,22.92 -5.33,4.55 -6.84,16.96 -8.34,29.4 -2.29,18.95 -4.6,37.99 -21.11,38.77 -5.02,0.24 -9.15,1.01 -13.52,1.82 -7.96,1.48 -16.74,3.11 -32.94,2.36 -23.61,-1.1 -45.75,22.53 -62.7,40.64 -8.14,8.69 -15.17,16.2 -21.11,19.72 -6.71,3.98 -12.19,3.75 -16.28,-3.15 -3.04,-5.14 -16.62,-8.12 -29.57,-8.12 -4.13,0 -8.14,0.33 -11.67,1 -3.36,0.65 -6.29,1.6 -8.45,2.87 -1.95,1.15 -3.15,2.55 -3.15,4.16 0,16.41 3.85,30.57 7.49,44 4.71,17.35 9.1,33.58 5.16,52.62l-0.53 2.58 -2.56 0.6c-24.98,5.79 -25.5,17.29 -26.66,43.41l-0.59 11.85c-0.69,11.78 3.88,14.42 10.75,18.38 7.77,4.48 17.89,10.32 27.67,27.25 3.61,6.25 6.9,10.39 9.68,13.89 7.96,10.02 12.3,15.48 11.11,45.71 -0.14,3.47 0.14,6.31 0.36,8.69 0.94,9.91 1.32,14.05 -16.11,22.67 -1.13,0.57 -3.33,2.25 -5.89,4.21 -3.34,2.55 -7.26,5.56 -11.09,7.79 -2.2,1.27 -6.9,2.98 -11.58,4.36 -4.68,1.38 -9.56,2.51 -12.15,2.65 -1.1,0.06 -7.48,2.37 -13.96,4.94 -6.05,2.41 -11.97,4.97 -13.57,6.08 -6.31,4.36 -11.89,12.14 -17.35,19.77 -5.23,7.26 -10.36,14.42 -16.41,19.18 -2.36,1.86 -7.82,7.56 -12.5,13.18 -3.49,4.18 -6.48,8.18 -7.17,10.11l-3.3 5.96c-3.74,6.59 -9.83,17.35 -11.02,19.86 -3.4,7.16 -11.56,26.69 -17.71,43.49 -4.11,11.25 -7.31,21.15 -7.49,24.9 -0.18,3.59 -0.4,6.54 -0.61,9.3 -0.89,11.99 -1.58,21.13 3.94,34.6 0.65,1.59 0.53,14.25 0.47,20.99l-0.03 3.54c-0.08,5.99 2.28,14.37 5.63,23.1 4.88,12.72 11.84,26.04 16.61,34.22 5.62,9.66 9.16,16.14 12.23,22.91 2.55,5.66 4.82,11.63 7.76,19.96 6.84,-4.21 13.04,-7.58 20.19,-10.05 8.64,-2.98 18.39,-4.56 31.88,-4.56 35.84,0 45.66,32.84 54.68,63 3.11,10.4 6.13,20.49 10.04,28.35 8.71,17.52 39.24,61.79 69.8,98.67 21.76,26.28 43.36,48.64 56.58,54.4 17.42,7.58 33,19.85 46.62,30.57 12.54,9.86 23.36,18.38 31.41,20.01 12.34,2.51 12.42,2.66 13.89,5.99 0.34,0.81 0.98,2.23 6.94,6.33 4.65,3.21 10.59,6.47 17.46,10.22 15.4,8.42 35.39,19.36 57.97,39.01 25.59,22.28 42.15,41.68 56.21,58.15 3.88,4.55 7.59,8.89 11.18,12.94 8.69,9.8 15.09,19.28 19.59,31.81 4.44,12.35 6.98,27.54 8.04,48.84 1.2,24.32 11.11,68.39 33.48,104.09 15.1,24.09 35.88,44.3 63.48,51.71 38.75,10.4 79.08,25.11 111.53,43.24 27.55,15.39 49.52,33.33 60.27,53.34 10.32,19.2 32.86,41.43 56.17,59.5 26.31,20.41 53.18,35.41 63.93,34.53 11.11,-0.91 24.17,3.39 37.13,10.67 14.45,8.11 28.96,19.99 40.51,32.35 5.39,5.79 13.93,10.29 22.37,14.74 6.3,3.32 12.58,6.64 17.93,10.65 15.29,11.48 22.1,27.16 -1.45,58.56 -29.77,39.69 -28.98,51.34 -27.49,73.32 0.53,7.88 1.15,17.03 0.63,29.13 -1.07,24.97 -0.64,25 0.72,25.07 3.52,0.19 8.51,0.48 14.74,8.95 5.09,6.92 26.32,20.51 52.43,35.47 38.28,21.92 86.81,46.52 111.39,57.97 21.03,9.8 40.9,13.09 62.05,16.6 20.34,3.37 41.86,6.95 66.84,16.46 21.38,8.14 55.59,11.7 90.44,15.33 47.32,4.91 95.84,9.97 117.71,27.12 8.94,7.01 16.54,13.43 23.65,19.42 22.19,18.73 39.7,33.52 76.07,47.75 40.81,15.96 74.03,10.99 118.82,4.28 7.21,-1.08 14.71,-2.21 23.42,-3.4 43.01,-5.92 56.21,-14.6 77.88,-28.87 7.23,-4.76 15.38,-10.12 25.35,-15.95l12.71 -7.38c39.71,-23.02 88.02,-51.03 111.76,-79.51 16.35,-19.62 25.38,-25.43 33.8,-30.84 5.38,-3.46 10.52,-6.76 17.35,-13.86 3.15,-3.27 6.08,-7.56 9.04,-11.91 2.93,-4.29 5.91,-8.66 9.43,-12.56 12.97,-14.32 30.87,-20.28 68.81,14.1 48.15,43.63 56.66,42.55 105.34,36.39 7.27,-0.91 15.42,-1.95 23.37,-2.83 21.17,-2.35 38.44,-9.19 54.14,-15.41 38.48,-15.25 68.21,-27.03 122.29,31.3 36.79,39.67 64,59.53 88.8,65.9 24.42,6.28 47.05,-0.56 74.77,-14.32 34.96,-17.34 37.4,-30.55 40,-44.71 1.63,-8.88 3.34,-18.12 11.37,-28.78 8.66,-11.49 17.85,-52.22 25.4,-98.52 9.94,-61.04 16.86,-131.32 16.01,-157.95 -1,-31.54 1.48,-34.27 12.59,-46.45 5.87,-6.43 14.43,-15.82 26.61,-35.29 14.47,-23.13 30.33,-26.2 47.33,-29.48 22.74,-4.39 47.82,-9.23 74.41,-73.71 4.55,-11.03 8.83,-21.92 12.8,-32.04 8.36,-21.27 15.42,-39.23 23.16,-53.45 25.33,-46.51 56.23,-52.51 153.38,0.4 46.46,25.31 88.71,30.7 122.14,23.56 19.98,-4.27 36.8,-13.04 49.44,-24.68 12.52,-11.55 20.93,-25.95 24.21,-41.57 3.83,-18.27 0.69,-38.34 -11.01,-57.65 -39.12,-64.52 -19.24,-127.36 -7.71,-163.81 3.58,-11.34 6.32,-20.01 6,-24.51 -0.89,-12.25 6.16,-57.54 13.31,-103.48 5.71,-36.74 11.5,-73.93 13.29,-94.64 2.01,-23.27 -3.9,-58.02 -10.11,-94.53 -5.92,-34.84 -12.13,-71.27 -12.13,-101.49 0,-31.38 2.54,-59.94 12.87,-80.58 10.7,-21.39 29.37,-34.16 61.34,-32.8 30.22,1.29 82.15,4.22 129.18,15.21 47.96,11.21 90.96,30.91 101.91,65.97 10.14,32.48 25.99,54.17 45.68,70.05 19.85,16 43.81,26.31 69.85,35.87 26.43,9.7 59.63,9.64 91.87,0.14 30.29,-8.92 59.68,-26.17 81.76,-51.45 43.83,-50.19 132.3,-46.45 179.77,-44.43l12.58 0.49c19.37,0.56 25.05,3.46 24.95,6.84 -0.04,1.49 -0.85,2.65 -2.06,3.57 11.9,3.9 31.09,10.41 48.35,16.78 14.91,5.51 28.52,10.98 35.03,14.68 5.56,3.16 18.94,7.07 34.89,11.72 31.76,9.27 73.42,21.43 88.9,38.48 12.79,14.09 17.56,21.65 22.98,30.25 4.07,6.47 8.54,13.55 17.29,24.62 12.19,15.44 22.98,23.2 33.93,31.06 7.09,5.1 14.27,10.26 21.94,17.46 2.43,2.29 5.78,4.83 9.8,7.51 3.84,2.55 8.23,5.2 12.96,7.87 3.41,-2.57 10.32,-8.33 17.04,-14.14 7.52,-6.51 14.67,-12.97 16.22,-14.93 2.64,-3.33 6.47,-8.65 10.76,-14.6 10.26,-14.22 23.11,-32.05 30.3,-37.46 2.57,-1.94 6.07,-5.93 9.25,-9.57 2.65,-3.02 5.13,-5.85 7.08,-7.53 4.74,-4.05 15.23,-18.18 22.19,-27.56 3.77,-5.08 6.58,-8.87 7.6,-9.66 5.88,-4.58 7.24,-15.28 8.33,-23.97z"/>
 </g>
</svg>
