<?xml version="1.0" encoding="UTF-8"?>
<!DOCTYPE svg PUBLIC "-//W3C//DTD SVG 1.1//EN" "http://www.w3.org/Graphics/SVG/1.1/DTD/svg11.dtd">
<!-- Creator: CorelDRAW 2019 (64-Bit) -->
<svg xmlns="http://www.w3.org/2000/svg" xml:space="preserve" width="86.2522mm" height="62.2871mm" version="1.1" style="shape-rendering:geometricPrecision; text-rendering:geometricPrecision; image-rendering:optimizeQuality; fill-rule:evenodd; clip-rule:evenodd"
viewBox="0 0 89412.07 64569"
 xmlns:xlink="http://www.w3.org/1999/xlink"
 xmlns:xodm="http://www.corel.com/coreldraw/odm/2003">
 <defs>
  <style type="text/css">
   <![CDATA[
    .fil0 {fill:#FFF383}
   ]]>
  </style>
 </defs>
 <g id="Vrstva_x0020_1">
  <metadata id="CorelCorpID_0Corel-Layer"/>
  <path class="fil0" d="M2482.74 43157.72l-6.32 -0.21c-13.17,43.12 -21.35,107.29 -30.17,177.68 -24.36,193.54 -54.53,431.65 -216.03,557.09 -4.04,3.63 -51.73,67.8 -115.27,153.53 -136.32,183.59 -341.05,459.33 -444.09,547.34 -28.3,24.15 -71.74,73.81 -118.18,126.78 -65.93,75.36 -138.18,157.88 -198.62,203.39 -118.38,89.25 -354.43,416.42 -542.37,677.13 -81.79,113.41 -154.98,214.89 -207.74,281.65 -35.76,45.3 -179.13,175.81 -327.37,303.94 -98.79,85.42 -201.11,171.15 -276.57,231.17 267.24,140.57 577.61,280.82 863.1,391.12 302.8,117.04 576.37,200.49 737.57,214.27 293.06,25.19 1001.18,233.24 1548.42,393.82 355.36,104.29 641.37,188.36 677.65,186.18 81.17,-4.87 708.02,392.37 1332.59,822.26 574.5,395.48 1156.68,820.29 1310.31,979 152.28,157.36 382.62,373.29 687.39,563.41 302.9,189.08 680.03,352.97 1127.34,407.71 454.05,55.67 958.47,82.62 1456.27,-18.76 494.27,-100.55 985.43,-328.72 1419.46,-782.66 409.89,-428.65 1023.37,-602.7 1662.24,-614.93 799.25,-15.34 1642.96,223.08 2172.17,529.2 429.37,248.48 871.29,608.4 1256.92,981.8 459.75,445.03 841.44,911 1028.55,1231.21 201.73,345.1 333.28,475.71 448.55,590.16 79.2,78.58 151.56,150.52 232.93,272.43 106.88,159.85 568.91,616.9 966.14,1009.68 315.66,312.23 591.61,585.08 631.52,656.19 24.57,43.75 58.98,67.9 109.47,103.15 81.89,57.22 199.24,139.12 379.3,351 295.96,348.41 1486.95,1102.98 2147.29,1521.26l10.78 6.63c323.43,204.94 741.82,354.53 1195.24,473.64 456.22,119.73 951.01,208.99 1420.92,292.12 470.32,83.24 910.48,153.01 1340.78,201.63 429.79,48.62 852.74,76.5 1290.2,76.5 439.84,0 1152.22,64.48 1808,149.79 662.31,86.25 1269.05,194.78 1483.01,280.82 186.49,74.95 434.35,79.51 708.95,84.38 309.44,5.49 652.25,11.92 997.55,116.93 370.6,112.79 1225.82,125.85 2037.09,138.18 571.29,8.6 1121.33,17.1 1472.02,59.61 737.98,89.57 976.2,-115.17 1463.63,-534.49l165.14 -141.29c355.98,-301.25 817.18,-748.87 1177.51,-1238.78 262.58,-357.02 471.05,-735.6 543.82,-1093.13 80.03,-392.99 370.49,-717.35 732.49,-966.25 480.79,-330.79 1091.47,-530.76 1491.82,-579.79 446.27,-54.63 540.19,-35.97 691.23,-5.91 79.3,15.86 176.02,35.14 358.88,47.06 283.62,18.56 1251.22,434.76 2138.99,883.94 811.89,410.71 1564.7,854.6 1682.56,1056.54 136.84,234.49 576.89,545.06 986.25,833.87 246.51,173.95 482.45,340.53 642.4,484.01 236.15,211.89 487.84,334.83 734.87,455.29 182.86,89.15 363.65,177.47 539.05,301.25 294.72,207.95 1138.64,375.78 1641.1,475.5 162.96,32.34 290.78,57.84 357.74,76.5 128.34,35.76 500.69,98.38 901.15,155.81 393.4,56.5 812.93,108.02 1054.26,124.5 58.67,3.94 129.16,6.53 213.13,9.54 681.9,24.15 2226.17,79.3 3443.29,996.62 793.44,597.93 905.09,1741.44 1005.54,2772.48 74.12,760.89 142.33,1458.86 474.05,1792.03 703.05,706.26 1067.73,613.38 1505.09,502.04l148.24 -36.49c309.02,-72.36 442.75,-153.63 545.48,-216.14 76.92,-46.54 138.91,-84.28 236.15,-104.91 129.68,-27.57 656.6,-507.95 1025.85,-844.65 159.43,-145.44 290.36,-264.86 354.53,-314.83 76.71,-59.81 363.24,-899.9 659.92,-1845.52 369.46,-1177.72 747.21,-2508.97 760.48,-2720.44 15.24,-242.05 104.6,-430 208.47,-648.42 72.25,-152.18 152.39,-320.32 216.24,-529.2 71.74,-234.69 375.26,-724.71 731.55,-1240.65 444.51,-643.65 974.13,-1332.91 1236.39,-1614.04 209.71,-224.64 423.57,-534.59 638.98,-846.72 262.48,-380.13 527.65,-764.41 797.28,-1014.55 156.12,-144.82 320.42,-363.24 507.02,-611.3 386.04,-513.24 865.9,-1151.49 1585.53,-1567.29 534.9,-309.12 997.97,-495.62 1446.11,-604.77 448.86,-109.26 880.83,-141.09 1354.26,-141.09 477.06,0 787.32,34.52 1011.34,111.02 233.24,79.51 372.05,202.45 501.11,376.3 150.21,202.25 807.64,616.69 1353.43,960.55 282.38,177.99 535.63,337.63 677.65,442.23 250.76,184.73 979.62,612.55 1624.51,872.64 403.87,162.96 769.08,260.09 943.34,185.45l213.34 -90.19c513.24,-216.24 1255.68,-528.99 1558.17,-794.06 206.39,-180.89 509.3,-327.99 825.68,-363.44 265.79,-29.65 542.26,18.56 781.93,189.39 229.82,163.79 586.32,370.08 967.91,570.67 424.4,222.98 877.93,438.39 1222.92,580.72 598.24,247.03 1336.33,96.3 1777.1,6.43l87.18 -17.73c208.67,-41.88 354.43,-78.06 585.39,-229.93 239.67,-157.67 572.02,-438.5 1152.22,-969.36 214.17,-195.82 495.2,-366.66 816.97,-519.56 289.95,-137.67 615.24,-261.96 955.67,-377.75 -95.37,-142.54 -173.33,-278.44 -234.07,-398.07 -99.21,-195.3 -154.35,-352.04 -167.21,-428.34 -106.57,-627.99 -288.6,-974.85 -474.47,-1328.97 -120.04,-229.1 -242.16,-461.51 -347.58,-771.67 -129.58,-381.17 -335.25,-629.65 -537.6,-874.19 -93.82,-113.3 -187.22,-226.09 -274.4,-353.39 -170.63,-249.21 -436.94,-420.36 -653.7,-559.58 -117.76,-75.57 -221.94,-142.64 -295.03,-210.96 -170.32,-159.23 -337.74,-278.23 -488.98,-385.63 -399.73,-284.04 -695.89,-494.58 -695.89,-1128.27 0,-82.1 4.35,-155.08 7.88,-217.07 9.95,-169.59 13.99,-240.08 -132.27,-318.35 -203.8,-108.95 -442.95,-197.89 -634.84,-269.32 -134.76,-50.07 -247.34,-91.95 -314.93,-128.65 -417.87,-226.3 -807.44,-129.48 -1177.93,-37.32 -201.83,50.07 -398.79,99.1 -597.41,99.1 -62.2,0 -123.57,3.42 -184,6.74 -235.63,12.96 -464.72,25.5 -554.19,-133.1 -256.15,-47.37 -512.62,-38.56 -753.12,-30.17 -514.9,17.93 -963.35,33.48 -1252.15,-465.86 -255.43,-441.61 -296.89,-481.93 -406.57,-588.5 -68.52,-66.76 -162.23,-157.88 -337.42,-367.69 -213.44,-255.63 -612.34,-227.54 -933.49,-204.94 -308.71,21.67 -557.92,39.29 -602.8,-181 -39.29,-193.23 -138.29,-521.95 -229.82,-825.68 -85.21,-283 -164.31,-545.27 -185.14,-668.53 -31.62,-187.01 -224.54,-507.43 -267.66,-579.17l-14.82 -25.29 -11.4 -38.36c-59.92,-161.2 -251.9,-229.82 -470.53,-247.86 -236.66,-19.59 -501.94,20.21 -683.14,68.11 -45.72,12.02 -85.42,24.46 -116.62,36.07 -1391.27,518.11 -1842.72,-114.34 -2227,-652.87 -140.78,-197.38 -272.12,-381.27 -434.45,-474.68 -1300.87,-748.87 -1267.7,-1325.13 -1229.03,-1992.41 17.83,-308.09 36.9,-637.22 -90.19,-1011.34 -29.75,-88.01 -170.53,-129.89 -346.65,-145.85 -326.44,-29.65 -757.99,38.04 -928.1,72.67 -287.46,58.67 -512.31,188.15 -717.35,306.22 -405.74,233.55 -740.68,426.47 -1325.55,41.15 -186.8,-123.05 -363.86,-208.47 -519.56,-283.62 -489.91,-236.15 -786.6,-379.51 -685.84,-1229.45 39.39,-332.14 238.12,-386.35 455.29,-445.55 236.04,-64.48 500.49,-136.52 500.49,-788.36 0,-925.09 1056.12,-1133.15 1803.54,-1280.35l191.47 -38.25c78.78,-16.28 152.49,-39.91 220.39,-69.45 214.38,-93.4 372.15,-248.69 463.69,-438.81 92.26,-191.36 118.28,-419.32 69.04,-656.29 -17.62,-84.9 -45.2,-171.46 -82.83,-257.91 -292.02,-670.29 -505.26,-659.61 -1069.5,-631.41 -78.89,3.94 -164.72,8.4 -262.06,11.4 -510.96,16.17 -628.72,-466.59 -644.27,-958.37 -5.49,-173.43 1.66,-346.65 7.88,-496.44 3.63,-86.87 6.95,-165.76 6.95,-238.32 0,-644.27 -165.24,-804.53 -279.37,-915.14 -72.05,-69.87 -128.65,-124.81 -138.18,-238.43 -24.88,-300.42 26.12,-397.34 86.87,-512.31 56.7,-107.4 123.57,-234.07 123.57,-654.22 0,-380.55 -121.08,-581.03 -204.32,-719.01 -77.44,-128.23 -129.27,-214.48 -66.55,-337.63 71.74,-140.67 218.94,-493.13 357.43,-846 130.2,-331.72 252.84,-663.86 298.03,-821.12 -2.8,-15.96 -21.67,-56.39 -45.2,-137.87 -69.87,-241.02 -191.47,-660.85 -204.94,-771.98 -22.6,-186.91 -126.16,-493.85 -256.46,-821.84 -190.53,-479.55 -438.39,-1003.67 -577.51,-1271.74l-61.68 -120.98c-121.49,-240.29 -240.4,-475.3 -453.94,-660.34 -105.32,-91.43 -211.78,-109.99 -296.89,-124.71 -46.03,-7.98 -87.08,-15.03 -126.99,-31.51 -93.4,-38.36 -910.89,-130.93 -1215.56,-165.24l-91.02 -10.37c-105.53,-12.23 -364.48,-96.61 -575.13,-193.23 -167.21,-76.61 -310.26,-166.38 -342.92,-246.62 -129.99,-319.59 -126.78,-657.02 -123.57,-994.86l0.62 -154.56c0,-546.83 92.16,-659.51 172.19,-757.37 33.07,-40.43 63.44,-77.64 77.23,-167.52 65.83,-427.82 -34.42,-517.9 -171.25,-640.64 -61.06,-54.94 -128.65,-115.79 -195.3,-205.98 -39.5,-53.49 -183.59,-142.64 -341.88,-224.95 -179.96,-93.61 -372.57,-174.78 -451.25,-184.31 -129.58,-15.76 -378.99,-221.01 -636.81,-472.19 -403.77,-393.51 -843.92,-918.15 -854.6,-979.83 -1.04,-6.53 -103.77,-136.01 -244.96,-314.1 -338.46,-427.72 -885.08,-1117.6 -917.53,-1408.06 -29.75,-266.52 -28.4,-507.33 -27.16,-748.35 1.76,-321.25 3.63,-643.44 -71.94,-1030.21 -27.99,-143.68 -167.42,-280 -265.38,-375.78 -42.92,-41.88 -79.1,-77.33 -101.28,-108.22 -105.11,-146.17 -235.01,-272.64 -382.93,-372.98 -145.34,-98.38 -308.81,-172.19 -483.9,-214.79 -331.62,-80.86 -878.13,-122.22 -1362.55,-43.95 -349.35,56.5 -663.76,174.78 -832,384.7 -94.96,118.38 -153.73,421.18 -177.58,743.68 -27.57,375.16 -6.74,769.08 59.4,934.32 84.38,210.85 229.61,446.79 404.39,657.54 162.44,195.92 349.86,368.94 536.46,478.1 293.78,171.98 205.25,485.15 131.55,746.07 -12.23,43.44 -24.26,85.52 -32.97,122.63 -71.42,303.01 -283.52,443.37 -496.34,584.14 -138.08,91.33 -276.99,183.28 -362.93,319.59 -5.81,9.43 -28.4,82.62 -54.22,170.63 -43.33,147.41 -91.85,326.75 -95.58,347.48 -31.2,173.01 -152.9,476.23 -223.29,651.63l-45.4 114.44c-33.69,223.81 -138.39,381.07 -286.11,484.73 -165.45,116.31 -383.45,161.72 -613.48,157.57 -141.5,-2.59 -258.74,-0.62 -360.02,0.93 -422.33,6.95 -586.42,9.64 -1095.52,-307.78 -23.01,-14.31 -46.54,-32.65 -70.28,-54.42 -185.87,-170.63 -404.39,-584.35 -551.7,-990.92 -150.73,-416.42 -227.13,-835.63 -122.74,-1003.05l13.37 -18.97c10.47,-27.78 28.82,-68.42 37.01,-86.35 27.47,-137.15 138.81,-292.43 241.95,-435.91 88.01,-122.43 169.28,-235.73 167.73,-287.56 -7.05,-239.26 -7.26,-412.79 -7.26,-553.56 0.31,-604.88 0.21,-608.09 -547.34,-1477.21 -79.92,-126.88 -198.2,-445.96 -303.63,-778.93 -117.55,-371.53 -221.43,-765.97 -239.26,-931.94 -72.77,-678.37 -27.26,-763.38 132.17,-1059.65 45.92,-85.52 102.32,-190.22 169.49,-338.88 70.8,-156.53 122.74,-250.24 159.43,-316.48 31.1,-56.19 50.07,-90.39 60.23,-129.58 16.79,-65 16.79,-162.34 16.79,-408.33l-0.31 -49.34c0,-553.67 -222.36,-626.34 -499.45,-716.63 -117.14,-38.15 -242.99,-79.3 -371.22,-153.84 -136.42,-79.3 -347.38,-92.68 -540.29,-104.7 -183.17,-11.51 -352.04,-22.29 -459.13,-87.91 -63.23,-38.67 -113.2,-64.17 -152.59,-84.28 -145.85,-74.33 -175.71,-89.67 -276.99,-364.17 -14.93,-41.26 -22.08,-91.22 -22.08,-147.62 0.73,-255.32 147.1,-699.11 340.53,-1094.58 183.07,-374.23 412.89,-710.72 608.71,-816.04 -72.88,-36.28 -195.3,-83.35 -238.43,-109.47 -12.54,-7.57 -21.77,-11.92 -32.14,-22.08 -247.55,-245.06 -363.44,-449.28 -462.55,-624.05 -158.5,-279.48 -271.49,-478.3 -889.12,-647.48 -750.73,-205.46 -949.56,-501.01 -1094.58,-716.63 -63.44,-94.23 -115.07,-171.04 -201.83,-205.98 -286.53,-115.58 -2369.96,-85.94 -3536.27,-69.25 -332.66,4.66 -591.5,8.4 -714.66,7.26 -484.01,-4.25 -778.31,53.08 -1184.77,132.27l-165.97 32.14c-398.59,76.19 -468.25,459.23 -530.24,801.53l-21.67 117.35c-78.16,402.11 -93.4,480.48 -280.93,844.55 -11.09,21.56 -25.09,41.36 -41.36,58.78 -108.43,116.21 -326.75,138.18 -556.67,108.74 -216.55,-27.78 -448.86,-100.35 -601.66,-179.03 -58.36,-29.96 -106.77,-61.78 -140.67,-93.3 -133.83,-124.6 -379.62,-179.23 -646.03,-189.5 -360.65,-13.99 -752.8,53.59 -969.77,139.12 -551.49,217.59 -724.19,212.72 -1116.66,201.42 -93.71,-2.7 -201.94,-5.81 -348,-5.81 -496.76,0 -843.61,244.23 -1150.67,460.27 -244.33,171.98 -465.66,327.68 -727.1,348.1 -54.11,38.87 -155.39,267.87 -263.72,550.97 -179.96,471.05 -362.72,1074.47 -405.32,1260.34 99.52,92.36 202.56,174.05 302.08,252.94 391.23,310.16 734.04,581.86 734.04,1344.83 0,133.93 19.49,275.74 38.87,417.35 63.96,467.11 127.92,933.18 -416.11,1179.17 -257.91,116.62 -318.35,545.27 -380.24,985.94 -47.89,339.71 -96.72,686.67 -240.4,932.97 -15.03,25.81 -22.08,66.55 -30.48,116.41 -22.08,130.93 -53.39,314.52 -258.95,570.46 -56.29,69.97 -202.66,385.11 -322.6,691.44 -94.64,241.33 -171.46,472.71 -171.46,564.24l-2.07 234.9c-3.21,271.6 -3.84,324.26 86.25,707.5 122.22,519.87 264.65,814.69 393.3,1081.52 214.17,443.99 392.47,813.45 392.47,1956.86 0,102.94 6.32,240.29 13.58,399.62 29.44,645.2 74.53,1636.95 -204.11,1897.56 -329.24,307.88 -705.53,306.74 -1077.38,305.6 -285.7,-0.83 -569.22,-1.76 -808.68,151.76 -39.08,24.78 -90.71,23.12 -160.16,21.15 -136.11,-4.04 -367.49,-11.09 -543.3,195.72 -65.31,76.4 -156.32,147.31 -256.46,225.16 -206.39,160.37 -455.39,354.22 -529.1,641.06l-7.57 30.89c-88.74,347.27 -360.13,1408.06 -665.52,1504.99 -331.83,105.22 -533.25,169.18 -617.83,288.18 -84.17,118.28 -71.32,316.07 17.83,697.14 46.54,198.93 269.73,458.3 484.83,708.13 241.12,280.41 473.33,550.25 473.33,760.89 0,205.05 -187.01,335.66 -716.52,335.66 -225.16,0 -443.27,76.5 -599.59,211.99 -140.05,121.39 -230.65,291.71 -230.65,497.38 0,247.34 -27.89,483.9 -54.32,710.1 -69.35,590.57 -129.99,1108.06 372.67,1536.81 67.48,57.53 165.03,260.2 232.41,511.68 53.08,198.31 90.5,432.17 83.66,653.7 -7.05,229.3 -62.2,446.69 -195.61,603.11 -80.24,93.92 -187.42,165.03 -327.27,202.45 -157.98,42.29 -357.02,192.19 -521.01,388.63 -105.01,125.85 -194.47,270.15 -248.17,416.31 -51.52,140.67 -69.77,283.11 -35.56,410.82 24.88,92.99 78.58,180.17 168.04,254.8 82,68.63 107.81,140.26 133.83,213.13 12.44,35.66 25.5,71.84 46.96,104.18l0.62 1.24c54.84,86.14 102.21,181.1 151.04,279.37 88.11,177.26 182.14,365.93 314.31,493.96 165.34,160.06 316.8,429.37 371.01,701.91 45.92,231.17 23.53,467.21 -114.76,648.93l-169.9 227.02c-247.13,333.9 -352.04,475.71 -799.97,791.99l-126.05 89.46c-335.35,239.15 -546.51,389.88 -997.24,529.1 -31.93,9.85 -171.56,138.49 -335.35,289.32 -240.4,221.53 -530.65,488.88 -691.95,550.87 -16.07,6.12 -41.78,19.07 -70.08,33.07 -81.06,40.33 -185.25,92.26 -303.63,101.8 -76.09,6.01 -128.96,19.59 -184.11,33.59 -97.44,24.67 -202.56,51.42 -443.47,51.42 -230.03,0 -607.78,49.14 -874.61,195.82 -168.45,92.57 -290.67,225.26 -290.67,409.89 0,111.44 -22.18,223.91 -43.85,334.52 -19.59,99.72 -38.98,198.2 -38.98,286.94l0 53.28 -50.07 19.28c-268.49,102.83 -460.78,324.36 -657.54,551.08 -326.13,375.88 -665,766.18 -1382.87,737.77 -112.99,-4.46 -202.35,9.95 -288.29,23.84 -196.96,31.72 -379.51,61.06 -773.74,-101.8 -194.99,-80.44 -616.8,-150.52 -992.99,-143.68 -271.08,4.87 -513.34,48.62 -612.34,155.5 -49.76,53.8 -106.88,103.25 -169.28,147.41 -247.96,175.5 -583.83,270.35 -917.84,264.86 -335.66,-5.49 -671.64,-112.47 -917.63,-340.22 -55.25,-50.69 -106.46,-108.64 -152.28,-173.43 -191.67,-270.77 -452.18,-538.84 -755.81,-700.56 -238.84,-127.3 -505.05,-188.46 -784.84,-131.34 -174.88,35.66 -258.85,228.99 -349.24,437.15 -146.48,337.63 -307.78,708.75 -867.25,686.67 -344.58,-13.48 -577.3,-0.41 -726.27,101.9 -146.17,100.55 -224.54,298.65 -267.14,658.37l-0.62 3.42c-46.65,383.35 -317.63,573.78 -649.45,659.2 -314.41,80.75 -683.45,64.58 -956.71,32.14l-136.21 -16.69c-522.26,-64.38 -758.3,-93.5 -889.43,-35.87 -99.1,43.64 -156.74,154.87 -261.34,357.33 -46.34,89.67 -101.38,196.13 -174.57,324.57 -425.75,746.79 -955.36,839.16 -1216.7,884.56 -58.36,10.06 -99.93,17.42 -104.39,21.46 -93.4,84.38 -149.69,103.15 -202.04,120.56 -69.87,23.43 -131.24,43.95 -382.41,414.45 -96.51,142.33 -160.57,229.72 -209.81,297 -131.65,179.55 -157.46,214.89 -320.63,636.7 -22.91,59.3 -198.83,266.62 -432.69,444.41 -135.9,103.25 -293.37,199.86 -454.77,256.57 -168.97,59.4 -342.92,75.67 -503.49,13.68 -100.45,-38.77 -194.06,-107.81 -275.74,-215.31 -126.05,-165.86 -387.29,-460.78 -613.38,-689.98 -167.93,-170.32 -307.57,-301.35 -333.49,-301.35l-115.17 -1.45c-293.89,-4.56 -473.64,-7.36 -682.73,384.9 -52.66,98.69 -98.27,192.71 -139.32,277.51 -251.28,517.9 -347.58,716.52 -1351.98,716.52 -369.98,0 -531.9,-92.57 -693.3,-184.62 -203.91,-116.41 -406.98,-232.21 -1151.49,-110.19 -1.35,0.21 0.1,-1.04 -0.41,-0.62 -26.64,21.67 -57.33,46.96 -257.09,46.96l-60.64 -0.93z"/>
 </g>
</svg>
