<?xml version="1.0" encoding="UTF-8"?>
<!DOCTYPE svg PUBLIC "-//W3C//DTD SVG 1.1//EN" "http://www.w3.org/Graphics/SVG/1.1/DTD/svg11.dtd">
<!-- Creator: CorelDRAW 2019 (64-Bit) -->
<svg xmlns="http://www.w3.org/2000/svg" xml:space="preserve" width="48.0636mm" height="35.3601mm" version="1.1" style="shape-rendering:geometricPrecision; text-rendering:geometricPrecision; image-rendering:optimizeQuality; fill-rule:evenodd; clip-rule:evenodd"
viewBox="0 0 860.38 632.98"
 xmlns:xlink="http://www.w3.org/1999/xlink"
 xmlns:xodm="http://www.corel.com/coreldraw/odm/2003">
 <defs>
  <style type="text/css">
   <![CDATA[
    .fil0 {fill:#00A0E3}
   ]]>
  </style>
 </defs>
 <g id="Vrstva_x0020_1">
  <metadata id="CorelCorpID_0Corel-Layer"/>
  <path id="Obrys" class="fil0" d="M860.38 409.39c0,-6.94 -7.84,-13.96 -14.31,-19.76l-2.34 -2.11c-7.3,-6.66 -11.35,-12.49 -11.21,-18.13 0.14,-5.7 4.51,-10.94 14.03,-16.31 7.78,-4.4 10.7,-9.33 10.9,-14.88 0.21,-5.72 -2.41,-12.29 -5.64,-19.62 -2.84,-6.44 -8.71,-9.46 -12.73,-11.53 -2.9,-1.49 -5,-2.57 -5.08,-4.51 -0.2,-4.59 -0.26,-8.45 -0.31,-11.92 -0.14,-9.6 -0.24,-16.28 -3.3,-29.26 -1.67,-7.08 -2.47,-12.06 -3.13,-16.21 -1.46,-9.09 -2.28,-14.16 -10.74,-30.03 -5.75,-10.78 -3.58,-23.66 -1.63,-35.3 0.49,-2.88 0.96,-5.69 1.29,-8.42 0.8,-6.51 3.84,-11.51 6.69,-16.22 6.07,-10.01 11.27,-18.57 -12.02,-38.34 -8.02,-6.8 -16.85,-5.09 -26.68,-3.18 -5.56,1.08 -11.44,2.22 -17.75,2 -2.4,-0.08 -6.79,0.64 -11.74,1.45 -6.7,1.1 -14.42,2.36 -20.17,2.12 -5.61,-0.24 -9.46,-1.91 -9.27,-6.39 0.17,-3.99 -0.35,-10.88 -1.41,-17.18 -0.84,-5.02 -2.01,-9.62 -3.41,-11.94 -1.36,-2.25 -10.04,-0.79 -19.37,0.78 -9.94,1.68 -20.58,3.47 -25.65,0.77l-5.97 -3.21c-5.91,-3.2 -8.56,-4.64 -11.22,-5.18 -2.16,-0.44 -4.56,-0.34 -8.88,-0.17 -3.49,0.14 -8.2,0.32 -14.8,0.32 -7.04,0 -8.96,-0.79 -10.65,-1.49 -0.73,-0.3 -1.41,-0.58 -2.64,-0.73 -4.14,-0.51 -7.81,-3.77 -10.6,-7.84 -3.53,-5.15 -5.71,-11.73 -5.6,-15.46 0.05,-1.76 -0.04,-3.33 -0.12,-4.74 -0.21,-3.6 -0.36,-6.25 1.69,-9.06 -2.28,-0.19 -4.45,-0.49 -6.21,-0.86 -2.48,-0.54 -4.31,-1.36 -4.85,-2.46 -0.71,-1.44 -2.52,-2.73 -4.2,-3.94 -1.36,-0.98 -2.67,-1.9 -3.52,-2.98 -0.8,-1.01 -2.89,-3.31 -5.13,-5.77 -2.33,-2.56 -4.84,-5.31 -6.3,-7.08 -1.32,-1.6 -2.52,-3.16 -3.49,-4.42 -1.03,-1.34 -1.78,-2.33 -2.07,-2.57 -0.26,-0.22 -2.08,-1.29 -4.08,-2.43l-5.23 -2.98 -0.23 -0.02c-1.36,-0.09 -6.57,-0.44 -8.27,-1.66 -0.94,-0.68 -18.63,-0.55 -28.19,-0.49l-4.65 0.03c-3.95,0 -10.28,1.71 -14.88,2.96 -2.75,0.75 -4.92,1.34 -5.86,1.34 -1.01,0 -7.87,2.93 -14.35,6.08 -5.07,2.47 -9.82,5.05 -11.18,6.4 -1.8,1.8 -4.87,3.44 -7.98,5.1 -3.01,1.61 -6.08,3.24 -7.75,4.92 -2.42,2.41 -3.96,2.75 -5.19,3.02 -0.35,0.08 -0.66,0.15 -0.93,0.31 0.35,0.64 0.24,1.1 -1.24,1.64 -0.44,0.16 -1.41,0.39 -3.63,0.9l-3.97 0.93c-5.88,1.39 -15.55,2.88 -25.47,4 -9.26,1.04 -18.75,1.76 -25.63,1.76 -7.71,0 -10.26,0.21 -12.57,0.4 -1.96,0.16 -3.76,0.31 -8.18,0.31 -3.53,0 -8.93,0.99 -14.5,2.3 -9.32,2.19 -19.02,5.26 -21.52,6.2 -1.69,0.63 -16.18,8.25 -28,14.84 -7.69,4.28 -14.19,8.09 -15.1,9.12 -0.7,0.79 -2.75,2.54 -4.95,4.32 -2.93,2.38 -6.2,4.89 -6.83,5.26 -0.55,0.32 -5.93,5.02 -10.64,9.36 -3.25,2.99 -6.15,5.77 -6.83,6.71 -1.15,1.6 -4.67,6.42 -7.73,10.38 -1.87,2.42 -3.6,4.56 -4.57,5.53 -1.05,1.05 -2.69,3.37 -4.36,5.75 -2.16,3.07 -4.38,6.22 -5.83,7.27 -1.09,0.78 -3.62,4.22 -6.06,7.52 -2.02,2.75 -3.99,5.42 -5.23,6.64 -1.47,1.47 -5.63,6.1 -9.59,10.73 -3.01,3.51 -5.92,7.02 -7.44,9.14l-3.46 4.87c-4.42,6.24 -10.53,14.87 -12.41,16.76 -0.89,0.89 -2.68,3.87 -4.57,7.31 -2.81,5.1 -5.8,11.09 -6.59,13 -0.63,1.53 -2.51,8.66 -4.34,15.63 -1.89,7.21 -3.75,14.26 -4.32,15.28 -0.38,0.67 -1.05,4.94 -1.72,9.14 -0.64,4.06 -1.27,8.07 -1.79,9.31 -0.55,1.33 -3.71,13.96 -6.18,25.01 -1.66,7.43 -3.01,14.09 -3.01,15.98 0,2.55 -1.23,7.2 -2.83,11.71 -1.67,4.7 -3.78,9.33 -5.34,11.3 -0.86,1.08 -1.32,1.97 -1.68,2.66 -1.05,2.02 -1.48,2.86 -5.09,2.86 -2.65,0 -5.71,-1.44 -8.35,-4.7 -2.07,-2.56 -3.92,-6.28 -5.12,-11.37 -2.28,-9.66 -2.23,-23.35 -2.19,-34.74l0.01 -4.19c-0.01,-8.11 -0.6,-9.09 -0.94,-9.66 -0.29,-0.47 -0.5,-0.81 -0.5,-1.78 0,-1.29 -2.63,-7.21 -4.03,-10.36 -0.47,-1.05 -0.81,-1.82 -0.9,-2.08 -0.08,-0.23 -1.99,-2.93 -4.26,-6.13 -3.08,-4.37 -6.81,-9.63 -7.83,-11.57l-1.84 -3.38c-2.39,-4.35 -5.92,-10.77 -7.51,-14.62 -0.78,-1.88 -2.92,-5.44 -5.32,-9.16 -3.68,-5.7 -7.89,-11.68 -8.75,-12.63 -0.94,-1.05 -2.77,-5.28 -4.41,-9.08 -1.29,-2.98 -2.45,-5.68 -2.61,-5.81 -0.56,-0.48 -1.56,-3.13 -2.54,-6.21 -1.31,-4.12 -2.74,-9.19 -2.93,-10.33 -0.17,-0.99 -3.15,-6.04 -5.36,-9.77 -1.15,-1.95 -2.1,-3.56 -2.4,-4.19 -0.24,-0.51 -2.17,-1.58 -4.06,-2.61 -1.71,-0.94 -3.39,-1.87 -4.26,-2.73 -0.54,-0.53 -4.7,-0.39 -9.06,0.06 -4.45,0.46 -8.9,1.29 -9.85,2.14 -0.96,0.86 -2.56,2.72 -4.15,4.58 -2.12,2.47 -4.25,4.96 -5.38,5.6 -0.45,0.25 -2.62,3.65 -5.1,7.75 -3.77,6.22 -8.09,13.89 -8.63,15.2 -0.55,1.33 -3.21,5.92 -5.8,10.07 -2.12,3.39 -4.24,6.55 -5.22,7.53 -0.75,0.76 -1.18,1.92 -1.62,3.12 -0.59,1.61 -1.22,3.3 -2.67,4.75 -0.87,0.87 -1.93,4.36 -2.89,8.54 -1.24,5.44 -2.23,11.92 -2.45,15.63 -0.2,3.41 1.35,7.41 2.86,11.3 1.34,3.46 2.66,6.86 2.84,9.98 0.21,3.49 4.92,14.26 10.29,23.2 3.92,6.53 8.11,11.99 10.89,12.59 5.51,1.18 11.19,7.7 16.38,13.65 2.38,2.74 4.66,5.36 6.66,7.16 2.65,2.39 6.43,14.07 10.16,28.15 6.08,23 12.2,52.69 12.86,58.06 0.59,4.81 3.71,15.06 7.76,24.07 2.98,6.61 6.42,12.5 9.65,14.9 7.92,5.88 9.15,7.91 16.3,19.78l1.04 1.72c3.85,6.38 14.74,13.68 26.81,20.36 12.19,6.74 25.61,12.84 34.3,16.79 7.47,3.39 15.72,9.21 24.43,15.36 11.73,8.28 24.31,17.17 36.72,21.26 10.99,3.63 18.56,6.48 24.58,10.02 6.08,3.58 10.51,7.84 15.14,14.24 3.14,4.35 5.21,4.86 6.61,5.21 3.42,0.85 4.2,1.04 4.2,18.96 0,19.1 9.22,26.92 18.2,34.52 3.56,3.01 7.08,6 10.05,9.64 3.62,4.43 5.3,8.26 5.93,11.66 0.51,2.78 0.31,5.24 -0.11,7.51 1.82,0.06 4.08,0.04 6.48,0.02 6.19,-0.05 13.24,-0.11 16.22,1.11 3.03,1.25 7.54,2.12 11.77,1.83 3.22,-0.22 6.24,-1.1 8.23,-3.01 0.6,-0.58 8.54,-6 15.54,-10.67 5.75,-3.83 11.04,-7.17 11.65,-7.12 0.43,0.04 0.96,0.01 1.54,-0.01 2.89,-0.12 6.89,-0.29 9.9,4.18 1.91,2.85 4.39,5.58 7.32,7.44 2.36,1.5 5.02,2.42 7.9,2.35 10.45,-0.26 13.62,-3.39 18.69,-8.42 1.64,-1.62 3.47,-3.44 5.78,-5.42 4.17,-3.57 7.13,-6.35 9.53,-8.6 7.61,-7.14 9.66,-9.07 27.23,-15.05 2.53,-0.86 18.68,-1.54 33.78,-1.72 13.93,-0.16 27.15,0.17 28.43,1.25 0.59,0.49 1.22,0.79 1.91,1.12 1.44,0.68 3.11,1.48 5.41,4.01 7.25,7.98 12.85,4.09 18.94,-0.16 3.19,-2.22 6.5,-4.53 10.32,-5.6 4.11,-1.16 6.11,1.46 8.32,4.38 0.78,1.02 1.59,2.1 2.54,2.97 0.98,0.91 1.82,1.71 2.47,2.36 1.19,1.15 1.74,1.7 2.18,1.82 0.39,0.11 1.06,0.01 2.3,-0.19 1.15,-0.18 2.74,-0.43 5.04,-0.64 0.79,-0.07 3.35,-0.95 6.08,-1.98 3.14,-1.19 6.42,-2.57 7.54,-3.21 1.56,-0.89 2.86,-1.61 4.02,-2.24 6.35,-3.47 8.1,-4.43 11.98,-13.95 0.9,-2.21 1.11,-5.78 0.86,-9.47 -0.28,-4.28 -1.18,-8.65 -2.31,-11.29 -0.31,-0.72 -0.47,-1.61 -0.49,-2.59 -0.05,-2.16 0.57,-4.92 1.72,-7.34 1.19,-2.51 2.97,-4.72 5.23,-5.68 0.74,-0.32 1.54,-0.5 2.38,-0.52 0.76,-0.02 1.44,-0.22 2.23,-0.46 1.57,-0.48 3.55,-1.08 7.6,-1 3.96,0.08 10.37,-1.9 15.8,-4.93 4.42,-2.47 8.12,-5.6 9.13,-8.8 0.21,-0.64 0.76,-1.54 1.42,-2.64 1.13,-1.86 2.67,-4.39 3.1,-6.52l0.14 -0.7 0.65 -0.27c2.68,-1.11 5.3,-2.3 7.92,-3.49l4.03 -1.81c0.98,-0.43 2.14,-0.82 3.33,-1.22 1.58,-0.53 3.25,-1.08 4.66,-1.84 3.99,-2.12 8.47,-4.89 12.44,-8.07 3.17,-2.54 6.03,-5.34 8.06,-8.27 2.51,-3.64 7.32,-3.64 11.26,-3.63 0.82,0 1.6,0 2.32,-0.04 1.22,-0.06 2.82,0.64 4.38,1.63 2,1.27 4.08,3.06 5.01,4.08l0.06 0.06c1.97,2.16 2.77,3.03 5.89,2.45 1.57,-0.3 3.79,-1.33 6.23,-2.46 3.44,-1.6 7.3,-3.39 10.87,-3.82 0.87,-0.1 1.39,-0.25 1.88,-0.38 0.96,-0.26 1.83,-0.5 4.36,-0.5 5.19,0 6.13,0.77 9.58,3.62l1.14 0.94c2.22,1.8 4.53,4.34 6.87,6.93 2.43,2.68 4.91,5.42 7.32,7.33 1.87,1.49 3.55,3.15 5.23,4.82 2.36,2.35 4.77,4.73 7.79,6.63 1.11,0.7 2.08,1.54 3.05,2.38 1.99,1.73 4,3.47 7.18,3.47 1.8,0 2.97,-0.61 3.85,-1.61 0.99,-1.12 1.73,-2.81 2.53,-4.71 0.54,-1.29 0.62,-2.38 0.7,-3.47 0.09,-1.27 0.18,-2.53 0.83,-4.15 0.67,-1.66 0.16,-9.71 -0.24,-16.12 -0.17,-2.71 -0.32,-5.15 -0.36,-6.74l-0.07 -0.07c-0.98,-1 -1.16,-2.37 -0.82,-3.95 0.28,-1.28 0.92,-2.74 1.75,-4.2 2.11,-3.76 5.5,-7.77 6.71,-8.96 1.38,-1.36 2.11,-2.39 2.69,-3.21 1.62,-2.29 2.3,-3.26 9.73,-5.17 1.56,-0.4 3.45,-0.66 5.43,-0.92 5.35,-0.72 11.45,-1.54 11.79,-5.67 0.08,-1 0.25,-2.03 0.41,-3.07 0.37,-2.35 0.76,-4.79 0.1,-7.65 -0.61,-2.63 -1.24,-11.12 -1.08,-18.32 0.11,-5.14 0.66,-9.75 1.94,-11.45l1.02 -1.31c1,-1.25 1.57,-1.96 1.57,-3.26z"/>
 </g>
</svg>
