<?xml version="1.0" encoding="UTF-8"?>
<!DOCTYPE svg PUBLIC "-//W3C//DTD SVG 1.1//EN" "http://www.w3.org/Graphics/SVG/1.1/DTD/svg11.dtd">
<!-- Creator: CorelDRAW 2019 (64-Bit) -->
<svg xmlns="http://www.w3.org/2000/svg" xml:space="preserve" width="51.6709mm" height="35.0828mm" version="1.1" style="shape-rendering:geometricPrecision; text-rendering:geometricPrecision; image-rendering:optimizeQuality; fill-rule:evenodd; clip-rule:evenodd"
viewBox="0 0 3070.71 2084.91"
 xmlns:xlink="http://www.w3.org/1999/xlink"
 xmlns:xodm="http://www.corel.com/coreldraw/odm/2003">
 <defs>
  <style type="text/css">
   <![CDATA[
    .fil0 {fill:#96A7B1}
   ]]>
  </style>
 </defs>
 <g id="Vrstva_x0020_1">
  <metadata id="CorelCorpID_0Corel-Layer"/>
  <path id="Obrys" class="fil0" d="M1897.93 1936.72c57.27,-10.88 81.36,6.37 103.73,22.39 11.05,7.92 21.68,15.53 35.72,18.67 27.08,6.04 41.79,20.66 53.72,32.51 8.59,8.53 15.58,15.47 24.31,15.47 6.5,0 15.45,-7.29 24.54,-17.16 15.45,-16.76 30.61,-40.62 36.68,-51.23 7.24,-12.66 25.93,-19.27 47.67,-22.19 31.1,-4.17 69.13,-1.01 86.94,2.61 43.73,8.9 50.71,25.52 59.4,46.29 2.95,7.07 6.14,14.67 11.31,22.54 19.94,30.38 52.14,35.56 79.41,39.94 24.78,3.98 45.88,7.36 53.28,27.24 0.16,0.43 0.37,0.84 0.64,1.19 3.14,4.36 12.77,4.71 25.05,2.82 13.58,-2.08 29.87,-7.03 44.77,-12.58 18.85,-7.02 35.36,-14.93 41.34,-19.21 20.15,-14.45 19.62,-39.98 19.09,-65.54l-0.19 -12.62c0,-28.92 15.09,-29.17 29.28,-29.4 7.56,-0.11 14.77,-0.24 16.12,-8.5 6.73,-41.12 27.86,-49.85 52.22,-45.86 18.09,2.97 37.61,13.29 53.9,21.92 6.94,3.67 13.29,7.04 18.57,9.3 15.83,6.79 25.09,16.65 33.26,25.34 11.28,11.99 20.25,21.52 44.2,14.06 9.46,-2.95 19.94,-11.81 30.32,-20.6 16.6,-14.06 33.04,-27.96 48.9,-21.4 11.38,4.71 24.23,4.36 37.35,4.01l10.83 -0.21c28.05,0 34.24,-14.06 39.19,-25.31 1.65,-3.73 3.19,-7.23 5.31,-10.2 13.83,-19.47 0.04,-58.05 -7.17,-78.18l-0.51 -1.47c-1.78,-4.95 -9.14,-14.63 -17.58,-24.48 -11.32,-13.22 -24.38,-26.49 -28.85,-29.51 -7.65,-5.21 -15.52,-13.31 -22.17,-22.77 -7.44,-10.58 -13.47,-22.99 -16.11,-35.05 -2.75,-12.56 -1.84,-24.86 4.8,-34.66 2.32,-3.42 5.31,-6.5 9.04,-9.12 2.01,-1.41 3.74,-3.07 5.2,-4.89 7.84,-9.79 9.15,-25.3 7.83,-39.34 -1.33,-14.19 -5.24,-26.55 -7.84,-30.25l-0.05 -0.12c-8.31,-6.67 -14.95,-24.62 -19.5,-36.96 -1.96,-5.31 -3.51,-9.49 -4.18,-10.36 -19.82,-25.8 -18.01,-76.95 -16.61,-116.69 0.32,-9.03 0.62,-17.47 0.62,-25.33 0,-21.19 -9.36,-42.45 -18.23,-62.61 -15.28,-34.75 -29.24,-66.48 3.23,-93.05 16.49,-13.48 14.82,-42.5 13.4,-67.37 -0.39,-6.89 -0.77,-13.48 -0.77,-19.22 0,-16.16 -1.25,-22.31 -2.45,-28.26 -0.81,-4.02 -1.62,-7.99 -2.07,-14.18 -0.4,-5.47 -6.84,-13.01 -15.33,-20.63 -14.19,-12.73 -33.78,-25.04 -42.53,-29.77 -14.6,-7.9 -22.86,-26.12 -27.25,-47.62 -6.04,-29.54 -4.93,-65.53 -3.14,-88.27 -19.05,-3.8 -36.17,-10.22 -50.72,-17.28 -25.34,-12.3 -42.97,-26.65 -49.39,-32.55 -5,-4.58 -13.48,-11.38 -22.95,-18.67 -13.14,-10.1 -28.05,-21.06 -38.39,-28.5 -9.88,-7.11 -15.9,-9.12 -20.94,-10.78 -4.2,-1.41 -7.83,-2.61 -12.31,-5.85 -1.92,-1.38 -7.23,-2.48 -13.91,-3.29 -9.15,-1.1 -20.4,-1.46 -29.57,-1.2 -7.36,0.21 -12.98,0.49 -14.11,0.74 -1.85,4.27 -8.52,10.41 -17.65,18.83 -6.1,5.62 -13.4,12.35 -21.14,20.09 -1.81,1.81 -3.73,2.96 -5.71,3.48 -5.59,1.5 -10.52,-1.75 -14.8,-8.15 -3.41,-5.1 -6.58,-12.51 -9.44,-21.02 -9.32,-27.81 -15.67,-68.79 -15.67,-79.59 0,-7.92 -4.73,-16.93 -10.38,-24.89 -5.89,-8.29 -12.86,-15.5 -16.81,-19.46l-7.3 -7.17c-16.24,-15.83 -50.01,-48.75 -53.03,-56.05 -1.23,-2.97 -5.84,-6.54 -10.2,-9.91 -4.84,-3.74 -9.47,-7.33 -11.18,-11.46 -1.1,-2.67 -9.65,-11.21 -18.86,-19.4 -8.65,-7.7 -17.63,-14.8 -21.28,-16.11 -2.97,-1.06 -7.95,-3.59 -14.01,-6.64 -13.31,-6.73 -32.08,-16.23 -41.81,-16.86 -12.42,-0.8 -11.93,-5.78 -11.35,-11.71 0.17,-1.75 0.37,-3.8 -3.13,-5.25 -6.99,-2.89 -12.12,-14.39 -15.68,-28.42 -4.85,-19.12 -7.28,-43.63 -7.28,-55.25 0,-9.98 1.82,-20.21 4.27,-29.43 2.42,-9.12 5.46,-17.32 7.96,-23.34 2.61,-6.28 8.36,-16.97 13.91,-26.32 5.45,-9.17 10.95,-17.32 13.57,-19.4 0.17,-0.13 0.15,-0.43 0.13,-0.74 -0.22,-2.8 -0.48,-6.08 4.22,-10.78 3.05,-3.07 5.29,-7.86 7.39,-12.35 1.65,-3.52 3.23,-6.91 5.22,-9.67 1.56,-2.16 2.73,-5.73 3.57,-9.92 1.06,-5.31 1.52,-11.48 1.52,-17.17 0,-5.76 -1.23,-8.44 -2.6,-11.43 -1.11,-2.39 -2.29,-4.97 -3.22,-8.93 -1.21,-5.15 -10.59,-14.81 -17.23,-21.66 -3.17,-3.27 -5.8,-5.97 -6.99,-7.64 -1.2,-1.68 -10.41,-9.28 -20.4,-17.54 -13.81,-11.39 -29.07,-24 -30.14,-27.8 -0.21,-0.77 -3.63,-3.14 -7.12,-5.57 -3.87,-2.69 -7.87,-5.48 -10.02,-8.46 -1.89,-2.63 -11.54,-12.08 -20.47,-20.14 -6.7,-6.07 -12.63,-11.17 -13.56,-11.34 -2.2,-0.41 -8,-3.06 -14.67,-6.12 -9.17,-4.18 -20.19,-9.22 -22.51,-9.22 -3.79,0 -9.73,-1.7 -17.23,-3.86 -4.94,-1.44 -10.66,-3.08 -17.03,-4.58 -8.14,-1.91 -21.54,-7.7 -34.04,-14.32 -11.92,-6.31 -23.22,-13.48 -28.67,-18.93 -5.25,-5.27 -10.28,-11.05 -14.04,-15.93 -4.45,-5.76 -7.38,-10.85 -7.43,-13.24 0,-0.19 -2.01,-3.67 -4.27,-7.59 -3.09,-5.36 -6.6,-11.43 -7.5,-15.24l-0.5 -2.53c-0.37,-2.06 -0.51,-2.78 -9.26,-4.86 -7.89,-1.87 -22.99,-0.37 -36.44,0.96 -7.98,0.79 -15.43,1.53 -20.72,1.53 -7.76,0 -8.99,0.73 -10.51,1.64 -1.59,0.95 -3.4,2.03 -7.48,2.98 -4.9,1.15 -10.17,4.45 -14.13,6.92 -2.91,1.84 -5.27,3.31 -7.24,3.77 -0.79,0.18 -4.92,3.94 -9.11,7.76 -3.33,3.04 -6.74,6.14 -9.49,8.13 -3.8,2.74 -14.04,8.9 -25.18,13.58 -7.36,3.08 -15.23,5.59 -22.15,6.21 -11.37,1.02 -15.1,-1.48 -21.55,-5.8 -3.57,-2.38 -8.15,-5.46 -16.15,-8.76 -12.64,-5.22 -16.74,-9.1 -23.62,-15.62 -5,-4.74 -11.63,-11.02 -24.78,-20.51 -14.74,-10.63 -31.95,-16.94 -49.52,-20.6 -17.72,-3.68 -35.92,-4.67 -52.39,-4.67l-1.01 0c-31.54,0 -41.94,0.01 -60.52,13.4 -8.74,6.29 -21.54,11.62 -35.13,17.27 -18.42,7.65 -38.36,15.94 -49.83,27.4 -11.45,11.42 -12.91,17.53 -14.2,23 -1.09,4.59 -2.12,8.87 -6.85,14.66 -3.62,4.45 -5.59,17.09 -6.38,31.08 -1.13,19.75 0.18,41.5 2.38,47.78 1.64,4.69 8.34,13.41 15.61,21.58 8.42,9.47 17.04,17.94 18.9,18.24 6.02,0.99 6.88,5.82 7.86,11.36 0.45,2.57 0.97,5.41 2.16,7.07 2.81,3.91 4.28,9.01 5.96,14.83 1.13,3.87 2.35,8.1 4.04,12.18 2.31,5.61 0.21,25.73 -3.34,46.56 -4.15,24.36 -10.39,50.4 -13.79,55.12 -3,4.16 -5.53,22.63 -7.7,38.44 -1.21,8.88 -2.32,16.97 -3.44,21.72 -1.48,6.29 -2.3,17.54 -3.2,30.05 -0.91,12.6 -1.93,26.5 -3.87,38.51 -2.65,16.36 -3.48,17.68 -5.68,21.29 -0.93,1.52 -2.17,3.54 -4.09,8.2 -5.5,13.28 -31.47,40.64 -42.1,51.83l-3.83 4.08c-3.05,3.35 -17.61,4.59 -33.8,4.59 -20.79,0 -45.28,-1.69 -49.57,-3.46 -5.33,-2.2 -31.19,-8.27 -54.02,-13.63l-11.81 -2.78c-12.62,-2.98 -37.54,-5.36 -61.44,-6.34 -22.32,-0.91 -43.62,-0.6 -52.91,1.59 -11.12,2.62 -13.82,5.82 -16.43,8.93 -2.14,2.52 -4.23,5.01 -8.66,7.31 -6.06,3.16 -16.16,15.59 -23.66,24.82 -3.5,4.31 -6.48,7.98 -8.49,9.99 -2.38,2.39 -5.97,10.63 -9.1,19.59 -3.45,9.87 -6.21,20.31 -6.21,24.78 0,7.28 -9.05,19.58 -16.86,30.19 -4.46,6.05 -8.49,11.52 -9.62,14.26 -2.83,6.83 -21.73,17.6 -36.14,25.8 -7.35,4.18 -13.45,7.66 -14.69,8.9 -4.8,4.8 -31.26,3.12 -49.08,1.99 -5.93,-0.37 -10.82,-0.68 -13.45,-0.68 -4.83,0 -13.18,-2.92 -21.42,-6.58 -11.09,-4.93 -22.49,-11.48 -24.65,-13.91 -1.66,-1.86 -6.38,-5.62 -11.48,-8.68 -3.5,-2.1 -7.05,-3.81 -9.53,-4.14 -6.06,-0.8 -26.42,-13.96 -40.56,-23.1 -6.65,-4.31 -11.85,-7.67 -12.8,-8.06 -2.6,-1.08 -11.61,-8.33 -20.75,-15.7 -8.96,-7.22 -18.07,-14.56 -19.59,-15.17 -2.84,-1.14 -12.71,-8.3 -20.82,-15.79 -3.96,-3.65 -7.61,-7.48 -10.07,-10.93 -11.67,6.24 -22.13,12.49 -32.26,19.01 -11.21,7.23 -21.97,14.76 -33.48,22.96 -9.62,6.86 -14.17,7.44 -17.45,7.85 -3.14,0.39 -4.29,0.55 -19.36,24.75 -5.56,8.94 -19.42,14.25 -35.28,20.33 -16.35,6.27 -35.05,13.44 -47.02,25.55 -14.23,14.41 -25.17,25.19 -36.27,35.38 -11.15,10.23 -22.64,20.04 -37.93,32.47 -13.27,10.78 -18.49,33.21 -23.42,54.39 -3.87,16.68 -7.6,32.66 -15.14,43.06 -11.53,15.93 -30.27,18.76 -67.02,-7.86 -5.73,-4.15 -12.66,-8.92 -20.45,-13.87 -22.08,-14.03 -50.69,-29.19 -77.75,-35.06 -26.05,-5.66 -50.73,-2.63 -66.3,18.88l-2.11 3.11c-11.23,17.7 -12.53,35.38 -13.88,53.93 -2.12,29.11 -4.4,60.29 -42.19,98.03 -3.2,3.2 -7.95,8.21 -13.32,13.86 -15.04,15.87 -35.13,37.06 -46.32,44.51 -13.7,9.12 -13.03,30.83 -12.38,51.88 0.53,17.38 1.06,34.39 -6.11,45.9 -15.5,24.89 -28.5,28.7 -39.2,31.83 -14.48,4.23 -23.97,7.02 -30.58,89.67 -1.83,22.91 -13.56,32.36 -26.58,42.87 -13.09,10.55 -27.68,22.33 -32.84,52.71 -1.17,6.94 -3.27,8.5 -5.47,10.11 -1.99,1.47 -4.17,3.08 -4.17,35.84 0,32.09 7.87,33.46 15.38,34.76 11.18,1.94 21.87,3.79 20.23,42.03 -0.74,17.21 6.8,38.64 18.42,57.71 11.77,19.33 27.62,36.08 43.17,43.42 20.76,9.79 25.5,40.91 29.65,68.2 2.75,18.12 5.23,34.41 11.29,38.94 19.78,14.8 26.43,39.08 32.96,62.93 5.91,21.57 11.73,42.79 27.22,54.39 11.58,8.67 19.58,21.57 28.69,36.22 9.25,14.91 19.72,31.76 36.06,47.24 4.36,4.14 6.01,9.28 8.03,15.58 3.82,11.89 9.2,28.64 40.51,48.18 4.34,2.71 9.23,17.09 11.29,23.63 44.44,-0.37 64.02,-8.2 92.42,-19.56 8.9,-3.56 18.65,-7.47 30.02,-11.52 14.57,-5.18 31.17,-4.35 46.75,0.4 16.98,5.19 32.86,15.1 43.55,26.94 21.09,23.37 49.17,45.57 80.2,61.19 27.04,13.62 56.32,22.23 85.12,22.23l8.65 0.12c29.48,0.48 110.88,1.81 112.84,-10.6l0.65 -4.11 4.1 0.35c20.07,1.72 41.83,-34.12 59.2,-62.71 10.11,-16.65 18.83,-31.02 26.09,-35.71 19.09,-12.36 38.03,-10.3 58.73,-8.06 37.88,4.11 82.12,8.9 142.46,-84.28 3.07,-4.74 10.28,-14.47 17.75,-24.53 9.1,-12.28 18.62,-25.12 21.05,-29.45 6.41,-11.42 29.95,-36.96 53.47,-57 18.07,-15.4 36.45,-27.75 47.86,-28.6 13.81,-1.02 29.07,-9.72 42.13,-21.5 14.49,-13.06 26.14,-29.75 30.12,-43.93l4.8 -17.26c7.23,-26.31 10.67,-38.79 17.75,-45.4 6.81,-6.36 15.28,-6.43 31.37,-6.56 5.87,-0.05 12.86,-0.11 21.41,-0.51 11.95,-0.56 23.75,4.82 38.12,11.37 28.27,12.88 67.14,30.59 134.32,12.52 23.22,-6.25 30.15,2.66 40.7,16.24 5.37,6.94 11.84,15.26 22.63,23.04 4.02,2.9 19.02,18.01 32.04,31.98 9.27,9.95 17.69,19.56 20.81,24.31 8.85,3.91 15.75,11.86 22.85,20.03 6.16,7.1 12.5,14.4 19.96,18.55 6.48,3.6 15.31,3.64 24.6,3.67 8.2,0.03 16.77,0.07 25.13,2.32 25.68,6.94 52.6,56.16 74.58,96.35 9.73,17.79 18.47,33.78 25.41,43.04 1.9,2.52 6.8,12 10.98,20.08l4.42 8.48z"/>
 </g>
</svg>
