<?xml version="1.0" encoding="UTF-8"?>
<!DOCTYPE svg PUBLIC "-//W3C//DTD SVG 1.1//EN" "http://www.w3.org/Graphics/SVG/1.1/DTD/svg11.dtd">
<!-- Creator: CorelDRAW 2019 (64-Bit) -->
<svg xmlns="http://www.w3.org/2000/svg" xml:space="preserve" width="68.8766mm" height="59.8688mm" version="1.1" style="shape-rendering:geometricPrecision; text-rendering:geometricPrecision; image-rendering:optimizeQuality; fill-rule:evenodd; clip-rule:evenodd"
viewBox="0 0 3371.61 2930.66"
 xmlns:xlink="http://www.w3.org/1999/xlink"
 xmlns:xodm="http://www.corel.com/coreldraw/odm/2003">
 <defs>
  <style type="text/css">
   <![CDATA[
    .fil0 {fill:#FECC00}
   ]]>
  </style>
 </defs>
 <g id="Vrstva_x0020_1">
  <metadata id="CorelCorpID_0Corel-Layer"/>
  <path id="Obrys" class="fil0" d="M1514.82 2439.33c3.97,-1.25 10.31,-3.45 15.03,-5.09 3.69,-1.27 6.47,-2.25 7.27,-2.36 8.67,-1.07 24.64,-1.44 39.17,-0.25 10.98,0.9 21.3,2.73 27.42,5.86l16.88 7.74c6.27,2.27 12.82,9.42 18.56,17.92 7.66,11.33 14.14,25.36 16.27,32.78 1.5,5.25 5.27,12.45 9.78,19.14 4.32,6.4 9.26,12.25 13.45,15.37 6.23,4.63 26.29,3.81 37.26,3.36l2.93 -0.12c20.31,-0.73 23.05,-2.51 30.47,-7.34 3.7,-2.4 8.46,-5.5 16.29,-9.4 16.08,-8.02 24.46,-9.17 34.3,-10.51 5.56,-0.76 11.63,-1.59 20.01,-3.92 15.95,-4.42 32.27,-4.27 48.58,-4.12l12.31 0.04c9.46,-0.08 14.28,1.55 18.36,2.92 2.04,0.69 3.87,1.31 6.02,1.48 7.35,0.62 17.9,8.87 29.19,17.71 13.74,10.74 28.7,22.44 36.48,20.1l1.1 -0.33 1.14 0.39c1.8,0.62 3.62,1.37 5.44,2.11l3.97 1.58c3.99,1.5 11.37,3.99 20.29,7 25.95,8.75 64.7,21.83 71.8,28.19 5.56,4.98 14.83,8.87 23.12,12.35 3.16,1.32 6.18,2.59 9.01,3.93 16.56,7.83 51.96,7.44 82.01,7.1 12.8,-0.14 24.67,-0.27 33.79,0.23 11.73,0.66 22.81,1.51 33.77,3.28 11.04,1.78 21.9,4.5 33.06,8.87 21.78,8.53 24.91,18.22 29.04,31.08 1.44,4.48 3.03,9.42 5.74,14.78 6.79,13.48 15.06,28.95 24.37,43.53 9.27,14.5 19.6,28.19 30.58,38.23 29.34,26.81 30.2,43.78 31.02,60.2 0.46,9.07 0.91,17.97 7.1,28.43 8.43,14.23 16.21,24.62 25.68,32.52 9.45,7.88 20.79,13.45 36.41,18.09 19.85,5.9 26.16,12.66 32.83,19.81 4.19,4.49 8.56,9.17 17.21,13.82 7.21,3.88 10.02,6.43 12.19,8.4 2.6,2.37 4.12,3.75 15.64,6.45 2.64,-3.05 5.81,-5.8 9.68,-8.27 4.52,-2.88 10.01,-5.39 16.75,-7.56 27.98,-8.99 70.64,-48.55 99.99,-75.77 8.71,-8.08 16.27,-15.09 22.07,-20.02 11.43,-9.71 33.75,-43.1 55.31,-79.29 24.31,-40.81 47.53,-85 53.11,-102.9l1.03 -2.83c6.88,-16.69 27.03,-28.25 49.58,-34.24 22.17,-5.89 46.91,-6.49 63.45,-1.33 1.43,0.45 2.87,0.97 4.3,1.56 11.79,4.86 40.76,8.13 75.12,10.31 52.88,3.35 118.45,4.05 154.34,4.05 35.46,0 38.08,-1.66 43.65,-5.2 4.07,-2.58 9.5,-6.03 25.5,-10.32 20.98,-5.62 60.14,-39.41 91.6,-76.91 26.77,-31.91 47.79,-66.24 46.88,-87.65 -0.48,-11.34 0.07,-29.15 0.73,-50.26 2.17,-69.28 5.47,-174.86 -23.01,-200.48 -15.47,-13.91 -22.97,-35.62 -25.98,-58.71 -4.81,-36.83 1.77,-77.35 5.3,-94.47 3.95,-19.17 -15.72,-41.22 -28.52,-55.57 -4.12,-4.61 -7.57,-8.47 -9.57,-11.49 -4.94,-7.48 -26.96,-6.37 -45.81,-5.42 -5.94,0.3 -11.6,0.59 -16.2,0.59 -10.38,0 -18.77,-2.03 -28.15,-4.29 -9.77,-2.35 -20.66,-4.98 -36.06,-5.68 -15.29,-0.7 -41.6,-9.28 -68.78,-21.01 -28.23,-12.18 -57.63,-27.85 -76.68,-41.61 -27.65,-19.97 -42.33,-54.1 -53.99,-81.2 -4.26,-9.92 -8.13,-18.9 -11.95,-25.61 -6.7,-11.76 -15.03,-35.85 -22.08,-60.03 -8.61,-29.5 -15.38,-59.47 -15.06,-67.6 0.16,-4.26 -3.47,-11.86 -8.17,-21.7 -8.82,-18.45 -21.2,-44.35 -21.2,-75.49 0,-22.51 4.73,-31.65 9.26,-40.39 4.93,-9.52 9.6,-18.54 6.25,-48.08 -2.69,-23.68 -12.34,-39.48 -20.39,-52.66 -11.35,-18.58 -19.81,-32.44 -4.97,-55.21 15.13,-23.22 8.69,-31.98 2.88,-39.89 -3.3,-4.5 -6.47,-8.8 -6.88,-14.94 -0.52,-7.65 -1.93,-14.27 -4.97,-21.15 -3.1,-7.01 -7.93,-14.38 -15.23,-23.4 -6.53,-8.05 -20.68,-12.62 -37.57,-14.1 -19.07,-1.67 -41.39,0.66 -60.45,6.37 -13.52,4.04 -26.15,10.04 -38.66,15.96 -22,10.42 -43.65,20.69 -69.82,20.69 -34.01,0 -43.77,-11.09 -56.26,-25.29 -2.83,-3.24 -5.83,-6.64 -9.26,-10.04 -11.64,-11.53 -21.57,-21.49 -34.04,-33.99l-24.77 -24.78c-13.04,-12.03 -50.07,-19.22 -86.59,-20.81 -36.29,-1.59 -71.67,2.29 -81.92,12.39l-0.38 0.4c-9.01,9.77 -21.74,20.54 -33.74,26.21 -6.19,2.93 -12.28,4.54 -17.72,4.09 -5.92,-0.49 -11,-3.31 -14.57,-9.31 -2.61,-4.36 -4.34,-10.46 -4.89,-18.64 -1.22,-18.05 -6.91,-33.46 -14.34,-46.15 -10.79,-18.44 -25.26,-31.25 -35.16,-38.32 -9.45,-6.76 -31.61,-4.51 -50.91,-2.55 -12.88,1.31 -24.59,2.5 -31.58,0.85 -12.18,-2.86 -33.71,-42.57 -47.82,-68.61 -3.4,-6.27 -5.63,-11.67 -7.15,-15.28 -1.55,1.71 -4.92,2.53 -9.56,2.68 -8.67,0.28 -23.57,-0.69 -37.22,-1.57 -10.23,-0.67 -19.76,-1.29 -25.35,-1.29 -7.48,0 -14.22,-1.13 -21.84,-2.4 -9.61,-1.61 -20.76,-3.47 -36.9,-3.47 -26.83,0 -40.43,-24.33 -48.35,-38.53 -1.3,-2.31 -2.45,-4.37 -3.3,-5.71 -2.38,-3.74 -3.85,-12.18 -5.76,-23.15 -4.48,-25.79 -11.58,-66.54 -35.6,-82.94 -18.77,-12.82 -39.15,-22.43 -59.61,-24.7 -17.03,-1.88 -34.2,1.33 -50.65,12.05 -22.31,14.56 -29.33,26.24 -35.87,37.11 -4.42,7.36 -8.64,14.37 -16.82,21.74 -5.55,4.99 -11.39,13.22 -17.81,22.27 -16.47,23.21 -36.59,51.56 -68.38,50.55 -29.18,-0.93 -36.66,4.1 -52.07,14.46 -6.23,4.2 -13.73,9.24 -24.29,15.1l-0.21 0.12c-37.8,20.99 -76.94,42.72 -112.24,42.72 -35.38,0 -39.16,-13.39 -44.16,-31.21l-0.78 -2.77c-2.11,-7.34 -14.91,-20.38 -29.13,-34.88 -16.94,-17.27 -35.86,-36.57 -42.76,-52.72 -5.68,-13.31 -28.06,-37.76 -51.84,-63.72 -26.46,-28.9 -54.64,-59.67 -64.53,-80.4 -12.91,-27.04 -18.24,-33.12 -29.05,-45.43 -4.61,-5.25 -10.18,-11.6 -17.56,-20.89 -19.86,-24.99 -21.76,-25.6 -45,-32.99 -5.37,-1.68 -11.9,-3.77 -21.01,-6.92 -42.46,-14.69 -67.07,-42.28 -94.47,-72.99l-7.35 -8.23c-26.39,-29.34 -23.11,-47.61 -19.7,-66.52 0.62,-3.45 1.25,-6.92 1.68,-10.68 2.3,-19.76 28.1,-20.93 44.28,-21.65 4.79,-0.21 8.6,-0.39 9.78,-0.89 1.97,-0.85 2.69,-1.35 3.22,-1.72 1.82,-1.25 2.46,-1.7 12.28,-3.42 9.89,-1.73 34.72,-11.05 55.42,-18.81 7.05,-2.64 13.62,-5.11 19.13,-7.09 11.24,-4.05 23.08,-11.25 34.7,-18.32 9.8,-5.96 19.49,-11.85 28.83,-15.87 13.67,-5.88 28.01,-15.74 41.44,-24.95 6,-4.11 11.83,-8.12 17.48,-11.67 6.53,-4.11 11.05,-12.06 14.12,-21.11 4.65,-13.71 5.93,-29.87 5.93,-39.95 0,-9.03 -1.3,-12.46 -2.64,-16.03 -1.28,-3.39 -2.62,-6.93 -3.22,-14 -0.68,-8 -7.16,-20.59 -13.29,-32.52 -4.43,-8.63 -8.71,-16.94 -10.75,-23.41 -2.82,-8.94 -6.24,-14.77 -9.33,-20.05 -2.11,-3.59 -4.09,-6.97 -5.73,-10.97 -2.95,-7.18 -2.38,-8.91 -1.01,-13.1 0.63,-1.92 1.49,-4.53 2.07,-9.29l0.56 -4.77c1.17,-10.48 1.94,-17.21 10.13,-37.18 4.37,-10.65 5.07,-30.1 2.99,-49.43 -2.06,-19.13 -6.83,-37.9 -13.45,-47.62l-3.1 -4.6c-4.12,-6.08 -5.94,-8.78 -8.37,-10.96 -1.95,-1.76 -4.63,-3.49 -9.41,-6.55 -3.54,-2.27 -8.18,-5.26 -14.28,-9.36 -13.86,-9.34 -27.6,-15.35 -41.31,-19 -13.74,-3.66 -27.55,-4.99 -41.5,-4.99 -8.44,0 -11.49,-2.52 -12.48,-3.05l0.08 0.69c0.1,2.33 -1.14,4.12 -6.75,4.39 -4.66,0.23 -16.31,18.25 -25.55,32.54 -5.34,8.28 -9.94,15.41 -12.74,18 -3.11,2.89 -11.85,15.54 -20.4,28.71 -9.54,14.7 -18.73,29.84 -19.5,32.66 -1.16,4.18 -16.81,16.32 -33.35,25.66 -12.28,6.94 -25.3,12.64 -33.52,12.84 -8.61,0.21 -25.64,-4.75 -43.26,-9.88 -20.39,-5.94 -41.62,-12.13 -49.08,-10.38 -4.13,0.97 -9.93,3.48 -16.76,6.43 -17.75,7.69 -42.17,18.26 -66.5,14.86 -17.34,-2.43 -32.94,-9.9 -47.02,-16.65 -12.75,-6.11 -24.21,-11.6 -33.84,-11.71 -11.22,-0.13 -24.17,6.34 -35.48,11.99 -7.59,3.8 -14.51,7.26 -20.32,8.45 -0,4.18 -0.7,10.22 -1.77,16.18 -1.5,8.33 -3.74,16.86 -5.84,20.17 -0.89,1.42 -2.47,6.59 -4.3,12.65 -2.61,8.6 -5.74,18.92 -9.04,24.85 -1.98,3.55 -3.72,7.59 -5.49,11.74 -4.39,10.25 -9.11,21.24 -19.5,30.33 -5.74,5.02 -14.47,18.59 -21.31,32.47 -5.94,12.06 -10.37,24.14 -9.97,30.56 0.45,7.14 -0.79,17.84 -3.19,27.94 -2.17,9.15 -5.33,17.98 -9.1,23.51 -2.04,3 -3.55,5.48 -4.89,7.69 -3.06,5.03 -5.35,8.79 -11.37,14.75 -12.29,12.18 -22.21,15.65 -32.95,19.42 -6.63,2.32 -13.62,4.76 -21.69,9.67 -25.61,15.58 -50.76,26.58 -76.72,37.93 -13.39,5.85 -27.02,11.81 -40.74,18.4 -10.21,4.9 -19.87,16.96 -30.21,29.86 -10.17,12.7 -20.99,26.19 -34.18,35.3l-6.92 4.8c-18.33,12.74 -18.69,12.99 -42.55,21.18l-0.8 0.17c-3.6,0.38 -6.53,0.6 -9.09,0.79 -13.78,1.03 -15.25,1.15 -18.23,25.44 -1.19,9.7 -1.85,17.95 -2.43,25.19 -2.58,32.26 -3.67,45.79 -40.12,80.22 -8.53,8.06 -9.31,22.63 -10.18,38.98 -0.91,17.1 -1.91,36.04 -11.63,53.11 -4.12,7.24 -4.31,10.51 -4.47,13.38 -0.37,6.56 -0.66,11.52 -25.45,36.31 -4.55,4.55 -22.11,26.71 -36.54,46.31 -10.29,13.98 -18.91,26.45 -19.75,29.75 -3.73,14.5 -5.94,29.01 -4.75,42.56 1.16,13.24 5.61,25.62 15.17,36.24 24.58,27.34 2.5,70.26 -9.81,94.18 -3.64,7.08 -6.35,12.35 -6.35,13.91 0,14.09 7.31,18.92 16.71,25.13 8.94,5.91 19.56,12.92 28.47,28.63 2.79,4.93 7.35,9.91 11.95,14.95 4.23,4.64 8.53,9.34 11.87,14.43 10.6,16.11 11.53,34.51 -27.62,60.28 -9.82,6.46 -18.02,9.26 -24.81,11.58 -15.33,5.23 -22.44,7.67 -22.44,56.29 0,37.09 -7.06,39.79 -15.87,43.16 -4.51,1.72 -9.65,3.69 -14.22,15.82 -1.05,2.81 -1.57,6.14 -1.57,9.78 -0.01,10.94 4.34,24.52 11.5,36.44 7.09,11.81 16.88,21.9 27.75,25.99 3.29,1.23 6.68,1.93 10.09,1.93 0.67,-0.01 1.5,0.3 2.93,0.83 6.53,2.45 31.1,11.69 45.93,12.86 20.55,1.63 34.92,17.39 37.68,20.45l2.51 2.65 -1.81 2.45c-4.12,5.59 -7.23,13.25 -8.97,21.78 -2.23,10.9 -2.22,23.19 0.7,34.48 2.87,11.08 8.58,21.18 17.75,27.94 4.89,3.6 10.78,6.3 17.77,7.72 4.9,1 11.82,2.93 19.44,5.06 13.56,3.78 29.47,8.22 39.12,8.9 7.9,0.56 13.98,2.58 21.03,4.92 11.5,3.83 25.77,8.58 55.96,8.58 12.13,0 23.26,-0.47 33.86,-0.9 52.42,-2.17 92.41,-3.83 127.5,49.69 12.1,18.45 18.83,28.9 25.05,40.02 6.18,11.06 11.69,22.49 21.36,42.93 6.46,13.64 14.94,22.77 25.3,28.46 10.44,5.72 22.96,8.06 37.4,8.06 7.76,0 14.67,-0.31 21.12,-0.6 31.72,-1.42 53.43,-2.4 72.57,31.84 3.34,5.97 7.9,6.32 12.92,3.52 11.1,-6.2 24.51,-25.14 34.85,-39.72 8.17,-11.53 14.62,-20.62 19.09,-20.45 18.57,0.73 21.24,7.89 24.14,15.68 2.72,7.3 5.72,15.39 36.22,15.45 18.1,0.04 39.97,29.22 53.56,47.37 5.22,6.97 9.1,12.14 9.79,12.39 36.42,13.27 39.74,7.33 47.71,-6.94 2.36,-4.24 5.1,-9.12 8.88,-14.45 0.07,-0.11 -0.02,-1.87 -0.11,-3.29l-0.08 -4.29 2.21 -0.97c19.69,-8.61 31.7,-13.85 44.4,-16.31 12.75,-2.48 25.82,-2.09 47.49,0.58 11.67,1.43 22.4,9.15 30.36,19.35 8.51,10.92 13.95,24.82 13.95,36.95 0,12.14 -0.91,24.31 -1.85,36.99 -1.01,13.59 -2.07,27.77 -2.07,43.21 0,11.83 1.78,30.5 6.36,46.46 3.18,11.08 7.67,20.76 13.74,25.51 2.1,1.64 4.27,3.57 6.55,5.58 6.87,6.07 14.89,13.17 23.25,14.53l12.22 2.1c18.07,3.17 37.63,6.61 55.34,5.85 7.54,-0.32 21.5,8.42 34.76,19.38 14.76,12.21 29.12,27.4 32.66,35.64 4.31,10.04 10.54,18.26 17.03,26.8 8.77,11.57 18.02,23.75 24.15,41.97 1.99,5.91 10.17,20.77 19.15,33.43 6.26,8.83 12.78,16.43 17.48,18.7 4.3,2.08 20.06,17.22 36.04,33.49 20.14,20.51 40.68,43.73 40.1,46.17 -0.47,1.97 4.65,25.94 10.27,46.22 3.6,12.97 7.27,24.07 9.5,25.89 3.12,2.55 10.89,3.63 20.22,4.91 17.68,2.45 40.57,5.62 55.07,22.24 1.85,2.12 4.76,4.31 8.09,6.8 9.08,6.81 20.99,15.75 27.32,34.05l0.49 1.48z"/>
 </g>
</svg>
