<?xml version="1.0" encoding="UTF-8"?>
<!DOCTYPE svg PUBLIC "-//W3C//DTD SVG 1.1//EN" "http://www.w3.org/Graphics/SVG/1.1/DTD/svg11.dtd">
<!-- Creator: CorelDRAW 2019 (64-Bit) -->
<svg xmlns="http://www.w3.org/2000/svg" xml:space="preserve" width="48.1235mm" height="74.0969mm" version="1.1" style="shape-rendering:geometricPrecision; text-rendering:geometricPrecision; image-rendering:optimizeQuality; fill-rule:evenodd; clip-rule:evenodd"
viewBox="0 0 2183.4 3361.83"
 xmlns:xlink="http://www.w3.org/1999/xlink"
 xmlns:xodm="http://www.corel.com/coreldraw/odm/2003">
 <defs>
  <style type="text/css">
   <![CDATA[
    .fil0 {fill:#DCCF73}
   ]]>
  </style>
 </defs>
 <g id="Vrstva_x0020_1">
  <metadata id="CorelCorpID_0Corel-Layer"/>
  <path id="Obrys" class="fil0" d="M2183.4 2627.9l-0.53 -1.62c-5.19,-14.94 -15.27,-22.51 -22.96,-28.28 -3.4,-2.55 -6.38,-4.79 -8.54,-7.27 -11.77,-13.49 -31.57,-16.23 -46.87,-18.35 -9.67,-1.33 -17.72,-2.45 -22.09,-6.02 -3.31,-2.7 -7.41,-14.26 -11.07,-27.45 -5.44,-19.62 -10.17,-43.7 -9.57,-46.21 0.05,-0.19 -18.03,-18.77 -35.41,-36.46 -14.37,-14.63 -28.29,-28.12 -31.52,-29.68 -5.52,-2.67 -12.41,-10.53 -18.78,-19.51 -8.67,-12.22 -16.66,-26.83 -18.66,-32.77 -5.34,-15.85 -13.55,-26.68 -21.35,-36.96 -6.29,-8.28 -12.34,-16.25 -16.63,-26.24 -2.88,-6.71 -15.37,-19.74 -28.36,-30.48 -11.18,-9.24 -22.44,-16.65 -27.59,-16.42 -17.21,0.73 -35.68,-2.51 -52.76,-5.51l-11.24 -1.94c-9.68,-1.58 -17.91,-8.86 -24.95,-15.09 -2.04,-1.8 -3.99,-3.53 -5.76,-4.91 -6.92,-5.42 -11.8,-15.63 -15.1,-27.13 -4.44,-15.45 -6.16,-33.5 -6.16,-44.92 0,-14.46 0.99,-27.79 1.94,-40.55 0.86,-11.55 1.69,-22.66 1.69,-33.79 0,-9.78 -4.47,-21.1 -11.47,-30.07 -6.35,-8.13 -14.73,-14.26 -23.62,-15.35 -19.36,-2.39 -30.92,-2.76 -41.91,-0.62 -10.58,2.05 -21,6.5 -37.58,13.74 0.11,2.21 0.11,4.74 -1.2,6.57 -3.33,4.68 -5.74,9 -7.83,12.75 -9.37,16.8 -13.28,23.79 -52.46,9.51 -2.53,-0.93 -6.65,-6.41 -12.18,-13.8 -11.82,-15.78 -30.83,-41.16 -44.21,-41.19 -32.98,-0.07 -36.63,-9.87 -39.92,-18.73 -1.86,-5.01 -3.59,-9.62 -16.26,-10.12 -0.53,0 -5.56,7.1 -11.93,16.08 -9.97,14.07 -22.91,32.34 -34.53,38.84 -8.2,4.58 -15.67,3.99 -21.19,-5.89 -15.68,-28.06 -34.12,-27.23 -61.05,-26.02 -6.27,0.28 -12.99,0.58 -19.86,0.58 -14.47,0 -27.15,-2.41 -37.93,-8.32 -10.86,-5.96 -19.68,-15.41 -26.32,-29.43 -8.94,-18.9 -14.02,-29.44 -19.58,-39.39 -5.54,-9.9 -11.75,-19.55 -22.98,-36.66 -30.42,-46.39 -65.81,-44.92 -112.22,-42.99 -10.14,0.42 -20.81,0.86 -31.65,0.86 -28.99,0 -42.83,-4.61 -53.99,-8.33 -6.06,-2.01 -11.3,-3.76 -17.85,-4.22 -9.58,-0.68 -24.7,-4.9 -37.58,-8.49 -7.01,-1.96 -13.38,-3.73 -17.56,-4.59 -7.51,-1.53 -13.86,-4.44 -19.13,-8.32 -9.89,-7.29 -15.99,-18 -19.01,-29.67 -2.97,-11.48 -2.98,-23.95 -0.72,-35.01 1.58,-7.76 4.3,-14.88 7.88,-20.52 -4.09,-4.23 -14.83,-14.09 -29.04,-15.22 -14.66,-1.17 -38.19,-10.01 -44.42,-12.35 -0.54,-0.21 0.2,-0.33 -0.33,-0.33 -4.03,-0.02 -7.97,-0.81 -11.75,-2.23 -11.61,-4.37 -21.86,-14.8 -29.15,-26.95 -7.23,-12.04 -11.63,-25.92 -11.61,-37.26 0.01,-4.19 0.62,-8.09 1.88,-11.46 5.31,-14.12 11.6,-16.52 17.1,-18.62 5.73,-2.19 10.33,-3.95 10.33,-33.65 0,-49.92 8.06,-52.68 25.43,-58.61 5.94,-2.03 13.12,-4.48 21.45,-9.96 31.56,-20.77 31.45,-34.65 23.66,-46.49 -2.8,-4.26 -6.61,-8.42 -10.35,-12.52 -4.51,-4.93 -8.97,-9.8 -11.96,-15.08 -7.45,-13.13 -16.56,-19.15 -24.23,-24.22 -10.43,-6.88 -18.55,-12.25 -18.55,-28.95 0,-3.06 2.84,-8.58 6.66,-16.01 10.64,-20.68 29.72,-57.78 10.07,-79.63 -9.95,-11.07 -14.59,-23.89 -15.78,-37.56 -1.17,-13.37 0.98,-27.57 4.61,-41.71 1.03,-4.02 9.44,-16.38 19.4,-29.9 13.56,-18.42 30.17,-39.35 34.54,-43.72 21.16,-21.16 21.37,-24.63 21.62,-29.22 0.19,-3.4 0.42,-7.28 5.02,-15.38 8.21,-14.42 9.1,-31.14 9.9,-46.22 0.88,-16.6 1.67,-31.39 11.56,-40.73 31.87,-30.1 32.82,-41.87 35.06,-69.94 0.54,-6.81 1.16,-14.55 2.28,-23.63 3.44,-28.05 5.34,-28.2 23.14,-29.53 2.33,-0.17 5,-0.38 7.81,-0.67 20.88,-7.16 21.29,-7.45 37.42,-18.65l6.44 -4.45c11.41,-7.87 21.12,-19.99 30.25,-31.4 10.07,-12.56 19.48,-24.32 30.37,-29.54 13.13,-6.3 25.65,-11.78 37.97,-17.16 23.83,-10.42 46.93,-20.52 70.28,-34.73 8.06,-4.9 14.9,-7.3 21.41,-9.57 9.2,-3.22 17.7,-6.2 27.99,-16.4 5.01,-4.97 6.94,-8.14 9.52,-12.39 1.27,-2.11 2.7,-4.46 4.72,-7.43 2.99,-4.4 5.59,-11.76 7.43,-19.51 2.08,-8.79 3.17,-17.94 2.79,-23.91 -0.45,-7.21 3.97,-19.65 9.93,-31.75 6.67,-13.55 15.42,-26.99 21.38,-32.2 8.47,-7.4 12.52,-16.86 16.3,-25.66 1.71,-3.99 3.38,-7.87 5.4,-11.52 2.7,-4.86 5.49,-14.05 7.82,-21.71 1.85,-6.1 3.43,-11.31 4.73,-13.37 1.47,-2.33 3.23,-9.28 4.49,-16.28 0.94,-5.27 1.61,-10.39 1.66,-13.38 -7.42,0.1 -13.12,0.62 -25.97,1.78l-17.95 1.61c-16.92,1.46 -44.85,-1.92 -67.87,-9.56 -18.48,-6.11 -34,-15.09 -38.85,-26.77 -6.29,-15.15 -8.16,-39.06 -9.6,-57.56 -0.9,-11.65 -1.64,-21.07 -3.01,-23.84 -1.84,-3.72 -2.5,-4.8 -2.93,-5.51 -0.63,-1.03 -0.9,-1.48 -2.6,-5.56 -1.84,-4.43 -15.4,-9.16 -21.97,-11.44l-3.39 -1.23c-1.65,-0.68 -11.95,-1.99 -23.39,-3.13 -11.23,-1.12 -23.46,-2.05 -29.72,-2.05 -7.49,0 -27.34,-3.68 -45.73,-8.81 -14.11,-3.94 -27.54,-8.79 -34.22,-13.6l-10.38 -7.4c-14.42,-10.26 -32.2,-22.91 -38.9,-29.12 -2.58,-2.39 -6.17,-5.19 -9.7,-7.94 -7.36,-5.75 -14.48,-11.3 -14.95,-15.98 -0.16,-1.65 -5.46,-8.93 -10.9,-16.41 -5.28,-7.26 -10.69,-14.7 -12.43,-18.91 -2.25,-5.44 -27.19,-26.09 -43.62,-39.7 -4.7,-3.9 -8.72,-7.22 -11.67,-9.79 -8.87,-7.69 -18.25,-12.11 -26.97,-16.22l-6.79 -3.25c-5.79,-2.91 -21.43,-8.68 -35.95,-13.24 -11.32,-3.56 -21.81,-6.34 -25.99,-6.34 -4.85,0 -13.18,-2.63 -22.83,-5.68 -12.75,-4.02 -27.93,-8.82 -38.82,-8.82 -14.66,0 -34.33,-7.58 -45.52,-11.89 -3.98,-1.53 -6.78,-2.61 -7.07,-2.61 -1.96,0 -12.75,-5.67 -24.66,-12.37 -15.93,-8.96 -34.46,-19.96 -35.77,-21.27 -0.49,-0.49 -11.12,-5.58 -23.26,-11.37 -15.73,-7.5 -33.92,-16.19 -37.96,-19.11 -3.82,-2.76 -11.42,-4.34 -17.47,-5.59 -3.56,-0.74 -6.64,-1.38 -8.58,-2.17 -9.53,-3.87 -24.13,-5.49 -38.64,-7.09 -25.81,-2.86 -51.4,-5.7 -53.21,-21.97 -0.56,-5.07 -4.54,-10.83 -9.91,-15.33 -5.24,-4.4 -11.72,-7.49 -17.54,-7.49 -8.69,0 -18.45,0.93 -25.36,1.59 -4.02,0.38 -7.15,0.68 -8.63,0.68 -1.01,0 -9.05,2.97 -18.82,6.57 -15.92,5.87 -36.26,13.38 -42.83,13.38 -3.06,0 -8.6,2.96 -14.56,6.89 -10.08,6.64 -20.91,15.92 -24.3,19.3 -2.82,2.82 -5.76,10.95 -8.13,17.54 -1.84,5.12 -3.39,9.41 -5.01,11.03 -0.69,0.69 -2.19,7.57 -3.74,14.79 -1.45,6.74 -2.97,13.75 -4.58,17.64 -1.91,4.61 -1.54,13.67 -1.09,24.44 0.21,5.28 0.45,10.96 0.45,16.42 0,12.37 2.57,19.87 4.75,26.27 0.92,2.68 1.78,5.19 2.41,7.87 1.01,4.29 10.63,9.91 17.86,14.15 4.76,2.78 8.66,5.05 9.87,7.14l0.88 1.62c2.88,5.42 10.74,20.25 21.57,20.25 10.12,0 13.75,16.85 17.7,35.26 3.31,15.39 6.89,32.03 13.62,38.17 7.7,7.04 8.6,10.6 6.86,12.51 -0.34,0.36 -0.7,0.63 -1.08,0.83 2.55,4.53 5.83,10.92 8.8,17.14 4.43,9.27 8.3,18.44 8.3,21 0,1.37 4.65,7.12 8.8,12.24 3.29,4.06 6.32,7.8 7.25,10.03 0.88,2.12 22.3,23.51 38.66,39.84 9.57,9.56 17.47,17.44 18.87,19.14 1.61,1.97 6.11,5.11 10.05,7.87 4.68,3.26 8.77,6.13 8.84,8.72 0,0.38 1.2,0.32 2.78,1.44 2.57,1.83 5.8,3.72 7.8,4.54 2.94,1.2 10.12,8.43 16.74,15.12 4.86,4.9 9.42,9.51 11.06,10.58 3.01,1.99 5.36,6.71 7.44,10.89 1.28,2.6 0.82,4.86 1.62,4.88 2.51,0.04 5.16,3.33 7.6,7.86 2.9,5.39 6.22,13.09 8.17,17.8 1.95,4.7 1.47,12.72 -0.61,19.82 -1.99,6.77 -5.55,13.01 -10.05,15.31 -2.71,1.39 -5.63,4.03 -8.16,6.84 -3.46,3.85 -6.04,7.74 -6.42,9.16 -0.78,2.82 -10.14,9.85 -19.87,17.17 -7.77,5.84 -15.82,11.9 -19.09,15.17 -4.53,4.52 -9.68,7.01 -15.21,9.69 -4.02,1.94 -8.28,4.01 -12.41,6.98 -8.12,5.84 -25.81,12.58 -37.67,17.1l-8.35 3.23c-2.47,1.02 -6.38,2.82 -10.77,4.83 -11.24,5.17 -25.58,11.75 -30.42,11.75 -2.89,0 -9.43,2.83 -15.05,5.27 -3.88,1.68 -7.38,3.19 -9.56,3.71 -1.23,0.29 -2.31,1.24 -3.58,2.35 -2.62,2.29 -5.83,5.09 -12.74,6.72 -7.16,1.69 -51.75,31.36 -74.6,46.57l-11.29 7.47c6.51,17.89 12.32,26.51 16.96,33.41 9.01,13.37 13.94,20.7 12.03,69.36 -0.31,7.96 0.39,15.44 1.06,22.78 1.58,17.16 3.11,33.66 -7.49,54.76 -4.05,8.08 -16.06,37.54 -25.69,63.43 -6.96,18.74 -12.66,35.49 -13.06,40.49 -0.61,7.63 -2.57,16.5 -4.67,26.06 -3.01,13.67 -6.35,28.82 -6.35,43.19 0,23.17 -3.81,28.13 -7.69,33.21 -3.36,4.39 -6.82,8.89 -6.82,33.27 0,11.32 0.12,19.59 0.21,26.73 0.33,23.89 0.5,36.07 -3.82,47.08 -4.5,11.45 -13.51,20.78 -31.85,39.79 -4.57,4.73 -9.75,10.09 -15.62,16.29 -8.82,9.29 -19.5,15.72 -30.17,22.14 -12.66,7.61 -25.32,15.23 -34.08,27.48 -3.38,4.72 -6.7,6.7 -10.11,8.72 -6.17,3.66 -12.73,7.55 -20.19,35.21 -2.64,9.78 -7.06,31.91 -8.3,51.13 -0.78,12.22 -0.32,23.11 2.69,28.36 1.91,3.37 3.19,8.07 4.74,13.75 3.49,12.87 8.48,31.22 24.6,46.51 31.53,29.9 30.57,64.67 29.52,102.63 -0.31,11.23 -0.63,22.75 -0.08,34.49 0.71,15.35 -9.31,31.9 -20.9,51.01 -17.13,28.26 -37.82,62.39 -29.93,104.45 0.81,4.34 6.01,8.42 12.37,13.41 10.52,8.24 23.87,18.72 29.28,38.77 4.55,16.81 15.97,28.79 28,41.4 17.43,18.27 36.1,37.83 39.04,75.27 0.35,4.46 0.96,7.61 1.58,10.8 1.09,5.65 2.22,11.49 2.22,24.06l0 40.27 -0.1 0.43c-1.46,6.02 -1.7,12.57 -0.93,18.84 0.79,6.51 2.67,12.67 5.37,17.58 8.31,15.12 24.4,16.66 41.57,18.3 3.48,0.33 7.02,0.67 10.03,1.04 14.47,1.8 23.5,5.32 30.4,11.8 6.78,6.37 11.16,15.35 16.52,28.28 2.24,5.41 3.9,32.81 3.57,56.41 -0.26,18.64 -1.96,35.37 -5.85,38.51 -4.46,3.59 -8.06,5.59 -11.28,7.37 -6.26,3.47 -10.97,6.08 -18.67,20.79 -1.59,3.03 -3.04,4.46 -4.56,5.94 -1.87,1.83 -3.91,3.82 -6.76,11.35 -1.64,4.32 -3.07,6.64 -4.38,8.76 -1.91,3.09 -3.54,5.73 -5.34,16.01 -0.65,3.7 -1.16,5.74 -1.53,7.27 -0.69,2.76 -0.9,3.63 -0.9,12.99l0.04 7.38c0.21,23.9 0.68,77.25 -8.26,88.48 -6.33,7.95 -10.71,14.9 -14.76,21.37 -8.26,13.15 -15.35,24.42 -34.41,38.05 -1.21,0.87 -2.55,2.05 -3.96,3.28 -3.59,3.15 -7.66,6.71 -11.98,7.84 -1.32,0.34 -2.3,0.67 -3.21,0.98 -3.18,1.05 -5.56,1.84 -13.9,1.84l-0.1 -0.01c-0.49,-0.01 -1.07,0.1 -1.7,0.34 -7.08,2.61 -16.49,16.53 -24.31,32.45 -7.97,16.23 -14.09,34.31 -14.43,44.81 -0.06,2.07 0.1,3.77 0.54,4.95 3.51,9.51 4.42,9.97 8.83,12.22 1.79,0.91 4.06,2.07 7.13,3.95 3.26,2 9.84,2.42 16.98,2.86 9.2,0.58 19.27,1.22 26.63,5.49 4.96,2.89 10.13,4.57 14.94,6.14 14.75,4.8 26.57,8.67 26.57,37.83l0 2.16c-0.01,11.42 -0.01,15.93 -0.96,19.58 -0.66,2.53 -1.65,4.31 -3.27,7.24 -1.52,2.72 -3.64,6.56 -6.72,13.37 -2.98,6.58 -5.54,11.35 -7.64,15.24 -6.2,11.53 -7.97,14.84 -5.01,42.45 0.73,6.79 5.16,23.51 10.2,39.44 4.48,14.16 9.41,27.55 12.55,32.55 24.99,39.68 25,39.84 25,68.27 0.01,6.49 0.02,14.46 0.3,24.03 0.14,4.55 -4.07,10.41 -8.62,16.74 -4.18,5.82 -8.71,12.12 -9.48,16.71l-0.08 0.46 -0.29 0.65c-0.35,0.76 -1.46,3.19 -1.57,3.63l-0.22 0.84 -0.88 1.04c-3.38,5.41 0,21.47 5.98,37.98 6.13,16.93 15.01,33.94 22.36,40.68 0.72,0.66 1.42,1.21 2.08,1.62 20.61,12.85 27.22,12.74 44.24,12.46 4.49,-0.07 9.69,-0.16 15.98,-0.04 8.72,0.16 16.86,-1.47 22.84,-5.67 4.99,-3.48 8.53,-8.89 9.7,-16.67 0.13,-0.84 1.09,-3.21 2.43,-6.56 2.99,-7.46 8.15,-20.32 9.39,-27.15 0.2,-1.09 2.41,-9.36 4.34,-15.93 1.28,-4.38 2.52,-8.19 3.14,-9.18 4.56,-7.21 11.23,-11.63 17.88,-16.02 8.19,-5.42 16.36,-10.82 18.86,-21.45 0.44,-1.89 0.98,-3.76 1.52,-5.67 2.58,-9.13 5.68,-20.09 -2.65,-24.95 -8.9,-5.21 -17.72,-13.32 -25.29,-22.44 -8.07,-9.73 -14.8,-20.71 -18.76,-30.6 -3.26,-8.14 -4.35,-26.61 -3.08,-43.9 1.13,-15.3 4.17,-29.97 9.26,-36.32 8.55,-10.66 23.84,-16.56 40.64,-19.27 22.12,-3.58 47.12,-1.67 62.3,2.02 8.44,2.06 16.35,5.62 23.38,10.39 7.14,4.84 13.4,10.93 18.46,17.97 0.63,0.87 2.01,2.23 3.66,3.84 4.93,4.82 11.93,11.66 13.56,20 3.42,17.5 3.34,31.99 3.26,46.42 -0.05,10.29 -0.11,20.59 1.16,31.99 1.21,10.79 24.37,40.04 38.72,58.15 6.81,8.59 11.76,14.85 12.1,16.82 0.34,1.94 18.54,22.7 35.43,39.16 10.36,10.1 19.97,18.3 23.95,18.78 4.24,0.52 13.62,4.38 22.1,8.79 7.69,4 14.9,8.62 17.29,11.86 2.53,3.43 5.19,5.82 7.61,7.99 7.57,6.79 13.12,11.77 9.69,34.1 -0.89,5.8 -2.79,8.12 -4.85,10.63 -2.78,3.4 -5.99,7.32 -5.99,28.84l-0.05 6.82c-0.14,14.09 -0.27,28.17 4.93,40.94 0.69,1.69 5.59,4.46 11.54,7.17 8.65,3.97 19.04,7.4 23.1,7.87l4.25 0.49c13.8,1.56 49.78,5.64 54.76,7.69 0.97,0.4 2.48,0.66 4.14,0.95 4.55,0.78 10.23,1.78 16.27,7.03 10.38,8.99 15.88,19.86 21.5,30.98l2.68 5.24c6.12,11.81 17.06,34.94 25.52,56.25 5.91,14.88 10.63,28.91 11.69,37.68 0.53,4.39 5.73,22.35 8.72,32.67l0.81 2.81c9.83,-6.26 32.82,-17.57 55.52,-27.59 24.69,-10.91 49.39,-20.5 56.83,-20.67 4.15,-0.09 8.22,-0.77 12.62,-1.48 6.01,-0.99 12.62,-2.08 21.15,-2.08l10.35 0.06c21.38,0.16 25.36,0.19 51.36,-10.04 4.46,-1.75 11.01,-6.99 17.49,-13.13 8.19,-7.76 16.1,-16.82 19.65,-22.26l7.69 -10.88c6.32,-8.86 14.37,-20 14.52,-20.14l1.36 -1.27 1.81 0.48c1.55,0.4 0.98,-2.94 3.92,-5.92 4.37,-4.44 9.52,-9.66 12.08,-11.47 2.66,-1.89 4.4,-3.96 6.15,-6.07 2.89,-3.47 5.89,-7.07 12.64,-10.7 2.37,-1.27 6.86,-3.72 11.33,-6.43 4.18,-2.53 8.16,-5.17 9.63,-6.85 1.7,-1.94 3.58,-3.82 5.47,-5.73 6.98,-7.04 14.56,-14.68 14.33,-27.65 -0.13,-7.3 0.06,-12.18 0.19,-15.72 0.15,-4.07 0.24,-6.22 -0.32,-8.02 -0.67,-2.13 -2.39,-4.6 -6.02,-9.78 -2.03,-2.9 -4.64,-6.62 -7.79,-11.32 -14.56,-21.72 -4.46,-48.82 4.15,-71.91 1.64,-4.4 3.23,-8.65 4.66,-13.03 3.73,-11.35 7.47,-17.77 14.02,-21.18 6.32,-3.29 14.77,-3.33 28.12,-2.06 12.69,1.22 21.01,13.4 30.29,26.99 11.76,17.2 25.23,36.92 50.22,35.63 6.37,-0.33 12.96,2.11 18.97,5.83 7.3,4.52 13.86,11.04 18.07,16.71 3.47,4.68 14.44,6.49 26.85,6.61 17.77,0.17 37.88,-3.27 44.63,-6.84 2.3,-1.22 3.86,-0.93 4.92,0.39 22.21,-14.89 32.46,-16.27 43.89,-17.8 6.92,-0.93 14.33,-1.93 25.53,-6.46 5.19,-2.09 11.08,-7.23 17.85,-13.14 14.97,-13.07 34.06,-29.72 62.9,-29.72 18.45,0 29.27,5.09 40.4,10.31 10.09,4.75 20.48,9.63 37.6,10.47 4.41,0.21 8.6,0.54 12.79,0.86 26.32,2.03 53.35,4.12 61.52,-24.38l1.23 -4.3c10,-34.7 13.39,-46.46 -1.63,-82.15 -0.94,-2.21 -1.56,-6.61 -1.94,-11.51 -0.59,-7.47 -0.74,-16.38 -0.74,-20.12l0 -1.99 1.76 -0.98c4.91,-2.74 8.28,-5.2 11.22,-7.35 5.56,-4.07 9.78,-7.17 19.61,-9.34 7.9,-1.75 14.21,-5.11 19.84,-8.1 14.09,-7.51 24.48,-13.04 44.69,6.79 2.55,2.5 4.31,4.73 6.1,7.01 2.52,3.2 5.16,6.55 10.16,10.68 5.71,4.72 10.88,9.27 15.96,13.74 9.97,8.78 19.64,17.3 31.78,25.69 22.04,15.26 40.99,11.17 65.27,5.95l4.11 -0.88c4.09,-0.87 8.15,-2.65 11.38,-5.33 2.74,-2.26 4.88,-5.2 5.93,-8.78 0.43,-1.43 1.66,-3.87 3.18,-6.89 2.45,-4.87 5.74,-11.4 6.91,-16.03 1.19,-4.75 1.69,-13.07 2.24,-22.31 1.07,-17.97 2.35,-39.32 9.67,-48.28 3.87,-4.73 7.48,-11.28 11.24,-18.13 4.54,-8.26 9.31,-16.94 15.35,-23.96 4.83,-5.61 10.26,-13.73 15.83,-22.05 7.47,-11.18 15.19,-22.73 22.46,-29.7l3.28 -3.16c11.57,-11.17 19.79,-19.1 36.63,-26.44 26.82,-11.69 46.02,-5.76 61.75,-0.9 17.73,5.48 30.53,9.43 45.72,-22.44 2.66,-5.58 4.63,-9.89 6.46,-13.91 5.87,-12.87 10.47,-22.96 20.07,-37.64l0.16 -0.54c0.19,-0.99 0.36,-1.93 1.34,-3.2z"/>
 </g>
</svg>
