<?xml version="1.0" encoding="UTF-8"?>
<!DOCTYPE svg PUBLIC "-//W3C//DTD SVG 1.1//EN" "http://www.w3.org/Graphics/SVG/1.1/DTD/svg11.dtd">
<!-- Creator: CorelDRAW 2019 (64-Bit) -->
<svg xmlns="http://www.w3.org/2000/svg" xml:space="preserve" width="59.8398mm" height="39.042mm" version="1.1" style="shape-rendering:geometricPrecision; text-rendering:geometricPrecision; image-rendering:optimizeQuality; fill-rule:evenodd; clip-rule:evenodd"
viewBox="0 0 94830.55 61871.44"
 xmlns:xlink="http://www.w3.org/1999/xlink"
 xmlns:xodm="http://www.corel.com/coreldraw/odm/2003">
 <defs>
  <style type="text/css">
   <![CDATA[
    .fil0 {fill:#56698F}
   ]]>
  </style>
 </defs>
 <g id="Vrstva_x0020_1">
  <metadata id="CorelCorpID_0Corel-Layer"/>
  <path id="Obrys" class="fil0" d="M89865.4 61459.88c231.53,-1.58 296.35,-22.98 380.5,-51.03 36.29,-12.2 76.07,-25.51 127.73,-38.83 96.04,-24.56 216.16,-129.79 322.18,-222.81 56.1,-49.13 109.19,-95.72 155.94,-129.16 628.51,-448.96 864.48,-824.38 1139.59,-1262.4 145.8,-232.16 302.84,-481.92 530.57,-767.81 260.53,-327.25 244.68,-2132.43 237.55,-2940.96l-1.74 -259.11c-0.48,-354.98 8.87,-392.38 38.35,-511.08 12.04,-49.13 28.53,-114.74 50.08,-238.19 70.52,-402.84 138.98,-513.61 218.85,-642.93 39.94,-64.5 83.52,-135.02 132.8,-265.13 118.06,-312.04 209.19,-400.94 292.86,-482.71 39.46,-38.51 76.86,-75.12 114.74,-147.38 301.89,-576.85 493.01,-682.86 746.89,-823.59 103.33,-57.37 219.01,-121.55 360.37,-235.33 73.37,-59.11 108.08,-573.36 116.32,-1163.2 11.09,-799.18 -38.51,-1711.36 -106.97,-1876.65 -174.96,-422.33 -315.68,-713.13 -520.59,-905.84 -200.95,-188.9 -476.53,-293.18 -928.02,-349.12 -126.94,-15.69 -236.44,-26.31 -343.73,-36.45 -664.8,-63.55 -1287.13,-123.29 -1637.83,-760.99 -108.87,-197.93 -183.99,-442.78 -215.37,-699.19 -29.48,-240.09 -20.6,-492.38 34.39,-727.24l0 -1380.94c0,-419.16 -37.08,-610.76 -72.74,-795.86 -22.98,-119.49 -45.96,-236.92 -58.95,-403.32 -96.04,-1223.74 -717.89,-1875.54 -1298.54,-2484.08 -441.83,-462.74 -861.31,-902.51 -1035.79,-1548.29 -168.77,-624.39 -599.67,-962.57 -939.12,-1228.65 -261.01,-204.75 -474.47,-372.1 -519.16,-611.23 -292.23,-1557.8 456.25,-2792.63 1075.72,-3814.79 384.46,-634.37 717.25,-1183.48 695.7,-1648.76 -19.18,-415.99 -8.08,-823.91 2.85,-1221.36 35.18,-1270.17 67.51,-2434.16 -957.82,-3406.24 -611.55,-579.86 -795.86,-1258.28 -925.01,-1734.02 -49.92,-183.83 -91.28,-335.96 -141.83,-424.71 -131.06,-228.99 -154.67,-655.61 -124.72,-1123.26 44.37,-689.36 202.69,-1482.21 297.14,-1832.28 285.73,-1059.56 557.99,-1221.2 813.92,-1373.02 97.62,-58 192.86,-114.58 280.97,-237.87 335.17,-468.45 798.39,-747.21 1261.77,-1025.64 358.31,-215.52 717.41,-431.68 1003.77,-733.26 203.48,-214.57 385.73,-403.32 546.58,-569.87 619,-641.34 922.79,-956.23 1062.57,-1311.69 134.7,-342.78 129,-752.43 117.75,-1555.42 -3.8,-281.29 -8.4,-608.38 -8.4,-936.42 0,-931.04 145.48,-1120.89 287.31,-1305.83 110.93,-144.85 219.49,-286.52 219.49,-1015.98 0,-527.24 119.65,-1070.18 227.41,-1559.7 71.79,-325.98 138.51,-628.51 158.47,-877.95 15.69,-196.82 220.91,-805.21 471.14,-1478.25 338.5,-910.59 762.89,-1950.66 907.42,-2238.76 339.77,-676.53 289.69,-1219.93 237.39,-1785.53 -24.41,-264.33 -49.29,-534.06 -38.03,-825.65 63.71,-1621.98 -93.66,-1855.41 -380.34,-2281.23 -163.39,-242.31 -366.23,-543.72 -594.12,-1152.9 -202.53,171.94 -654.81,558.46 -1023.43,877 -276.06,238.82 -500.62,436.12 -525.66,467.34 -47.7,59.11 -182.56,167.82 -343.89,297.46 -183.35,147.38 -403.47,324.55 -551.17,472.25 -161.17,161.17 -237.24,200.31 -311.88,238.82 -50.08,25.36 -99.52,51.03 -197.62,143.74 -174.16,164.65 -585.88,731.2 -774.15,990.46 -58.32,80.35 -97.3,133.75 -108.87,145.64 -16.01,16.32 -414.89,484.77 -687.46,866.22 -129.95,182.25 -228.52,335.65 -229.15,382.56 -2.54,198.09 -378.59,659.25 -681.76,1031.35 -119.33,146.43 -227.09,278.76 -290.64,366.71 -152.77,211.88 -290.32,303.79 -386.99,368.29 -42,28.05 -72.74,48.81 -78.92,60.38 -25.51,49.92 -124.24,154.83 -247.54,285.89 -203.01,216 -480.33,510.92 -539.6,654.5 -91.91,222.97 -379.55,484.14 -581.6,667.81 -56.1,51.03 -105.39,95.88 -140.72,131.22 -144.85,144.85 -333.27,133.59 -645.78,114.58 -124.09,-7.45 -271.15,-16.48 -451.49,-16.48 -439.92,0 -1267.63,-343.73 -1714.21,-529.14l-249.12 -104.28c-59.74,0 -304.27,-97.46 -539.6,-231.85 -159.74,-91.12 -322.65,-200.95 -431.21,-309.5 -94.45,-94.45 -220.6,-191.6 -372.57,-308.39 -239.61,-184.31 -542.14,-417.1 -893.48,-768.28 -433.27,-432.79 -771.45,-928.82 -1087.45,-1392.35 -92.55,-135.81 -183.51,-269.25 -270.04,-391.43 -411.24,126.15 -796.97,383.19 -1194.89,648.48 -1060.03,706.64 -2206.12,1470.16 -4254.24,228.52l-216.32 -131.69c-913.76,-559.1 -1260.19,-770.82 -2601.35,-497.77 -60.54,12.36 -121.71,340.4 -201.42,767.81 -185.73,995.06 -459.26,2459.68 -1664.14,2459.68 -1282.37,0 -1783.31,457.99 -2454.29,1071.44 -324.4,296.98 -687.94,629.14 -1191.25,965.58 -186.05,124.24 -669.87,339.61 -1133.88,494.91 -364.17,122.03 -722.48,208.87 -930.56,190.96 -211.72,-18.22 -325.82,324.4 -481.92,793.8 -220.12,661.95 -514.72,1546.71 -1333.4,2144l-167.03 120.76c-635.01,455.93 -828.5,595.23 -506.64,1773.48 96.19,352.13 98.73,698.24 9.03,946.41 -50.71,140.09 -131.06,252.13 -240.56,322.34 -112.52,72.26 -251.34,98.25 -415.2,63.71 -237.87,-50.24 -535.8,-234.86 -888.88,-605.85l-5.86 -6.02c-116.16,-107.6 -449.43,-163.7 -828.5,-131.53 -387.47,32.96 -812.5,162.91 -1093.15,430.26l-47.54 48.18c-780.96,840.86 -1579.99,671.3 -2396.29,497.93 -229.63,-48.65 -461.63,-98.1 -690.79,-122.34 -593.64,-63.23 -1457.64,-605.21 -2269.03,-1114.23 -584.93,-367.03 -1142.6,-716.62 -1528.01,-843.4 -286.68,-94.13 -890.31,-377.8 -1476.5,-681.28 -564.48,-292.23 -1117.56,-605.37 -1360.66,-787.77 -261.32,-196.19 -636.27,-528.67 -1020.57,-869.86 -547.69,-485.88 -1116.13,-990.46 -1377.14,-1120.25 -337.87,-168.14 -606.8,-418.05 -885.39,-676.84 -493.96,-458.94 -1021.68,-949.26 -2018.64,-999.18 -241.51,-11.89 -1142.76,-332.32 -1413.91,-428.51l-107.29 -37.56 -38.35 -46.12c-135.65,-157.84 -945.93,-1101.39 -1080.63,-2193.91 -54.36,-441.03 -223.92,-1066.53 -541.03,-1501.07 -214.89,-294.6 -499.35,-499.19 -861.94,-484.93 -1263.2,49.44 -1561.29,-361.16 -1871.9,-789.83 -292.23,-403.32 -598.08,-825.17 -1996.14,-793.48 -145.95,3.17 -446.74,390.32 -754.81,786.98 -245.63,315.84 -495.87,638.02 -714.4,808.85 -286.68,224.56 -554.66,299.36 -786.03,363.86 -214.89,59.74 -393.65,109.82 -499.51,279.87 -166.87,267.66 -498.24,534.06 -871.92,730.88 -367.66,193.66 -781.28,323.13 -1123.42,323.13 -888.09,0 -1061.93,-144.85 -1282.06,-328.68 -140.41,-117.43 -303.64,-253.24 -778.42,-371.62 -565.28,-140.72 -747.05,-1138.48 -877.31,-1853.35 -37.56,-205.86 -70.68,-387.47 -105.54,-508.86 -58.16,-201.1 -237.55,-415.99 -456.56,-558.3 -97.78,-63.39 -203.32,-111.88 -308.39,-136.92 -99.68,-23.77 -198.57,-26.31 -288.11,-0.63 -103.96,30.11 -200.47,99.84 -279.07,220.6 -59.43,91.28 -240.09,247.54 -477.01,452.6 -541.19,468.29 -1391.88,1204.56 -1600.27,1827.52l-18.7 55.94 -56.1 18.86c-23.93,8.08 -15.53,54.67 -74.48,146.91 -177.17,277.17 -489.05,764.16 -787.3,972.71 -29.48,20.6 -69.73,58.32 -115.37,101.11 -177.65,167.03 -431.68,405.38 -855.44,405.38 -257.84,0 -590.47,59.9 -963.84,126.78 -494.44,88.75 -1058.77,190.01 -1627.53,190.01 -2176.8,0 -2215.63,-9.19 -3813.99,-388.42l-715.03 -168.62c-716.46,-166.71 -1830.69,-272.26 -2825.59,-145.32 -724.54,92.55 -1382.69,308.07 -1764.13,711.87 -244.68,258.95 -461.48,570.03 -671.93,872.4 -479.54,688.41 -930.24,1334.83 -1661.92,1334.83 -107.76,0 -239.45,7.13 -418.21,39.62 -183.67,33.44 -420.11,93.98 -735.79,200.47 -37.56,12.52 -112.83,115.05 -194.76,226.62 -120.44,164.02 -253.56,345.47 -412.82,406.01 -290.8,110.77 -578.11,-284.3 -751.01,-522.33l-67.67 -93.02c-309.34,45.8 -900.61,287.31 -1366.05,579.06 -347.53,217.9 -618.05,454.98 -618.05,635.32 0,125.04 11.73,289.85 24.88,475.9 52.93,747.05 128.52,1815.64 -402.52,2114.04 -122.34,68.62 -276.85,248.8 -467.97,471.94 -314.89,367.34 -725.18,846.09 -1307.41,1198.06 -256.73,155.3 -433.74,393.17 -542.14,665.59 -116,291.75 -154.99,624.23 -130.9,940.54 23.93,314.1 110.3,609.97 244.05,831.51 96.51,159.58 216.63,278.76 353.24,332.95 640.71,255.14 1288.55,279.55 1946.7,304.11 683.34,25.51 1378.72,51.66 2105.33,328.36 1105.99,421.07 1265.26,884.6 1551.62,1717.22 61.8,179.39 129.95,377.33 210.14,583.5 48.33,123.61 76.54,279.23 108.55,457.04 76.07,422.33 177.33,983.49 642.45,1461.45 596.65,613.29 953.38,728.98 1261.93,828.82 420.91,136.45 761.47,247.06 1398.69,1303.92 267.03,443.09 361,1084.75 356.09,1757.32 -6.66,909.96 -193.81,1882.04 -374.95,2485.51 -74.17,247.22 -72.11,372.89 -70.68,468.77 3.64,235.97 5.07,332.95 -626.29,1033.41 -593.8,658.94 -528.04,1850.5 -471.78,2866.16 31.22,564.17 59.59,1076.67 -27.42,1439.9 668.29,324.87 1036.58,763.05 1377.3,1168.27 485.72,578.11 913.13,1086.34 2158.89,1037.21 377.01,-14.74 549.43,251.18 753.39,565.91 241.36,372.89 535.64,827.08 1341.48,827.08l390.64 -1.43c1324.37,-8.4 4415.56,-28.05 5022.99,352.92 361,226.46 417.9,339.45 460.05,422.97 43.9,86.84 62.76,124.09 1260.34,497.77 476.69,148.81 918.99,648.95 1333.4,1117.72 195.4,221.07 385.09,435.49 563.06,595.23 25.04,21.87 47.86,61.33 80.82,118.7 83.67,145.16 254.67,441.03 568.45,665.75 189.22,135.65 392.7,172.26 605.53,210.14 463.7,83.36 969.23,173.85 1554.47,1138.95 793.64,1308.52 1199.01,1311.06 1734.97,1314.07 480.97,2.69 1057.5,6.18 2014.52,748.95 125.99,97.78 246.43,174.48 354.66,243.26 442.93,281.61 704.89,448.16 704.89,1475.39 0,960.35 1030.72,1530.23 1985.2,2057.79 391.59,216.48 771.45,426.3 1071.44,656.56 828.19,635.01 1323.42,996.48 1777.92,998.86 452.6,2.38 910.27,-351.02 1674.6,-1144.34 139.14,-144.37 209.34,-161.96 266.87,-176.38 42,-10.3 69.73,-17.27 321.39,-465.28 12.36,-21.24 48.02,-57.84 104.12,-116.48 203.96,-212.99 721.53,-753.23 953.7,-1151.79 609.81,-1046.4 2974.4,-73.37 4467.22,540.55 379.07,155.94 700.3,288.26 916.46,355.62 206.33,64.34 323.6,219.65 477.96,424.55 319.01,422.81 819.79,1086.82 2707.69,1472.86 371.46,75.91 717.41,117.11 1036.9,154.83 1033.41,122.5 1802.48,213.94 2564.74,1351.94 364.81,544.52 976.83,678.59 1518.18,797.12 436.6,95.56 831.51,182.25 1065.42,458.94 60.38,71.47 344.21,182.4 711.87,325.82 784.29,305.85 1929.42,752.91 2389.95,1470.96 138.03,215.05 252.77,415.99 359.89,603.79 328.83,575.74 585.88,1025.33 1323.58,1485.54 328.52,204.91 767.97,217.11 1223.9,229.47 886.19,24.25 1832.59,50.24 2353.82,1358.6 137.4,345.16 1001.56,797.76 1863.02,1248.62 661.47,346.27 1322.47,692.21 1684.26,1011.06 324.71,-36.13 629.62,-250.55 965.74,-487.15 498.56,-350.86 1061.93,-747.36 1895.67,-747.36 198.09,0 379.7,5.23 538.34,9.83 565.91,16.16 814.87,23.3 1614.53,-292.07 355.46,-140.09 993.63,-251.02 1576.82,-228.52 458.62,17.75 889.99,118.86 1141.17,352.6 36.29,33.75 92.39,70.2 162.12,105.86 213.15,109.51 537.39,210.77 841.02,249.44 283.03,36.13 541.35,20.44 647.21,-93.18 10.3,-11.09 19.33,-23.61 26.15,-36.92 271.31,-526.45 293.49,-640.71 407.44,-1227.22l32.96 -176.22c108.55,-598.87 230.58,-1269.54 999.02,-1416.44l251.66 -48.65c633.9,-123.93 1092.84,-213.31 1859.85,-206.49 184.78,1.58 578.11,-4.12 1083.49,-11.09 1799.31,-25.67 5019.67,-71.63 5501.27,122.66 200.63,80.82 297.77,225.35 417.26,403 200.95,298.72 476.37,707.9 1538.47,998.7 1039.75,284.78 1232.45,624.23 1502.97,1101.24 144.21,254.03 312.83,551.17 668.44,903.14l479.38 313.3z"/>
 </g>
</svg>
