<?xml version="1.0" encoding="UTF-8"?>
<!DOCTYPE svg PUBLIC "-//W3C//DTD SVG 1.1//EN" "http://www.w3.org/Graphics/SVG/1.1/DTD/svg11.dtd">
<!-- Creator: CorelDRAW 2019 (64-Bit) -->
<svg xmlns="http://www.w3.org/2000/svg" xml:space="preserve" width="19.148mm" height="14.6735mm" version="1.1" style="shape-rendering:geometricPrecision; text-rendering:geometricPrecision; image-rendering:optimizeQuality; fill-rule:evenodd; clip-rule:evenodd"
viewBox="0 0 383.43 293.83"
 xmlns:xlink="http://www.w3.org/1999/xlink"
 xmlns:xodm="http://www.corel.com/coreldraw/odm/2003">
 <defs>
  <style type="text/css">
   <![CDATA[
    .fil0 {fill:#393185}
   ]]>
  </style>
 </defs>
 <g id="Vrstva_x0020_1">
  <metadata id="CorelCorpID_0Corel-Layer"/>
  <path class="fil0" d="M21.44 73.54c-7.19,2 -13.38,4.52 -17.18,6.32 -4.31,2.05 -4.3,2.17 -4.26,2.41 0.05,0.31 0.12,0.66 0.08,1.17 -0.42,6.4 1.06,7.13 4.03,8.58 0.95,0.46 2.03,0.99 3.32,1.77 8.87,5.38 7.03,22.48 5.47,36.96 -0.71,6.58 -1.36,12.6 -0.89,16.43 0.18,1.5 3.59,6.66 7.84,12.55 7.18,9.99 16.43,21.75 16.87,21.91 10.84,4 10.93,4.91 11.5,10.35 0.19,1.82 0.45,4.28 1.43,7.78 1.71,6.1 3.28,12.32 4.23,16.14l0.83 3.29c0.6,2.21 2.36,3.78 4.6,4.84 3.11,1.48 7.09,1.99 10.38,1.89 8.88,-0.28 11.3,10.69 11.66,22.26 0.18,5.83 -0.14,11.77 -0.39,16.37 -0.13,2.43 -0.24,4.47 -0.24,5.97 0,5.52 0.44,9.34 0.86,12.9 0.28,2.45 0.56,4.79 0.67,7.53 0.1,2.51 4.57,3.07 10.16,2.84 5.28,-0.22 11.49,-1.21 16.46,-2.01 3.69,-0.59 6.72,-1.08 8.3,-1.08 13.29,0 14.06,-4.44 14.96,-9.63 0.3,-1.73 0.61,-3.54 1.31,-5.4 4.72,-12.69 20.28,-11.68 32.5,-10.88 1.96,0.13 3.83,0.25 5.42,0.3 2.87,0.1 8.77,-3.31 14.67,-7.64 6.99,-5.12 13.8,-11.43 15.66,-14.8 5.34,-9.69 10.08,-9.97 13.97,-7.82 1.68,0.93 3.1,2.31 4.35,3.52l0.66 0.64c1.91,-1.46 4.68,-3.17 7.59,-4.98 5.12,-3.18 10.74,-6.66 12.37,-9.08l0.47 -0.66c3.72,-5.09 11.88,-11.41 20.56,-15.43 8.89,-4.11 18.44,-5.85 24.76,-1.61l0.43 0.3c4.92,3.6 6.03,5.75 6.97,7.58 1.24,2.41 2.15,4.16 16.42,9.77 4.82,1.89 9.59,1.88 14,0.42 4.85,-1.6 9.29,-4.95 12.91,-9.42 14.6,-18.07 10.63,-35.18 6.22,-54.11l-0.73 -3.15c-0.72,-3.25 1.01,-8.36 4.35,-12.91 3.29,-4.47 8.18,-8.52 13.85,-9.82l0.16 -0.03c6.9,-1.52 10.34,-0.54 12.78,0.15 2.25,0.64 3.34,0.95 7.23,-3.48 1.17,-1.34 1.88,-4.47 2.21,-7.86 0.44,-4.51 0.18,-9.3 -0.49,-11.17 -6.31,-17.31 -16.13,-17.82 -23.83,-18.21 -8.1,-0.42 -14.22,-0.73 -13.66,-14.85l0 -0.05c0.08,-3.05 -2.31,-9.15 -5.55,-14.57 -3.13,-5.24 -6.93,-9.74 -9.74,-9.9l-0.07 -0c-3.66,-0.12 -9.68,-0.96 -14.58,-2.65 -3.73,-1.29 -6.9,-3.11 -8.18,-5.56 -2.68,-5.15 -4.05,-7.77 -5.56,-9.81 -1.49,-2.01 -3.22,-3.57 -6.64,-6.63 -3.88,-3.48 -9.54,-2.99 -15.77,-2.46 -10.24,0.88 -21.91,1.88 -31.69,-12.48 -3.17,-4.65 -7.52,-8.96 -12.42,-11.99 -4.34,-2.69 -9.11,-4.37 -13.83,-4.37 -17.97,0 -18.47,0.79 -19.58,2.56 -0.9,1.43 -2.08,3.31 -7.16,5.59 -13.55,6.08 -13.66,6.49 -14.04,7.94 -0.36,1.4 -0.9,3.41 -5.24,7.76 -6.58,6.57 -23.55,5.8 -35.96,5.23 -3,-0.14 -5.73,-0.26 -8.06,-0.26 -4.29,0 -7.59,-0.08 -10.09,-0.14 -7.33,-0.18 -7.44,-0.18 -18.44,2.88 -5.32,1.48 -7.1,10.86 -8.68,19.15 -0.72,3.78 -1.4,7.35 -2.38,10.05 -0.65,1.79 -1.7,3.37 -3,4.68 -1.85,1.85 -4.23,3.16 -6.77,3.78 -2.56,0.62 -5.29,0.55 -7.84,-0.37 -1.68,-0.61 -3.27,-1.59 -4.66,-2.98 -3,-3 -6.83,-5.59 -10.41,-6.97 -2.97,-1.15 -5.69,-1.45 -7.42,-0.41 -2.45,1.48 -4.17,3.83 -5.73,5.97 -2.23,3.05 -4.22,5.76 -7.8,6.04 -5.67,0.45 -11.34,1.62 -16.49,3.05z"/>
 </g>
</svg>
