<?xml version="1.0" encoding="UTF-8"?>
<!DOCTYPE svg PUBLIC "-//W3C//DTD SVG 1.1//EN" "http://www.w3.org/Graphics/SVG/1.1/DTD/svg11.dtd">
<!-- Creator: CorelDRAW 2019 (64-Bit) -->
<svg xmlns="http://www.w3.org/2000/svg" xml:space="preserve" width="57.7317mm" height="72.0764mm" version="1.1" style="shape-rendering:geometricPrecision; text-rendering:geometricPrecision; image-rendering:optimizeQuality; fill-rule:evenodd; clip-rule:evenodd"
viewBox="0 0 1358.52 1696.07"
 xmlns:xlink="http://www.w3.org/1999/xlink"
 xmlns:xodm="http://www.corel.com/coreldraw/odm/2003">
 <defs>
  <style type="text/css">
   <![CDATA[
    .fil0 {fill:#B7CBD8}
   ]]>
  </style>
 </defs>
 <g id="Vrstva_x0020_1">
  <metadata id="CorelCorpID_0Corel-Layer"/>
  <path id="Obrys" class="fil0" d="M1310.84 853.25c0.72,-0.61 1.47,-1.09 2.24,-1.44l-1.17 -2.75c-3.82,-7.17 -4.25,-8.33 -6.19,-13.7l-1.24 -3.41c-0.38,-1.02 -0.78,-2.3 -1.23,-3.73 -2.11,-6.76 -5.46,-17.47 -11.79,-18.24 -6.62,-0.81 -8.66,-6.1 -10.41,-10.65 -0.69,-1.79 -1.32,-3.44 -2.14,-4.34l-0.52 -0.62c-3.15,-4 -5.01,-11.08 -5.28,-17.81 -0.28,-6.87 1.1,-13.54 4.41,-16.51l0.36 -0.3c2.15,-1.7 4.22,-7.43 6.51,-13.78 2.51,-6.94 5.27,-14.57 9.06,-19.33 1.83,-2.29 2.16,-7.81 1.63,-13.11 -0.29,-2.87 -0.84,-5.65 -1.55,-7.83 -0.56,-1.72 -1.15,-2.97 -1.65,-3.36l-0.23 0c-20.92,0 -23.05,-2.09 -29.15,-8.07 -2.46,-2.41 -5.61,-5.51 -11.27,-9.42 -16.19,-11.2 -12.17,-19.75 -8.29,-28.01 1.3,-2.77 2.59,-5.51 2.84,-8.15 3.11,-32.8 -3.77,-38.11 -9.39,-42.46 -2.59,-2 -4.95,-3.83 -6.33,-7.54 -1.94,-5.22 -1.64,-12.07 0.09,-18.68 1.85,-7.03 5.35,-13.9 9.52,-18.31 32.75,-34.61 43.09,-25.05 53.09,-15.82 3.91,3.61 7.76,7.17 13,7.17 1.94,0 3.3,-1.17 4.28,-2.85 1.17,-2 1.89,-4.72 2.46,-7.29 1.63,-7.31 4.52,-9.82 7.63,-12.51 1.3,-1.13 2.65,-2.3 3.9,-3.93 7.21,-9.37 18.23,-13.46 25.77,-16.27 3.74,-1.39 6.54,-2.43 6.99,-3.24 0.07,-0.13 -1.76,-4.39 -4.05,-9.62 -3.53,-8.04 -8.3,-17.79 -9.59,-19.79l-1.04 -1.61c-6.74,-10.43 -9.93,-15.36 -11.46,-20.62 -1.37,-4.71 -1.35,-9.41 -1.29,-18.27l0.02 -6.61c0,-6.97 0.56,-10.69 1.12,-14.35 0.33,-2.18 0.66,-4.35 0.85,-7.15 1.3,-18.78 7.9,-26.03 14.23,-32.96 3.01,-3.3 5.96,-6.54 8.1,-10.95 6.03,-12.41 4.99,-48.59 4.28,-73.44 -0.19,-6.83 -0.37,-12.83 -0.37,-17.02 0,-10.17 -3.13,-14.18 -6.02,-17.87 -1.28,-1.64 -2.53,-3.23 -3.52,-5.23 -2.33,-4.72 -9.41,-9.33 -13.58,-12.04 -1.62,-1.05 -2.84,-1.85 -3.4,-2.4 -3.27,-3.28 -3.88,-3.23 -4.73,-3.16 -1.31,0.11 -2.92,0.24 -6.69,-1.97 -2.95,-1.73 -6.66,-1.89 -9.85,-2.03 -5.48,-0.23 -9.78,-0.43 -9.59,-6.37 0.63,-19.8 -2.12,-23.79 -12.26,-24.11 -2.95,-0.09 -6.55,0.08 -10.8,0.29 -4.67,0.22 -10.13,0.49 -16.32,0.49 -20.59,0 -24.47,-5.56 -24.47,-14.28 0,-2.22 0.29,-4.63 0.59,-7.21 0.39,-3.26 0.81,-6.82 0.69,-10.48l-1.2 -2.98c-2.66,-4.15 -4.82,-6.74 -7.46,-8.63 -2.68,-1.91 -5.98,-3.17 -10.9,-4.63l-2.75 -0.82c-10.95,-3.28 -16.28,-4.88 -28.71,-2.85 -6.88,1.12 -10.02,3.26 -12.66,5.06 -2.86,1.95 -5.23,3.56 -10.27,3.56l-5.66 0.02c-4.19,0.03 -6.21,0.05 -8.14,-0.28 -1.83,-0.31 -3.42,-0.89 -6.49,-2 -1.5,-0.54 -3.38,-1.23 -6.27,-2.22 -4.9,-1.69 -11.17,-4.69 -16.53,-8.48 -4.33,-3.06 -8.1,-6.65 -10.19,-10.53 -1.68,-3.12 -4.77,-6.14 -8.32,-8.4 -3.52,-2.25 -7.46,-3.74 -10.89,-3.88 -13.07,-0.53 -13.44,-1.36 -16.11,-7.57 -0.76,-1.77 -1.75,-4.06 -3.45,-6.98 -0.5,-0.87 -0.95,-2.01 -1.42,-3.22l-0.6 -1.52c-0.91,-2.21 -2.02,-4.34 -3.54,-3.72 -10.94,4.5 -33.42,4.13 -49.21,3.87 -3.04,-0.05 -5.82,-0.1 -8.74,-0.1 -5.06,0 -6.57,-0.19 -9.49,-0.56l-3.74 -0.44c-4.08,-0.44 -8.42,-1.6 -12.3,-3.54 -3.46,-1.73 -6.57,-4.1 -8.8,-7.12 -2.83,-3.82 -4.11,-8.87 -4.37,-14.09 -0.31,-6.33 0.89,-12.99 2.62,-17.99 0.55,-1.57 1.99,-2.44 3.71,-3.47 3.09,-1.86 7.48,-4.5 4.74,-13.25 -2.89,-9.23 -7.57,-12.15 -11.5,-14.6 -4.07,-2.54 -7.48,-4.66 -8.21,-11.17 -3.28,2 -6.33,3.35 -9.53,4.22 -3.54,0.96 -7.25,1.32 -11.66,1.32 -1.92,0 -3.84,-0.37 -4.99,-0.59l-0.6 -0.12c-1.45,0 -3.1,-0.75 -4.62,-1.78 -1.9,-1.28 -3.74,-3.07 -4.67,-4.23 -2.42,-2.99 -4.25,-5.23 -6.24,-7.24 -1.99,-2 -4.2,-3.84 -7.4,-6.06 -2.17,-1.51 -12.8,-1.2 -19.22,-1.01l-3.92 0.09c-3.59,0 -8.69,0.45 -13.77,0.9 -4.42,0.39 -8.84,0.78 -12.34,0.88 -0.35,1.81 -1.28,2.98 -2.68,4.73l-1.28 1.64c-1.19,1.58 -1.71,6.9 -1.85,13.02 -0.2,9.21 0.58,19.96 1.33,23.23 1.02,4.41 0.45,7.96 -0.09,11.39 -0.2,1.24 -0.39,2.46 -0.5,3.76 -0.67,8.25 -10.19,9.54 -18.54,10.66 -2.48,0.33 -4.85,0.65 -6.72,1.13 -8.5,2.19 -9.18,3.15 -10.79,5.42 -0.83,1.18 -1.88,2.67 -3.94,4.7 -1.48,1.46 -5.62,6.37 -8.21,11 -0.92,1.64 -1.64,3.23 -1.92,4.55 -0.2,0.92 -0.19,1.63 0.13,1.96l0.22 0.16 0.9 0.51 0 1.03c0,2 0.22,5.53 0.47,9.53 0.55,8.77 1.24,19.78 0.06,22.7 -0.64,1.6 -0.75,3 -0.84,4.4 -0.12,1.73 -0.25,3.46 -1.18,5.68 -1.17,2.78 -2.26,5.26 -3.94,7.16 -1.82,2.06 -4.18,3.31 -7.7,3.31 -5.48,0 -8.63,-2.74 -11.74,-5.44 -1.16,-1.01 -2.33,-2.03 -3.58,-2.81 -4.3,-2.7 -7.6,-5.98 -10.85,-9.2 -2.13,-2.11 -4.24,-4.21 -6.59,-6.08 -3.36,-2.66 -6.73,-6.39 -10.04,-10.04 -2.99,-3.29 -5.92,-6.53 -8.65,-8.74l-1.52 -1.24c-3.76,-3.1 -4.78,-3.94 -10.36,-3.94 -2.86,0 -3.79,0.25 -4.82,0.53 -0.76,0.2 -1.56,0.43 -2.97,0.59 -4.14,0.49 -8.94,2.73 -13.23,4.72 -3.4,1.58 -6.5,3.02 -9.01,3.49 -6.03,1.12 -7.45,-0.44 -10.99,-4.3l-0.08 -0.08c-1.06,-1.16 -3.48,-3.25 -5.87,-4.76 -1.5,-0.96 -2.91,-1.64 -3.7,-1.6 -0.96,0.05 -2.06,0.05 -3.23,0.05 -4.35,-0.01 -9.66,-0.02 -11.91,3.25 -2.86,4.15 -6.87,8.08 -11.29,11.62 -5.42,4.33 -11.5,8.1 -16.89,10.97 -2.13,1.14 -4.46,1.91 -6.67,2.65 -1.44,0.48 -2.84,0.95 -4.07,1.49l-5.27 2.36c-3.15,1.42 -6.3,2.85 -9.69,4.28 -0.87,3.11 -2.82,6.33 -4.29,8.75 -0.76,1.25 -1.38,2.28 -1.52,2.72 -1.62,5.15 -7.13,9.94 -13.65,13.58 -7.63,4.26 -16.78,7.04 -22.55,6.92 -4.77,-0.09 -7.08,0.61 -8.9,1.16 -1.29,0.39 -2.39,0.72 -3.88,0.76 -0.62,0.01 -1.22,0.16 -1.8,0.41 -2.1,0.89 -3.85,3.14 -5.08,5.74 -1.28,2.71 -1.98,5.74 -1.93,8.06 0.02,0.85 0.14,1.59 0.37,2.12 1.63,3.81 2.92,10 3.32,15.98 0.36,5.32 0.02,10.58 -1.38,14.01 -5.57,13.66 -8.12,15.06 -17.34,20.1 -1.55,0.85 -3.31,1.81 -5.21,2.9 -1.65,0.95 -6.18,2.87 -10.42,4.48 -3.82,1.44 -7.52,2.68 -8.92,2.8 -2.92,0.27 -4.94,0.59 -6.41,0.82 -2.14,0.33 -3.29,0.51 -4.51,0.17 -1.43,-0.4 -2.36,-1.32 -4.36,-3.26 -0.79,-0.76 -1.77,-1.73 -3.19,-3.03 -1.44,-1.32 -2.63,-2.88 -3.76,-4.38 -2.14,-2.82 -4.08,-5.36 -7.19,-4.48 -4.44,1.24 -8.55,4.11 -12.5,6.86 -9.33,6.5 -17.9,12.46 -29.51,-0.32 -2.56,-2.82 -4.41,-3.7 -6.01,-4.46 -1.12,-0.53 -2.16,-1.03 -3.27,-1.96 -1,-0.84 -17.45,-1.03 -35.07,-0.82 -19.56,0.23 -40.3,1.05 -43.32,2.08 -22.37,7.62 -24.95,10.04 -34.51,19.01 -3.14,2.96 -7.04,6.61 -12.65,11.42 -2.94,2.52 -5.29,4.85 -7.4,6.94 -7.28,7.21 -11.83,11.72 -26.96,12.09 -4.56,0.11 -8.71,-1.32 -12.36,-3.63 -4.29,-2.72 -7.89,-6.68 -10.65,-10.79 -2.86,-4.24 -6.97,-4.07 -9.94,-3.94 -0.92,0.04 -1.75,0.08 -2.47,0.02 -0.07,-0 -6.06,4.12 -13.07,8.79 -9.07,6.05 -19.27,12.99 -19.93,13.62 -3.29,3.15 -8.05,4.6 -13.02,4.93 -6.1,0.41 -12.62,-0.85 -17.04,-2.67 -3.25,-1.33 -12.15,-1.26 -19.95,-1.2 -3.5,0.03 -6.79,0.05 -9.31,-0.05l-0.24 0.96c-0.61,2.46 -1.2,4.8 -1.2,6.97 0,4.2 -6.58,12.86 -15.11,22.16 -12.11,13.19 -28.29,28.02 -34.59,32.63 -5.56,4.07 -6.07,18.96 -6.54,32.89 -0.34,9.97 -0.66,19.48 -2.9,24.9 -4.44,10.75 -22.52,27.68 -34.81,39.18 -2.55,2.39 -4.86,4.55 -6.84,6.47 -3.57,3.46 -8.29,6.55 -13.18,9.75 -9.91,6.48 -20.59,13.47 -22.34,24.23l-0.24 1.5c-2.65,16.17 -5.51,33.61 7.65,48.71 5.4,6.19 7.92,12.89 10.19,18.91 3.57,9.48 6.46,17.16 20.24,17.16 22.2,0 23.03,0.42 34.72,6.31l3.28 1.65c10.03,4.99 22.58,28.97 32.76,48.45 5.35,10.24 10.05,19.21 13.22,23.26 5.36,6.83 17.45,28.27 26.88,48.04 7.26,15.22 12.99,29.57 12.99,35.81 0,7.17 2.9,19.56 7.16,30.99 3.68,9.86 8.34,18.94 12.96,23.2 4.58,4.22 9.66,12.58 14.01,21.32 5.92,11.87 10.6,24.66 10.92,28.74 0.22,2.81 0.53,3.16 0.78,3.47 0.66,0.77 1.2,1.42 1.18,5.15 -0.02,2.49 2.41,11.81 5.25,22.7 3.61,13.83 7.87,30.18 8.77,39.2 0.8,8.03 3.54,19.1 6.87,28.8 3.13,9.1 6.72,16.89 9.6,19.61 3.29,3.1 7.78,11.42 12.28,19.75 4.6,8.53 9.22,17.07 12.04,19.27 2.31,1.8 5.86,5.98 9.95,10.78 7.12,8.38 15.95,18.75 21.52,20.67 5.21,1.8 15.21,13.61 25.36,25.61 9.58,11.32 19.31,22.82 24.49,25.52 3.98,2.08 7.48,5.01 11.04,8 6.51,5.47 13.27,11.14 23.12,11.22 8.92,0.07 16.31,7.97 23.53,15.69 6.34,6.78 12.56,13.42 18.91,13.63 4.06,0.13 7.7,0.51 11.31,0.88 9.4,0.97 18.69,1.92 34.41,-1.61 20.43,-4.59 29.09,-1.54 42.67,3.23l8.81 3.05c3.42,1.19 4.8,1.66 5.46,1.8 0.17,0.04 0.25,0.02 0.36,0 0.65,-0.12 1.74,-0.31 5.24,0.02 5.29,0.5 14.75,4.36 22.89,9.44 6.79,4.23 12.78,9.38 14.91,14.26 1.78,4.09 6.71,10.46 12.59,17.14 7.97,9.08 17.67,18.69 23.73,24.08 5.95,5.3 19.45,26.36 32.6,46.89 10.93,17.06 21.62,33.74 27.3,40.37 4.39,5.12 8,9.79 11.26,14.01 6.13,7.93 11.04,14.27 17.4,18.77 4.36,3.08 12,14.1 19.66,26.6 10.79,17.62 21.77,38.37 23.48,43.65 1.3,4 3.78,8.59 6.69,12.95 3.29,4.92 7.13,9.51 10.46,12.64 4,3.74 17.26,14.99 29.77,23.36 7.46,4.98 14.6,8.92 19.15,9.53 4.62,0.61 9.5,0.98 13.99,1.32 7.87,0.59 14.57,1.1 17.72,2.88 1.63,0.92 3.28,1.27 5.21,1.68 2.93,0.62 6.46,1.37 11.74,4.23 6.62,3.6 11.69,7.42 17.73,11.99 2.13,1.61 4.4,3.32 6.76,5.05 2.6,1.9 5.11,3.57 7.63,5.24 6.67,4.43 13.38,8.88 21.88,17.7 5.84,6.06 10.87,11.8 15.1,17.35 4.26,5.59 7.71,10.99 10.36,16.31 4.67,9.39 5.8,9.81 6.11,9.92 0.57,0.27 1.21,0.5 1.8,0.75 2.03,0.84 1.86,1.42 1.39,2.99 -0.28,0.94 -1.02,3.43 5.31,13.45 4.09,6.47 8.6,19.55 13.48,33.72 6.63,19.26 13.98,40.59 21.52,49.13 6.67,7.56 10.54,11.9 14.49,15.26 3.93,3.35 8.09,5.85 15.36,9.74l2.65 1.43c15.66,8.49 47.16,25.56 71.31,13.99 9.62,-4.61 15.81,-8.57 20.7,-11.71l0.77 -0.49c-1.34,-3.82 -2.34,-6.49 -3.5,-9.07 -1.28,-2.83 -2.75,-5.52 -5.09,-9.53 -2.12,-3.63 -5.22,-9.56 -7.4,-15.24 -1.58,-4.11 -2.68,-8.15 -2.64,-11.22l0.07 -9.19c-2.69,-6.58 -2.37,-10.86 -1.95,-16.48l0.26 -3.9c0.1,-2.03 1.56,-6.65 3.43,-11.76 2.69,-7.35 6.25,-15.88 7.74,-19.01 0.54,-1.15 3.23,-5.88 4.87,-8.78l1.16 -2.01c0.45,-1.25 1.97,-3.35 3.71,-5.42 2.16,-2.58 4.74,-5.26 5.9,-6.18 2.23,-1.76 4.29,-4.62 6.38,-7.53 2.52,-3.52 5.09,-7.1 8.33,-9.34 0.93,-0.65 3.75,-1.89 6.54,-2.99 3.08,-1.21 6.29,-2.32 7.11,-2.37 0.84,-0.04 2.63,-0.48 4.43,-1 1.79,-0.53 3.52,-1.14 4.21,-1.54 1.43,-0.83 3.04,-2.06 4.4,-3.11 1.26,-0.96 2.34,-1.79 3.1,-2.17 5.34,-2.64 5.24,-3.71 5,-6.27 -0.11,-1.14 -0.23,-2.49 -0.17,-4.2 0.46,-11.7 -1.12,-13.69 -4.02,-17.34 -1.26,-1.59 -2.76,-3.47 -4.45,-6.4 -3.74,-6.47 -7.63,-8.72 -10.62,-10.44 -4.09,-2.36 -6.81,-3.93 -6.38,-11.14l0.25 -5.06c0.56,-12.72 0.83,-18.52 13.07,-21.68 1.14,-6.92 -0.56,-13.21 -2.38,-19.92 -1.63,-5.99 -3.34,-12.32 -3.34,-19.85 0,-2.09 1.17,-3.69 3.09,-4.82 1.28,-0.76 2.93,-1.31 4.76,-1.66 1.77,-0.34 3.72,-0.5 5.69,-0.5 6.62,0 13.79,1.92 15.76,5.23 0.45,0.76 1.2,0.69 2.18,0.11 2.16,-1.28 5.01,-4.32 8.31,-7.85 7.78,-8.31 17.93,-19.15 29.69,-18.6 6.58,0.31 10.15,-0.36 13.39,-0.96 2,-0.37 3.9,-0.73 6.29,-0.84 4.13,-0.2 4.94,-6.9 5.75,-13.58 0.73,-6.04 1.46,-12.06 4.8,-14.91 1.56,-1.33 4.79,-5.97 7.04,-9.2 1.14,-1.63 2.03,-2.92 2.49,-3.43 0.64,-0.72 1.2,-1.57 1.66,-2.5 1.99,-4.04 2.31,-9.68 1.71,-14.7 -0.59,-4.91 -1.99,-9.09 -3.48,-10.44l-0.22 -0.17c-2.39,-1.18 -4.35,-2.83 -5.91,-4.82 -3.93,-5.02 -5.33,-12.17 -5.09,-19.39 0.24,-7.11 2.1,-14.35 4.73,-19.66 1.51,-3.06 3.32,-5.54 5.26,-7.06 1.32,-1.03 2.37,-4.88 3.16,-9.56 1.37,-8.06 1.8,-18.31 1.8,-22.21 0,-15.3 1.37,-15.58 4.21,-16.13 0.63,-0.12 1.43,-0.29 2.45,-1.73 7.72,-10.94 7.97,-22.56 8.21,-33.69 0.16,-7.65 0.32,-15.08 2.78,-22.14 4.53,-13 20.27,-14.43 28.99,-15.22 2.48,-0.22 3.99,0.93 4.08,0.28 0.84,-6.15 3.56,-13.19 6.31,-20.35 4.17,-10.83 8.45,-21.94 6.06,-29.6 -4.45,-14.27 -8.99,-18.47 -12.61,-21.83 -4.8,-4.44 -8.16,-7.56 -8.16,-25.56 0,-25.52 5.45,-28.42 9.49,-30.57 1.39,-0.73 2.53,-1.35 2.83,-3.75 0.92,-7.46 1.15,-18.02 0.8,-28.43 -0.34,-10.42 -1.27,-20.67 -2.66,-27.51l-0.96 -4.5c-0.47,-2.16 -0.72,-3.35 -0.88,-4.78 -0.17,-1.66 -0.17,-3.52 -0.17,-7.62l0 -2.18c-0.01,-4.21 -0.64,-9.16 -1.97,-13.7 -1.12,-3.84 -2.72,-7.38 -4.81,-9.86 -1.53,-1.82 -2.36,-4.91 -2.6,-8.65 -0.37,-5.9 0.68,-13.72 2.69,-20.78 2.04,-7.18 5.12,-13.66 8.8,-16.76z"/>
 </g>
</svg>
