<?xml version="1.0" encoding="UTF-8"?>
<!DOCTYPE svg PUBLIC "-//W3C//DTD SVG 1.1//EN" "http://www.w3.org/Graphics/SVG/1.1/DTD/svg11.dtd">
<!-- Creator: CorelDRAW 2019 (64-Bit) -->
<svg xmlns="http://www.w3.org/2000/svg" xml:space="preserve" width="86.084mm" height="69.0378mm" version="1.1" style="shape-rendering:geometricPrecision; text-rendering:geometricPrecision; image-rendering:optimizeQuality; fill-rule:evenodd; clip-rule:evenodd"
viewBox="0 0 4535.5 3637.39"
 xmlns:xlink="http://www.w3.org/1999/xlink"
 xmlns:xodm="http://www.corel.com/coreldraw/odm/2003">
 <defs>
  <style type="text/css">
   <![CDATA[
    .fil0 {fill:#F5B2B6}
   ]]>
  </style>
 </defs>
 <g id="Vrstva_x0020_1">
  <metadata id="CorelCorpID_0Corel-Layer"/>
  <path class="fil0" d="M4483.14 2517.88c3.02,-10.83 2.08,-27.96 1.03,-46.91 -1.95,-35.27 -4.24,-76.67 17.69,-101 18.94,-21.01 18.9,-23.34 18.82,-28.98 -0.05,-3.74 -0.13,-8.64 2.66,-17.93 5.87,-19.58 11.94,-51.04 12.16,-80.41 0.16,-21.04 -2.68,-40.95 -10.73,-54.31 -19.67,-32.63 -29.72,-35.9 -42.15,-39.93 -11.12,-3.6 -23.98,-7.77 -45.19,-29.57 -17.13,-17.6 -20.74,-37.62 -23.46,-52.69 -0.99,-5.47 -1.85,-10.25 -3.2,-13.72 -2.92,-7.5 -5.12,-13.9 -7.12,-19.7 -8.75,-25.43 -13.62,-39.59 -46.93,-52.28 -23,-8.76 -45.41,-9.6 -67.46,-10.42 -22.56,-0.84 -44.77,-1.68 -67.34,-10.67 -6.25,-2.49 -11.55,-7.59 -15.61,-14.31 -5.07,-8.39 -8.34,-19.48 -9.22,-31.13 -0.88,-11.59 0.58,-23.87 4.91,-34.75 4.22,-10.6 11.14,-19.88 21.26,-26 18.32,-11.07 31.47,-26.42 41.56,-38.19 6.88,-8.02 12.42,-14.49 17.69,-17.45 13.29,-7.47 10.99,-40.06 9.37,-62.84 -0.45,-6.42 -0.86,-12.12 -0.86,-16.38 0,-9.16 10.62,-19.24 24.26,-27.79 15.39,-9.65 35.03,-17.76 46.67,-20.05 -0.15,-65.27 -5.13,-66.89 -61.23,-85.02l-9.72 -3.15c-8.32,-2.71 -32.62,-16.95 -51.71,-31.13 -14.09,-10.46 -25.62,-21.25 -26.77,-28.29 -0.1,-0.62 -0.78,-1.59 -1.69,-2.87 -3.95,-5.6 -11.01,-15.61 -11.01,-50.41 0,-33.49 14.32,-37.93 27.51,-42 8.67,-2.68 16.72,-5.17 16.72,-21.34l0.09 -12.87c0.36,-39.22 0.83,-89.38 -25.88,-114.83 -13.5,-12.87 -18.43,-32.85 -17.56,-53.17 1.01,-23.45 9.8,-47.59 21.99,-61.59 3.1,-3.56 4.6,-13.75 4.19,-26.57 -0.38,-12.26 -2.65,-26.66 -7.05,-39.96 -4.32,-13.02 -10.68,-24.92 -19.31,-32.44 -6.12,-5.34 -13.45,-8.48 -22.08,-8.21 -6.15,0.19 -11.68,0.26 -16.67,0.31 -23.97,0.25 -35.48,0.38 -63.61,16.55 -1.97,1.13 -4.13,2.96 -6.32,4.83 -9.93,8.44 -20.77,17.63 -39.01,-3.57 -2.12,-2.47 -12.48,-9.8 -22.96,-15.47 -6.89,-3.73 -13.64,-6.64 -17.57,-6.68 -3,-0.03 -7.17,-0.9 -12.08,-1.91 -10.67,-2.21 -25.28,-5.23 -35,-1.21 -5.14,2.12 -11.21,5.11 -17.69,8.29 -27.32,13.41 -61.75,30.33 -75.95,7.91 -7.67,-12.13 -10.47,-32 -13.5,-53.66 -3.24,-23.14 -6.79,-48.42 -16.78,-67.15 -13.44,-25.2 -25.31,-45.13 -40.72,-54.6 -14.97,-9.21 -33.99,-8.6 -62.42,6.6 -3.36,1.79 -7.92,3.44 -12.71,4.26 -4.76,0.81 -9.87,0.84 -14.46,-0.52 -4.93,-1.45 -9.26,-4.46 -12.02,-9.64 -1.16,-2.18 -2.03,-4.7 -2.52,-7.62 -3.73,-21.9 -7.78,-37.8 -13.16,-53.03 -5.4,-15.28 -12.2,-30.02 -21.4,-49.49 -12.19,-25.77 6.04,-34.96 28.46,-46.26 21.89,-11.02 48.33,-24.35 48.33,-60.15 0,-62.27 -7.72,-89.6 -21.56,-138.61l-7.22 -25.86c-4.81,-17.51 -9.72,-28.31 -14.34,-38.48 -6.16,-13.56 -11.84,-26.06 -16.31,-51.71 -2.48,-14.26 -4.34,-23.05 -5.74,-29.68 -3.55,-16.83 -4.32,-20.44 -4.32,-57.5l-0.05 -12.42c-0.08,-8.41 -0.11,-11.63 0.96,-13.73 1.22,-2.39 2.57,-2.72 4.74,-3.2 2.09,-0.48 6.15,-1.4 14.77,-12.62l-4.17 -8c-3.54,-6.85 -7.7,-14.91 -9.04,-16.7 -6.46,-8.66 -14.34,-23.08 -23.12,-39.12 -18.76,-34.29 -41.72,-76.28 -61.24,-81.55 -6.53,-1.76 -13.54,-1.79 -20.24,-1.81 -9.29,-0.03 -18.12,-0.07 -25.64,-4.24 -7.83,-4.36 -13.91,-11.36 -19.83,-18.17 -5.95,-6.85 -11.74,-13.51 -18.4,-16.06l-1.79 -0.68 -0.57 -1.84c-0.46,-1.52 -8.54,-10.6 -17.77,-20.5 -11.29,-12.12 -24.07,-25.06 -27.23,-27.34 -10.51,-7.57 -16.62,-15.44 -21.69,-21.97 -7.41,-9.53 -12.28,-15.79 -27.81,-11.61 -62.26,16.75 -98.23,0.36 -124.39,-11.56 -11.78,-5.37 -21.46,-9.78 -30.15,-9.37 -7.53,0.35 -13.93,0.41 -19.28,0.45 -12.24,0.1 -18.69,0.16 -22.51,3.72 -4.65,4.35 -7.51,14.7 -13.51,36.54l-4.25 15.37c-3.93,13.97 -15.14,30.17 -29.02,42.69 -12.76,11.5 -27.93,20.02 -42.04,21.06 -8.27,0.61 -23,10.77 -37.9,23.47 -20.23,17.24 -40.32,38.91 -45.65,48.41 -2.37,4.23 -10.98,15.83 -19.21,26.94 -6.56,8.84 -12.9,17.39 -15.46,21.34 -56.12,86.67 -97.93,82.14 -133.74,78.27 -16.91,-1.83 -32.39,-3.51 -46.94,5.91 -4.94,3.19 -12.23,15.21 -20.68,29.13 -15.9,26.17 -35.66,58.7 -57.26,59.45 -11.58,14.21 -80.3,13.1 -106.34,12.68l-7.54 -0.08c-26.83,0 -53.99,-7.97 -79.01,-20.57 -28.42,-14.3 -54.13,-34.63 -73.42,-56.01 -8.57,-9.49 -21.34,-17.45 -35.03,-21.63 -12.3,-3.76 -25.29,-4.45 -36.53,-0.45 -10.18,3.62 -18.61,7.01 -26.31,10.08 -25.84,10.34 -43.72,17.49 -83.87,17.92 -0.23,7.9 -1.13,15.47 -2.44,22.97 -1.51,8.61 -3.57,17.13 -5.77,26l-2.54 10.34c-6.66,27.38 -16.1,66.12 -27.58,87.18 -23.05,42.28 -24.48,42.24 -47.36,41.64 -5.55,-0.15 -12.54,-0.33 -21.82,0.25 -17.92,1.12 -27.61,31.93 -35.09,55.76 -5.5,17.49 -9.97,31.72 -18.15,31.72 -9.86,0 -15.16,-6.48 -21.68,-14.44 -4.22,-5.16 -9.05,-11.07 -15.96,-15.72 -4.16,-2.79 -13.48,-5.26 -22.52,-6.46 -8.26,-1.1 -15.95,-1.2 -18.52,0.46 -18.51,11.92 -18.21,21.37 -17.65,39.21 0.12,3.87 0.25,8.11 0.25,12.03 0,6.31 0.76,11.25 1.36,15.26 0.4,2.61 0.75,4.88 0.82,7.14 0.38,11.57 5.49,21.87 10.64,32.25 2.12,4.28 4.27,8.6 6.19,13.24 3.95,9.56 1.58,20.64 -0.53,30.47 -0.71,3.34 -1.4,6.53 -1.75,9.4 -0.79,6.39 -2.82,11.02 -5.02,16.03 -1.14,2.6 -2.32,5.31 -3.34,8.31 -0.06,26.7 -3.94,31.1 -13.11,41.51 -2.98,3.36 -6.56,7.42 -10.8,13.35 -17.5,24.46 -51.68,22.54 -81.78,20.85 -7.07,-0.4 -13.93,-0.78 -20.4,-0.78 -13.28,0 -37.48,5.29 -60.32,12.28 -22.19,6.79 -42.93,15.09 -50.87,21.6 -30.22,24.72 -53.07,21.82 -82,18.16l-11.26 -1.36c-24.22,-2.7 -34.63,-3.86 -42.86,-2.2 -6.05,1.23 -11.6,4.18 -21.28,9.33 -5.05,2.67 -11.19,5.93 -19.16,9.88 -11.51,5.7 -36.76,9.65 -60.91,10.74 -23.2,1.04 -45.76,-0.58 -54.76,-5.81 -7.18,-4.17 -35.92,-6.4 -59.76,-8.25 -16.56,-1.28 -30.86,-2.39 -35.34,-4.12 -18.41,-7.13 -47.04,-15.67 -75.2,-21.95 -23.25,-5.18 -46.19,-8.81 -62.71,-8.81 -28.99,0 -30.15,18.51 -31.19,35.07 -0.44,7.05 -0.87,13.81 -3.05,19.43 -7.11,20.13 -12.84,49.28 -18.41,70.69 -5.55,32.9 -48.12,60.15 -73.42,76.34l-1.28 0.82c-27.69,17.73 -49.73,24.61 -69.83,30.88 -28.97,9.04 -53.87,16.8 -86.15,55.73 -26.52,31.98 -35.61,36.31 -45.95,27.72 -2.75,-2.28 -5.41,-5.6 -8.6,-9.59 -6.97,-8.71 -16.77,-20.96 -35.78,-31.19 -40.46,-21.79 -70.96,15.85 -101.06,53 -24.69,30.47 -49.14,60.64 -79.9,60.64 -16.01,0 -32.78,6.23 -47.52,11.7 -17.01,6.31 -31.54,11.7 -41.4,6.41 -20.92,-11.25 -35.48,-10.77 -56.02,-10.08 -5.73,0.19 -11.89,0.4 -18.1,0.4 -17.86,0 -38.44,10.36 -57,24.93 -21.97,17.23 -40.95,40.23 -49.44,59.07 -4.46,9.9 -15.09,21.16 -26.6,29.79 -11.67,8.76 -24.56,14.97 -33.28,14.64l-21.07 -0.87c-42.94,-1.83 -64.46,-2.74 -81.74,3.44 -17.23,6.16 -31.25,19.87 -59.33,47.32l-13.22 12.89c-49.79,48.33 -48.23,60.47 -46.44,74.43 1,7.8 2.07,16.13 -3.37,29.83 -1.59,4.07 -2.36,8.49 -3.26,13.73 -1.38,8.05 -3.08,17.95 -8.52,31.86 -4.66,11.92 -18,25.51 -32.79,36.11 -15.54,11.13 -33,19.15 -44.01,18.68 -15.66,-0.67 -37.42,7.4 -56.17,19.77 -16.99,11.2 -31.32,25.82 -36.12,40.48 0.42,13.88 6.98,17.99 14.98,22.97 9.93,6.2 21.75,13.57 29.1,37.04 7.99,25.5 -4.94,33.29 -14.06,38.78 -2.54,1.53 -4.67,2.81 -4.94,3.59 -3.6,10.37 -6.09,24.19 -5.44,37.32 0.5,10.25 2.92,20.04 8.23,27.22 4.22,5.71 10.19,10.23 16.89,13.58 7.78,3.89 16.55,6.24 24.84,7.13l8.52 1.01c6.06,0.76 9.18,1.15 20.28,1.15 4.75,0 11.89,0.12 19.7,0.25 34.68,0.56 84.07,1.37 107.07,-8.08 9.88,-4.07 14.67,4.03 18.21,12.61l1.4 3.55c0.94,2.41 1.82,4.67 2.66,6.11 4.09,7.03 6.4,12.37 8.16,16.47 4.26,9.88 4.84,11.22 29.13,12.2 9.11,0.36 19.32,4.18 28.3,9.92 9.03,5.76 16.94,13.53 21.34,21.72 4.03,7.5 11.62,14.66 20.41,20.86 11.35,8.02 24.64,14.39 35.03,17.97 5.51,1.9 10.35,3.66 14.16,5.04 6.41,2.33 9.74,3.55 13.13,4.11 3.73,0.63 8.03,0.6 16.91,0.53l12.7 -0.07c8.9,0 13.28,-2.98 18.56,-6.57 6.58,-4.48 14.39,-9.8 31.53,-12.59 29.66,-4.83 42.14,-1.09 67.81,6.6l6.15 1.84c11.83,3.52 19.88,6.62 26.74,11.52 6.89,4.91 12.35,11.46 18.97,21.83 1.23,1.91 2.7,6.53 3.66,8.91l0.03 0.68c0.37,9.14 -0.63,17.62 -1.55,25.37 -0.65,5.5 -1.26,10.64 -1.26,15.22 0,14.7 7.42,24.07 46.88,24.07 14.14,0 26.01,-0.58 36.16,-1.06 9.65,-0.46 17.82,-0.86 24.79,-0.64 28.85,0.92 36.7,11.17 35.08,62.09 -0.17,5.53 6.03,5.81 13.91,6.14 8.05,0.34 17.42,0.75 25.72,5.62 6.24,3.66 8.51,3.49 10.33,3.34 4,-0.33 6.87,-0.57 16.8,9.36 0.73,0.71 3.15,2.29 6.32,4.36 10.01,6.52 27.01,17.59 33.18,30.08 1.88,3.8 4.41,7.03 7.01,10.36 7.28,9.32 15.18,19.42 15.18,44.86 0,10.28 0.37,23.19 0.79,37.89 1.62,56.43 3.98,138.6 -10.34,168.07 -5.32,10.94 -12.29,18.59 -19.41,26.4 -13.26,14.53 -27.12,29.73 -29.83,69.01 -0.46,6.7 -1.22,11.66 -1.97,16.65 -1.2,7.89 -2.41,15.89 -2.41,30.96l-0.07 14.82c-0.12,19.1 -0.18,29.21 2.58,38.69 3.1,10.63 10.04,21.37 24.74,44.11l2.32 3.6c3.03,4.7 14.01,27.09 22.05,45.41 6,13.66 10.29,25.66 8.78,28.45 -2.42,4.42 -9.86,7.18 -19.83,10.88 -16.03,5.95 -39.44,14.65 -54.22,33.86 -3.26,4.24 -6.6,7.14 -9.83,9.93 -5.94,5.15 -11.47,9.95 -14.55,23.76 -1.42,6.39 -3.26,13.22 -6.4,18.6 -3.57,6.08 -8.68,10.31 -16.39,10.31 -14.8,0 -24.55,-9 -34.44,-18.15 -19.58,-18.1 -39.85,-36.81 -107.81,35.01 -8.43,8.9 -15.57,23.01 -19.39,37.58 -3.51,13.4 -4.2,27.03 -0.46,37.09 2.3,6.2 6.75,9.64 11.62,13.4 14.13,10.93 31.42,24.29 24.05,102.04 -0.69,7.29 -3.86,14.03 -7.06,20.85 -7.31,15.55 -14.86,31.64 15.9,52.91 13.21,9.14 20.56,16.34 26.27,21.95 11.89,11.65 16.07,15.76 59.38,15.78 1.44,-0.23 2.83,0.02 4.18,0.7 3.21,1.65 5.92,6.22 7.9,12.28 1.75,5.36 3.11,12.19 3.81,19.2 1.36,13.59 0.19,28.16 -5.31,35.04 -7.74,9.69 -13.68,26.11 -19.06,41.02 -5.51,15.25 -10.49,29.03 -17.01,34.28l-0.52 0.45c-5.53,4.98 -7.8,17.51 -7.27,30.8 0.55,13.6 4.1,27.68 10.14,35.31l0.85 0.99c2.74,3.05 4.43,7.44 6.26,12.19 3.12,8.12 6.77,17.58 16.91,18.81 19.24,2.35 27.66,29.31 32.98,46.33 0.97,3.12 1.84,5.9 2.61,7.99l2.79 7.66c4.21,11.62 5.13,14.14 13.41,29.66 0.35,0.65 0.88,1.93 1.5,3.44 0.68,1.64 1.5,3.63 2.15,4.99 33.55,-0.13 46.03,-3.28 72.49,-9.96 7.51,-1.9 16.16,-4.09 27.17,-6.66 3.28,-0.76 6.26,-1.63 9.08,-2.44 7.82,-2.24 14.51,-4.17 27.43,-4.17 34.76,0 54.38,9.61 76.11,20.26 16.17,7.92 33.58,16.45 59.62,21.76 50.06,10.22 54.16,7.84 65.46,1.26 7.42,-4.32 17.63,-10.26 41.99,-15.99 10.39,-2.44 18.2,-4.01 24.45,-5.26 10.75,-2.15 16.8,-3.37 22.27,-6.28 7.18,-3.81 14.26,-10.93 30.43,-27.14l4.82 -4.83c10.07,-10.08 19.13,-19.24 28.07,-28.42 9.05,-9.3 17.88,-18.54 27.32,-28.64 8.5,-9.09 29.76,-23.76 51.72,-33.14 10.96,-4.68 22.17,-8.11 32.19,-8.95 10.63,-0.91 20.06,1.06 26.76,7.32 2.6,2.41 4.75,5.45 6.34,9.19l6.21 14.34c2.48,5.66 3.67,8.39 4.66,11.35 0.92,2.76 1.58,5.4 2.82,10.46 1.05,4.29 2.54,10.33 4.79,18.97 1.34,5.14 2.27,9.1 3.08,12.53 2.41,10.25 3.54,14.99 6.46,16.45 3.05,1.52 9.11,1.25 20.36,0.77 7.75,-0.33 17.81,-0.76 30.46,-0.76l12.3 0.03c46.25,0.09 133.73,0.28 164.67,-7.78 22.2,-5.78 41.36,-37.06 56.05,-61.03l5.8 -9.38c13.4,-21.32 39.12,-31.74 67.98,-35.46 39.28,-5.07 84.66,2.26 111.88,11.19 8.75,2.86 24.67,19.88 42.56,38.99 20.07,21.45 42.72,45.66 58.58,53.9 42.7,22.2 52.49,14.82 73.46,-1.02 10.04,-7.59 22.47,-16.98 41.45,-26.22 14.96,-7.29 38.43,-10.32 62.15,-10.17 26.48,0.17 53.53,4.32 69.52,10.92 8.69,3.59 21.64,2.31 36.35,0.85 30.75,-3.04 68.74,-6.8 99.18,28.86 25.93,30.37 47.51,11.2 66.58,-5.75 10.95,-9.74 21.2,-18.84 31.99,-19.5 62.35,-3.83 80.55,26.94 107.54,72.6l0.65 1.09c4.86,8.22 10.97,13.69 17.78,16.9 8.05,3.8 17.2,4.55 26.54,3.06 9.56,-1.53 19.36,-5.42 28.43,-10.78 15.66,-9.26 29.05,-22.86 35.44,-36.4 5.69,-12.07 22.79,-21.83 41.16,-32.32 24.96,-14.25 52.48,-29.96 52.48,-52.33 0,-13.34 -0.34,-24.78 -0.65,-35.32 -1.7,-57.14 -2.64,-89.01 50.94,-137.43 1.66,-1.51 3.51,-2.98 5.48,-4.38 13.79,-9.73 34.41,-16.25 54.79,-16.69 20.66,-0.45 41.25,5.3 54.65,20.13 1.41,1.56 2.73,3.2 3.93,4.89 9.45,13.37 21.38,26.46 34.87,37.35 12.03,9.7 25.29,17.64 39.16,22.44 5.43,1.88 8.84,3.87 11.88,5.65 4.94,2.87 8.8,5.12 20.39,4.67 4.7,-0.18 27.74,3.51 46.35,7.79 13.36,3.07 24.86,6.73 27.1,10.07 2.38,3.54 5.6,6.11 8.9,8.75 10.81,8.6 22.55,17.96 20.7,61.7 -0.2,4.87 25.47,12.3 44.62,17.83 9.72,2.81 17.93,5.18 21.47,7.17 3.64,-8.8 14.29,-26.39 25.54,-42.92 12.89,-18.96 26.82,-37.01 32.14,-39.43 9.49,-4.33 16.5,-6.41 21.97,-8.03 13.6,-4.03 16.42,-4.87 27.02,-40.49 1.02,-3.44 1.94,-8.34 2.93,-13.72 3.4,-18.4 7.79,-41.96 22.58,-41.39l2.33 -0.24c7.2,-0.78 27,-2.92 33.76,-2.92l13.42 -0.06c32.57,-0.29 44.63,-0.4 77.82,19.67 2.56,1.54 9.18,3.58 16.19,5.32 7.92,1.97 16.15,3.49 19.59,3.49 37.83,0 41.98,-1.52 55.69,-6.55 6.33,-2.32 14.65,-5.37 28.9,-9.36l12.92 -3.73c8.92,-2.62 13.48,-3.97 18.38,-4.13 5.11,-0.17 9.81,0.95 19.37,3.23l10.89 2.57c5.62,1.28 9.08,2.6 12.19,3.77 5.39,2.04 9.66,3.67 23.99,3.67 21.97,0 44.6,-13.93 62.1,-24.7 12.1,-7.43 21.93,-13.48 28.87,-13.18 7.91,0.34 25.31,-2.5 40.73,-7.17 11.4,-3.47 21.52,-7.82 25.31,-12.38 4.01,-4.83 7.15,-8.4 10.08,-11.73 7.48,-8.51 13.77,-15.67 21.47,-27.95l1.55 -2.63c10.27,-18.35 11.82,-42.66 6.46,-65.14 -5.34,-22.44 -17.54,-42.94 -34.75,-53.72l-2.37 -1.41c-14.66,-8.2 -29.7,-15.38 -44.76,-22.58 -13.74,-6.56 -27.52,-13.15 -41.63,-20.84l-0.17 -0.09c-8.2,-4.6 -12.28,-15.05 -13.08,-26.39 -0.76,-10.82 1.44,-22.71 5.89,-30.86l0.22 -0.39c2.17,-3.87 8.57,-14.62 14.57,-22.64 3.16,-4.23 6.35,-7.83 9.11,-9.69 5.35,-17.92 12.44,-26.89 20.64,-37.27 6.87,-8.69 14.59,-18.47 22.7,-35.99 1.06,-2.31 3.22,-6.68 5.91,-12.09 8.78,-17.78 23.38,-47.33 23.96,-53.46l0.29 -3.02 2.97 -0.51c0.32,-0.05 1.91,-1.06 4.13,-2.48 7.01,-4.47 19.23,-12.24 36.27,-14.21 6.59,-0.76 32.47,-5.99 54.34,-11.3 14.65,-3.56 27.35,-7.1 30.71,-9.19 21.19,-13.2 31.07,-20.84 37.28,-25.63 4.99,-3.85 7.78,-6.01 12.05,-7.77 5.11,-2.11 11.77,-3.35 26.78,-6.11 8.5,-1.56 19.86,-3.67 36.46,-6.97l5.21 -1.03c42.53,-8.42 58.46,-11.58 93.78,-43.61 7.53,-6.83 17.54,-9.99 28.31,-13.4 23.68,-7.48 51.43,-16.25 56.94,-71.66 4.55,-45.78 7.62,-47.64 39.55,-66.86 3.98,-2.39 8.47,-5.09 14.02,-8.54 12.04,-7.5 36.57,-20.03 59.95,-29.74 17.23,-7.17 33.97,-12.85 44.89,-13.96l2.05 -1.12zm-2690.09 -865.87c10.25,-4.87 27,-11.67 46.45,-17.08 14,-3.89 29.43,-7.08 44.85,-8.31 5.82,-0.46 10.03,-6.21 14.77,-12.68 4.58,-6.25 9.6,-13.11 17.37,-17.8 6.86,-4.14 16.46,-3.38 26.44,0.47 10.4,4.01 21.49,11.49 30.12,20.11 2.85,2.83 6.05,4.81 9.39,6.03 5.17,1.89 10.8,2.02 16.07,0.73 5.31,-1.3 10.27,-4.04 14.09,-7.87 2.66,-2.67 4.78,-5.86 6.07,-9.42 2.38,-6.52 4.11,-15.61 5.94,-25.21 4.58,-24.1 9.77,-51.33 28.49,-56.54 30.05,-8.36 30.36,-8.35 50.82,-7.86 6.03,0.14 13.97,0.34 26.37,0.34 5.77,0 13.28,0.35 21.55,0.72 31.22,1.42 73.87,3.37 88.72,-11.46 9.91,-9.92 10.99,-14.01 11.73,-16.83 1.74,-6.65 2.27,-8.55 41.35,-26.09 11.17,-5.01 13.57,-8.81 15.38,-11.7 4.52,-7.2 6.56,-10.44 58.18,-10.44 13.95,0 27.89,4.87 40.52,12.69 13.84,8.57 26.14,20.72 35.05,33.8 23.14,33.96 51.42,31.54 76.22,29.42 18.13,-1.55 34.6,-2.97 47.38,8.47 9.4,8.42 14.18,12.73 18.55,18.62 4.3,5.81 8.01,12.89 15.29,26.85 2.31,4.4 9.01,8.03 17.09,10.81 12.1,4.17 26.9,6.25 35.92,6.56l0.2 0.01c10.48,0.41 22.8,14.05 32.25,29.89 9.2,15.42 16,33.26 15.7,42.68l-0.01 0.17c-1.14,29.33 11.62,29.99 28.48,30.86 22.57,1.16 51.33,2.64 69.72,53.1 2.11,5.82 2.98,19.93 1.73,32.81 -1.01,10.36 -3.43,20.24 -7.72,25.12 -13.55,15.43 -17.99,14.17 -27.12,11.58 -5.62,-1.6 -13.58,-3.86 -29.78,-0.3l-0.33 0.06c-12.88,2.96 -24.15,12.38 -31.82,22.81 -7.52,10.23 -11.53,21.16 -10.12,27.59l1.9 8.25c12.04,51.79 22.92,98.57 -17.91,149.08 -10.46,12.94 -23.41,22.65 -37.64,27.36 -13.28,4.38 -27.65,4.43 -42.16,-1.28 -40.33,-15.86 -43.29,-21.58 -47.34,-29.44 -2.09,-4.05 -4.55,-8.81 -15.96,-17.17l-0.97 -0.68c-13.94,-9.3 -36.24,-4.87 -57.38,4.9 -21.7,10.03 -41.92,25.62 -51.03,38.06l-1.02 1.45c-5.25,7.8 -20.78,17.44 -34.97,26.23 -8.91,5.53 -17.28,10.72 -21.68,14.54l-2.49 2.17 -2.58 -2.09c-1.46,-1.18 -2.99,-2.67 -4.62,-4.26 -2.9,-2.83 -6.23,-6.07 -9.74,-8.01 -6.62,-3.65 -15.09,-2.41 -26.05,17.46 -5.4,9.78 -24.29,27.47 -43.46,41.5 -16.74,12.26 -34.04,21.92 -43.5,21.6 -4.72,-0.16 -9.52,-0.47 -14.53,-0.8 -29.59,-1.93 -67.25,-4.39 -77.63,23.5 -1.52,4.1 -2.3,8.56 -3.04,12.81 -2.98,17.18 -5.57,31.89 -47.14,31.89 -3.71,0 -11.33,1.22 -20.62,2.71 -13.27,2.12 -29.9,4.79 -44.24,5.37 -19.09,0.77 -34.39,-2.31 -34.91,-15.03 -0.27,-6.73 -0.98,-12.82 -1.72,-19.21 -1.11,-9.62 -2.32,-19.95 -2.32,-34.83 0,-3.75 0.31,-9.4 0.67,-16.11 0.65,-12 1.49,-27.5 1.02,-42.43 -0.82,-26.42 -5.57,-51.47 -22.57,-50.94 -9.73,0.31 -21.56,-1.25 -30.92,-5.71 -7.83,-3.73 -14.07,-9.48 -16.33,-17.81l-2.24 -8.8c-2.53,-10.09 -6.66,-26.53 -11.07,-42.24 -2.76,-9.82 -3.48,-16.69 -4.01,-21.81 -1.05,-10.11 -1.22,-11.8 -25.13,-20.63 -1.8,-0.66 -28.49,-33.24 -48.06,-60.44 -11.83,-16.43 -21.4,-31.25 -22.07,-36.68 -1.34,-10.93 0.42,-27.22 2.34,-45.03 3.86,-35.81 8.43,-78.12 -10.63,-89.67 -2.83,-1.72 -5.64,-3.09 -8.1,-4.29 -11.02,-5.38 -16.49,-8.07 -15.03,-30.19 0.02,-0.38 -0.06,-0.84 -0.12,-1.23 -0.77,-4.54 -1.16,-6.84 15.61,-14.79z"/>
 </g>
</svg>
