<?xml version="1.0" encoding="UTF-8"?>
<!DOCTYPE svg PUBLIC "-//W3C//DTD SVG 1.1//EN" "http://www.w3.org/Graphics/SVG/1.1/DTD/svg11.dtd">
<!-- Creator: CorelDRAW 2019 (64-Bit) -->
<svg xmlns="http://www.w3.org/2000/svg" xml:space="preserve" width="70.461mm" height="61.7703mm" version="1.1" style="shape-rendering:geometricPrecision; text-rendering:geometricPrecision; image-rendering:optimizeQuality; fill-rule:evenodd; clip-rule:evenodd"
viewBox="0 0 2474.66 2169.43"
 xmlns:xlink="http://www.w3.org/1999/xlink"
 xmlns:xodm="http://www.corel.com/coreldraw/odm/2003">
 <defs>
  <style type="text/css">
   <![CDATA[
    .fil0 {fill:#EF7F1A}
   ]]>
  </style>
 </defs>
 <g id="Vrstva_x0020_1">
  <metadata id="CorelCorpID_0Corel-Layer"/>
  <path id="Obrys" class="fil0" d="M2182.48 1240.14c-0.63,-2.09 -3.55,-11.66 -4.89,-12.49 -20.13,-12.56 -23.66,-23.55 -26.16,-31.33 -0.97,-3.02 -1.76,-5.48 -3.37,-7.01 -10.15,-9.62 -16.52,-19.87 -22.15,-28.94 -5.11,-8.24 -9.61,-15.48 -15.63,-19.99 -10.6,-7.94 -14.27,-21.34 -18.01,-34.97 -3.62,-13.23 -7.31,-26.7 -17.56,-34.37 -5.32,-3.98 -6.93,-14.61 -8.73,-26.43 -2.25,-14.83 -4.83,-31.74 -14.56,-36.33 -10.14,-4.79 -20.32,-15.45 -27.76,-27.68 -7.35,-12.08 -12.12,-25.81 -11.64,-37.05 0.77,-18 -3.32,-18.71 -7.59,-19.45 -6.58,-1.14 -13.47,-2.34 -13.47,-25.73 0,-22 2.42,-23.8 4.63,-25.42 0.41,-0.31 0.81,-0.6 1.15,-2.6 3.38,-19.93 12.83,-27.55 21.3,-34.38 6.76,-5.46 12.85,-10.37 13.76,-21.66 4.19,-52.45 11.18,-54.5 21.86,-57.62 5.44,-1.59 12.06,-3.53 20.16,-16.55 3.41,-5.48 3.12,-14.73 2.83,-24.2 -0.43,-13.87 -0.87,-28.18 9.66,-35.19 6.1,-4.06 17.75,-16.35 26.47,-25.55 3.11,-3.27 5.84,-6.16 7.98,-8.29 20.94,-20.9 22.2,-38.32 23.39,-54.58 0.85,-11.65 1.66,-22.75 9,-34.32l1.43 -2.1c10.71,-14.8 27.23,-16.98 44.55,-13.22 16.73,3.64 34.21,12.88 47.66,21.42 4.63,2.94 8.83,5.84 12.35,8.39 18.44,13.35 27.29,12.68 32.27,5.82 3.84,-5.3 5.91,-14.22 8.08,-23.55 3.11,-13.38 6.4,-27.52 15.65,-35.03 8.89,-7.23 15.6,-12.96 22.17,-18.99 6.6,-6.06 12.99,-12.36 21.25,-20.72 7.9,-8 19.51,-12.45 29.66,-16.34 8.49,-3.25 15.91,-6.1 18.26,-9.88 10.22,-16.41 11.55,-16.58 15.25,-17.05 1.38,-0.17 3.31,-0.42 7.93,-3.71 6.9,-4.92 13.33,-9.42 19.99,-13.72 6.18,-3.98 12.63,-7.82 19.92,-11.7 -0.77,-5.4 -0.77,-17.16 -0.19,-28.15 0.64,-12.09 2.08,-23.62 4.11,-25.65 1.64,-1.63 1.22,-14.44 0.87,-24.97 -0.12,-3.76 -0.24,-7.27 -0.24,-9.66 0,-6.27 -1.57,-10.06 -2.72,-12.83 -0.83,-2 -1.49,-3.6 -1.49,-5.42 0,-1.82 -0.86,-5.57 -2.58,-8.74 -1.07,-1.97 -2.46,-3.65 -4.08,-4.22 -2,-0.71 -3.02,-1.62 -4.1,-2.6 -2.14,-1.92 -4.73,-4.26 -23.1,-4.26 -13.5,0 -23.65,-1.03 -30.55,-3.96 -7.61,-3.22 -11.38,-8.55 -11.38,-16.92 0,-12.82 3.47,-18.18 8.67,-26.2l2.96 -4.65c2.22,-3.6 2.1,-14.26 0.97,-26.29 -1.82,-19.3 -6.33,-41.62 -8.15,-45.64 -1.59,-3.5 -5.94,-11.09 -9.99,-17.62 -3.49,-5.64 -6.53,-10.37 -6.86,-10.5 -0.79,-0.33 -1.36,-0.81 -2.1,-1.46 -1.9,-1.68 -5.65,-4.95 -16.64,-5.36 -8.12,-0.3 -21.88,-8.08 -34.16,-16.21 -12.08,-8 -22.75,-16.33 -24.93,-18.03 -2.81,-2.21 -27.97,-21.28 -47.91,-34.96 -10.55,-7.24 -19.54,-12.95 -22.64,-13.68 -4.73,-1.12 -18.74,0.06 -35.5,1.45 -15.74,1.32 -33.9,2.83 -49.52,2.83 -26.71,0 -40.29,-10.93 -54.93,-22.72 -3.62,-2.92 -7.31,-5.89 -11.18,-8.67 -12.37,-8.9 -17.84,-9.1 -22.64,-9.26 -2.89,-0.1 -5.57,-0.2 -9.11,-1.66 -4.08,-1.69 -20.91,-1.91 -37.7,-1.3 -17.79,0.65 -35.18,2.08 -36.64,3.54 -1.7,1.69 -7.75,5.32 -14.61,9.12 -9.96,5.53 -21.88,11.62 -24.21,12.52 -2.28,0.87 -12,5.23 -19.32,8.89l-7.21 3.56c-0.57,1.58 -1,1.98 -3.84,4.62 -2.21,2.06 -6.18,5.76 -13.63,13.21 -7.49,7.49 -13.27,14.54 -17.13,24.75 -3.92,10.35 -5.96,24.1 -5.96,44.98 0,35.84 32.39,55.03 45.14,62.59 1.83,1.09 3.29,1.95 4.26,2.63 3.55,2.47 11.87,11.16 20.64,20.32 10.68,11.15 22.07,23.05 25.17,24.33 2.99,1.23 6.34,4.64 9.5,8.7 4.8,6.17 9.42,14.08 11.45,17.7 2.1,3.74 4.06,18.8 2.95,31.73 -0.78,9.1 -3.09,17.42 -7.94,20.84 -4.8,3.39 -5.78,5 -6.74,6.58 -1.18,1.95 -2.36,3.89 -7.27,7.43 -5.71,4.12 -10.04,4.91 -14.51,5.72 -2.99,0.54 -6.06,1.11 -9.71,2.93 -6.4,3.19 -13.79,4.23 -18.58,4.89l-3.52 0.5c-1.14,0.8 -10.75,2.79 -20.54,4.47 -9.29,1.6 -18.96,3.04 -21.7,3.04 -2.57,0 -16.61,6.22 -30.23,13.19 -11.14,5.71 -21.82,11.88 -25.46,15.52 -6.27,6.26 -9.95,8.45 -13.31,10.44 -1.33,0.79 -2.61,1.55 -3.86,2.45 -2.39,1.72 -9.52,11.55 -15.47,19.76 -4.67,6.44 -8.67,11.96 -10.08,12.71 -0.71,0.38 -8.8,9.09 -16.38,17.24 -6.61,7.12 -12.86,13.84 -14.16,14.83l-3 2.38c-6.94,5.54 -22.31,17.81 -25.25,17.81 -0.34,0 -4.48,2.74 -9.51,6.17 -8.56,5.83 -18.92,13.32 -19.17,13.69 -0.76,1.16 -7.01,3.3 -13.61,5.56 -6.35,2.17 -13.07,4.47 -13.73,4.95 -1.34,0.97 -5.24,1.29 -10.36,1.71 -7.49,0.61 -17.94,1.47 -23.94,3.86 -5.3,2.11 -10.99,4.26 -16.3,6.01 -5.46,1.8 -10.74,3.26 -15.12,3.97 -3,0.49 -5.11,1.2 -7.13,1.88 -3.6,1.22 -7,2.37 -14.35,2.37 -10.51,0 -13.66,-2.66 -21.73,-9.47l-4.5 -3.76c-5.19,-4.24 -14.56,-8.22 -24.27,-11.03 -10.27,-2.97 -20.82,-4.61 -27.09,-3.84 -7.78,0.96 -9.18,1.7 -10.26,2.28 -0.92,0.48 -1.71,0.89 -3.67,1.21 -1.88,0.3 -4.44,1.64 -7.17,3.07 -2.74,1.43 -5.65,2.96 -8.63,3.86 -2.12,0.65 -6.73,3.67 -11.56,7.17 -6.88,4.99 -14,10.81 -15.24,12.33 -1.39,1.69 -8.3,8.09 -14.79,13.7 -5.06,4.37 -9.96,8.35 -12,9.42 -1.83,0.96 -7.49,5.19 -13.01,9.52 -5.91,4.63 -11.53,8.5 -11.55,8.71 -0.13,1.69 -4.83,4.7 -10.88,8.59 -7.12,4.57 -16.38,10.52 -20.96,14.28 -4.01,3.3 -7.36,6.6 -10.43,10.08 -3.11,3.53 -5.89,7.19 -8.76,11.18 -4.96,6.9 -6.53,17.72 -7.09,21.67l-0.15 1.04c-0.29,1.81 -1.26,4.17 -2.24,6.59 -0.83,2.03 -1.68,4.12 -2.01,5.56 -0.48,2.03 -3.88,8.25 -7.4,13.94 -3.34,5.41 -6.95,10.55 -8.49,11.53l-1.43 0.89c-2.45,1.53 -5.81,3.62 -7.25,5.06 -1.87,1.87 -7.72,3.89 -12.22,5.43 -1.7,0.57 -3.19,1.09 -4.09,1.46 -2.13,0.88 -19.4,1.81 -35.71,1.81 -11.71,0 -23.11,-0.45 -28.35,-1.68 -4.85,-1.14 -12.45,-1.93 -20.74,-2.46 -11.56,-0.74 -24.53,-0.97 -33.41,-0.97 -6.45,0 -6.11,-2.69 -6.24,-1.61 -0.15,1.17 -0.38,2.76 -5.97,3.67 -7.38,1.2 -15.56,5.23 -26.39,10.56l-3.76 1.84c-6.59,3.22 -12.02,5.61 -17.15,7.49 -5.19,1.9 -10.13,3.34 -15.69,4.64 -8.24,1.93 -13.52,0.79 -17.42,-0.07 -1.39,-0.3 -2.58,-0.56 -3.52,-0.56 -4.02,0 -6.07,-1.82 -7.29,-2.9 -0.12,-0.1 0.19,-0.03 -0.01,-0.11 -0.68,-0.28 -2.36,-1.74 -4.3,-3.56 -2.67,-2.5 -6.26,-6.01 -7.8,-7.54 -1.42,-1.42 -7.44,-1.38 -12.84,-1.35l-2.15 0.01c-2.15,0.01 -5.23,0.64 -8.33,1.46 -5.35,1.43 -10.57,3.39 -11.55,3.87 -1.38,0.69 -2.7,1.37 -4.1,2 -3.35,1.49 -12.51,5.57 -17.29,9.01 -2.79,2.01 -10.17,5.7 -17.95,9.59 -9.52,4.76 -19.67,9.84 -21.73,11.9 -3.14,3.14 -11.27,5.01 -18.13,6.58 -3.79,0.87 -7.16,1.65 -8.52,2.33 -4.25,2.13 -27,1.86 -38.35,1.72l-4.93 -0.05c-2.93,0.01 -8.41,1.4 -13.69,3.11 -5.99,1.95 -11.51,4.2 -12.49,5.22 -1.36,1.42 -3.75,4.05 -5.75,6.5 -1.33,1.63 -2.46,3.15 -2.93,4.08 -0.77,1.54 -2.3,3.07 -3.99,4.77 -1.96,1.96 -4.2,4.21 -5.05,6.29 -0.68,1.65 -1.62,3.07 -2.5,4.42 -1.31,1.99 -2.51,3.82 -1.77,5.4 1.16,2.48 1.72,5.89 1.72,9.28 0,3.47 -0.58,7.05 -1.67,9.68 -1.4,3.38 -1.29,18.66 -1.23,28.2l0.02 4.46c0.01,4.01 -0.96,8.88 -2.26,13.28 -1.64,5.58 -3.9,10.6 -5.41,12.32 -0.96,1.1 -4.68,9.69 -8.34,18.17 -3.4,7.87 -6.77,15.66 -8.27,18 -1.44,2.25 -2.19,4.61 -3.19,7.78 -0.85,2.66 -1.87,5.86 -3.61,10.06 -3.41,8.25 -8.91,16.92 -15.32,24.14 -6.02,6.77 -12.92,12.34 -19.79,15.19 -2.52,1.04 -4.17,1.9 -5.49,2.59 -4.92,2.57 -6.17,3.23 -24.99,3.23 -17.67,0 -46.13,-15.38 -66.98,-26.65 -8.14,-4.4 -15.12,-8.17 -19.64,-10.05 -7.96,-3.3 -18.42,-4.76 -28.34,-4.25 -9.41,0.48 -18.25,2.71 -23.86,6.76 -6.1,4.4 -11.06,8.32 -15.64,12.29 -4.58,3.97 -8.83,8.03 -13.52,12.71 -3.64,3.63 -7.19,8.15 -10.22,12.48 -4.61,6.58 -8.01,12.67 -8.86,14.73 -0.39,0.96 -1.4,2.99 -2.74,5.69 -4.38,8.84 -12.49,25.2 -12.49,29.8 0,4.25 -2.52,12.01 -6.32,17.88 -3.09,4.78 -7.15,8.48 -11.68,8.61 -4.11,0.12 -12.57,-0.21 -21.99,-0.59 -9.7,-0.38 -20.45,-0.81 -28.61,-0.81 -9.57,0 -25.18,5.65 -36.41,9.73 -6.67,2.42 -11.9,4.31 -14.12,4.31 -2.57,0 -11.67,10.31 -16.85,16.17 -1.8,2.03 -3.16,3.58 -3.86,4.2 -1.32,1.18 -5.9,7.68 -9.37,14.28 -2.14,4.05 -3.78,8.02 -3.78,10.44 0,4.92 -11.46,27.26 -21.1,46.05 -6.73,13.1 -12.54,24.44 -12.59,25.64 -0.12,2.68 -6.46,12.67 -13.06,21.71 -6.57,8.99 -13.81,17.31 -16.23,17.31 -1.97,0 -7.77,2.52 -11.77,4.26l-2.64 1.13c-2.53,1.04 -12.3,3.31 -19.74,5.03l-8.19 1.92c-0.87,0.44 -8.39,1.49 -18,2.82 -9.78,1.36 -21.8,3.03 -30.47,4.44 -7.27,1.18 -21.38,2.11 -36.89,2.8 -22.05,0.97 -46.84,1.46 -58.98,1.46 -13.65,0 -19.04,1.21 -22.61,2.01 -2.01,0.45 -3.53,0.79 -5.46,0.79 -1.39,0 -4.37,5.17 -7.2,11.61 -3.11,7.06 -5.61,15.46 -5.61,20.84 0,6.36 -0.65,17.07 -1.82,27.92 -0.96,8.85 -2.27,17.82 -3.86,24.61 -1.48,6.29 -1.99,11.33 -2.4,15.42 -0.59,5.93 -1.01,10.1 -3.72,13.64 -1.14,1.5 -2.51,3.16 -4,4.99 -4.21,5.15 -9.51,11.62 -11.11,15.47 -1.4,3.4 -4,6.31 -6.49,9.1 -2.01,2.25 -3.94,4.41 -4.74,6.34 -1.82,4.4 -10.89,13.02 -16.68,18.51l-3.54 3.41c-2.42,2.42 -3.67,2.79 -4.96,3.16 -0.71,0.21 -1.46,0.43 -3.47,2.44 -1.58,1.59 -5.35,2.6 -10.21,3.09 -4.59,0.47 -10.38,0.57 -16.23,0.34 -5.35,5.26 -5.07,10.07 -4.67,17.09 0.16,2.83 0.34,5.99 0.24,9.73 -0.18,6.41 3.74,17.96 10.08,27.22 4.69,6.86 10.66,12.33 17.09,13.12 3.06,0.38 4.74,1.07 6.54,1.81 2.84,1.17 6.08,2.5 18.89,2.5 13.27,0 22.2,-0.35 28.83,-0.61 8.86,-0.35 13.77,-0.54 18.65,0.44 6.08,1.23 11.45,4.14 23.48,10.67l11.69 6.3c8.35,4.45 28.33,1.08 46.99,-2.07 20.14,-3.39 38.85,-6.55 43.38,0.94 3.11,5.15 5.62,14.84 7.37,25.27 2.12,12.69 3.17,26.65 2.82,34.79 -0.2,4.86 5.25,6.73 13.16,7.07 10.73,0.46 25.6,-1.98 38.5,-4.09 9.98,-1.64 18.81,-3.08 24.04,-2.91 11.79,0.4 23.03,-1.78 33.68,-3.85 20.58,-3.99 39.08,-7.58 56.72,7.4 49.1,41.68 37.84,60.24 24.67,81.94 -5.31,8.75 -10.96,18.06 -12.4,29.74 -0.65,5.26 -1.6,10.93 -2.58,16.74 -3.7,22.01 -7.79,46.36 2.64,65.92 17.02,31.91 18.67,42.18 21.62,60.57 1.28,7.99 2.82,17.59 6.09,31.43 6.12,25.98 6.32,39.35 6.6,58.55 0.09,6.7 0.21,14.14 0.6,23.23 0.03,0.74 3.02,2.28 7.14,4.4 8.55,4.4 21.07,10.84 27.38,25.17 6.6,14.98 11.94,28.46 11.5,40.81 -0.46,12.71 -6.91,23.88 -24.04,33.57 -16.89,9.54 -24.63,18.39 -24.86,27.57 -0.24,9.31 7.08,19.51 20.28,31.56l4.56 4.12c12.74,11.41 28.02,25.1 29.7,40.01 5.04,-0.15 11.46,-0.72 17.89,-1.29 7.7,-0.68 15.42,-1.36 21,-1.36l5.7 -0.12c10.23,-0.3 27.16,-0.79 31.81,2.44 5.06,3.52 8.58,6.44 11.78,9.66 3.19,3.21 6,6.64 9.68,11.21 1.14,1.41 3.42,3.62 5.82,5.24 1.5,1.01 2.96,1.76 3.95,1.76 0.42,0 1.03,0.12 1.87,0.28 1.51,0.29 4.03,0.77 6.46,0.77 6.14,0 11.25,-0.48 16.05,-1.78 4.77,-1.29 9.32,-3.4 14.38,-6.66 0.68,-0.43 1.22,-0.61 1.75,-0.68 3.99,-10.48 14,-20.63 25.68,-28.34 13.34,-8.8 29.03,-14.54 40.54,-14.05 6.16,0.26 16.54,-4.66 26.06,-11.48 9.14,-6.55 17.31,-14.75 20.03,-21.7 3.42,-8.76 4.51,-15.08 5.39,-20.21 0.65,-3.8 1.2,-7 2.47,-10.2 3.13,-7.88 2.51,-12.73 1.92,-17.3 -1.38,-10.69 -2.57,-19.99 32.5,-54.04l8.81 -8.59c19.25,-18.82 28.87,-28.22 41.44,-32.73 12.47,-4.47 27.16,-3.84 56.46,-2.59l14.05 0.58c4.58,0.18 11.92,-3.52 18.84,-8.71 7.04,-5.28 13.48,-12.03 16.08,-17.81 5.98,-13.28 19.23,-29.38 34.5,-41.36 13.22,-10.37 28.06,-17.75 41.25,-17.75 4.6,0 8.39,-0.13 11.9,-0.24 14.52,-0.48 24.81,-0.83 39.99,7.34 4.48,2.41 13.15,-0.8 23.27,-4.56 10.27,-3.81 21.96,-8.15 33.51,-8.15 18.02,0 33.53,-19.14 49.19,-38.47 21.42,-26.44 43.13,-53.23 73.93,-36.65 13.59,7.31 20.52,15.98 25.46,22.14 1.93,2.4 3.53,4.4 5,5.62 3.82,3.17 8.3,0.21 23.22,-17.78 22.52,-27.15 39.8,-32.54 59.92,-38.82 13.08,-4.08 27.43,-8.56 45.28,-19.99l0.85 -0.54c16.17,-10.35 43.41,-27.79 46.62,-47.47 2.56,-13.88 8.43,-34.05 12.56,-48.07 1.13,-2.96 1.39,-7.05 1.66,-11.31 0.84,-13.38 1.78,-28.33 26.04,-28.33 11.35,0 27.04,2.48 42.93,6.02 19.05,4.24 38.43,10.02 50.89,14.86 2.22,0.86 11.41,1.57 22.05,2.4 16.44,1.27 36.24,2.81 42.08,6.2 5.1,2.96 19.04,3.83 33.65,3.17 15.47,-0.7 31.46,-3.14 38.5,-6.62 5.04,-2.5 9.21,-4.71 12.62,-6.53 6.85,-3.64 10.77,-5.72 15.62,-6.7 6.33,-1.29 13.49,-0.48 30.19,1.38l7.59 0.93c18.02,2.29 32.25,4.09 50.66,-10.97 5.81,-4.76 20.35,-10.64 35.73,-15.34 15.69,-4.79 32.41,-8.43 41.73,-8.43 4.23,0 8.98,0.27 13.89,0.54 18.72,1.05 39.97,2.25 49.95,-11.7 2.96,-4.15 5.46,-6.98 7.53,-9.32 5.23,-5.94 7.42,-8.43 7.42,-24.61l0 -0.4 0.13 -0.41c0.81,-2.48 1.7,-4.5 2.54,-6.43 1.3,-2.96 2.5,-5.7 2.94,-9.21 0.25,-2.05 0.74,-4.33 1.25,-6.72 1.25,-5.82 2.64,-12.37 0.64,-17.23 -1.16,-2.81 -2.58,-5.66 -3.98,-8.5 -3.68,-7.43 -7.33,-14.79 -7.62,-23.66 -0.03,-1.08 -0.25,-2.5 -0.5,-4.14 -0.43,-2.86 -0.97,-6.38 -0.97,-10.95 0,-3.18 -0.08,-5.61 -0.15,-7.86 -0.44,-13.84 -0.67,-21.16 14.17,-30.73 2.81,-1.81 9.29,-1.96 15.86,-1.09 6.74,0.9 13.85,2.85 17.26,5.15 5.29,3.57 8.76,7.8 11.78,11.5 3.47,4.24 6.3,7.7 10.37,7.7 1.59,0 4.06,-7.83 7.08,-17.44 5.46,-17.39 12.53,-39.87 28.09,-40.85 6.32,-0.4 11.16,-0.27 15,-0.17 12.24,0.32 13.01,0.34 26.84,-25.02 7.31,-13.41 13.51,-38.86 17.89,-56.84l1.69 -6.9c1.44,-5.8 2.79,-11.38 3.77,-16.99 0.95,-5.42 1.56,-10.89 1.58,-16.67z"/>
 </g>
</svg>
