<?xml version="1.0" encoding="UTF-8"?>
<!DOCTYPE svg PUBLIC "-//W3C//DTD SVG 1.1//EN" "http://www.w3.org/Graphics/SVG/1.1/DTD/svg11.dtd">
<!-- Creator: CorelDRAW 2019 (64-Bit) -->
<svg xmlns="http://www.w3.org/2000/svg" xml:space="preserve" width="60.7367mm" height="55.7372mm" version="1.1" style="shape-rendering:geometricPrecision; text-rendering:geometricPrecision; image-rendering:optimizeQuality; fill-rule:evenodd; clip-rule:evenodd"
viewBox="0 0 8832.16 8105.15"
 xmlns:xlink="http://www.w3.org/1999/xlink"
 xmlns:xodm="http://www.corel.com/coreldraw/odm/2003">
 <defs>
  <style type="text/css">
   <![CDATA[
    .fil0 {fill:#AB8082}
   ]]>
  </style>
 </defs>
 <g id="Vrstva_x0020_1">
  <metadata id="CorelCorpID_0Corel-Layer"/>
  <path class="fil0" d="M3984.87 8052.99c3.08,3.62 4.65,5.53 6.6,17.16l11.11 0.15c19.83,0 21.29,-0.8 22.16,-1.5 2.22,-1.89 4.38,-3.65 10.47,-4.65 112.07,-18.37 143.89,-0.22 175.79,18.02 20.07,11.47 40.27,22.99 86.48,22.99 127.28,0 139.14,-24.43 170.05,-88.15 5.69,-11.74 12,-24.74 19.98,-39.71 35.57,-66.72 65.82,-66.24 115.24,-65.47l15.85 0.12c10.15,0 35.06,21.25 62.28,48.85 32.2,32.63 69.63,74.93 87.85,98.91 8.83,11.62 18.73,18.99 29.2,23.03 17.09,6.6 36.44,4.58 55.64,-2.17 20.27,-7.13 40.38,-19.49 57.85,-32.78 29.67,-22.54 51.13,-46.64 53.54,-52.87 23.95,-61.96 27.86,-67.28 47.67,-94.32 7.18,-9.82 16.55,-22.57 29.04,-41.01 39.42,-58.14 51.29,-62.08 64.81,-66.57 5.18,-1.75 10.76,-3.62 20.58,-12.48 5.26,-4.74 13.67,-6.22 25.55,-8.27 33.32,-5.79 100.82,-17.57 155.44,-113.37 9.77,-17.16 17.54,-32.17 24.05,-44.77 16.98,-32.85 26.34,-50.91 47.22,-60.1 23.89,-10.51 58.85,-6.19 136.2,3.36l18.9 2.33c36.47,4.32 85.48,6.57 126.34,-3.91 38.4,-9.84 69.7,-31.35 74.93,-74.09l0.04 -0.23c6.78,-57.37 20.49,-89.77 46.75,-107.81 25.88,-17.8 62.21,-20.23 115.08,-18.15 63.62,2.5 83.14,-42.39 100.86,-83.21 15.02,-34.59 29,-66.72 64.61,-73.99 44.74,-9.15 86.99,0.45 124.67,20.53 45.82,24.42 84.91,64.51 113.5,104.9 5.55,7.79 11.74,14.79 18.38,20.94 30.3,28.05 72.23,41.24 114.34,41.94 42.39,0.7 84.81,-11.17 115.82,-33.13 7.59,-5.41 14.47,-11.34 20.39,-17.74 18.45,-19.97 58.15,-27.99 101.49,-28.78 55.49,-1 118.41,9.61 147.9,21.78 49.63,20.5 72.33,16.84 96.85,12.9 13.12,-2.09 26.74,-4.29 44.72,-3.59 90.29,3.55 134.34,-47.17 176.71,-96 27.88,-32.12 55.13,-63.5 94.13,-80.63 0.76,-12.1 3.2,-24.52 5.66,-37.07 2.84,-14.41 5.71,-29.07 5.71,-42.72 0,-35.39 21.9,-59.98 52.12,-76.59 41.15,-22.63 98.46,-30.19 133.16,-30.19 31.06,0 44.45,-3.42 56.84,-6.56 8.58,-2.18 16.78,-4.28 29.48,-5.29 12.4,-0.99 24.92,-7.23 34.65,-12.07 4.07,-2.02 7.72,-3.85 11.72,-5.38 18.56,-7.13 57.7,-43.19 90.1,-73.04 24.92,-22.96 46.11,-42.51 55.37,-45.36 59.88,-18.48 88.41,-38.83 133.68,-71.12l17.71 -12.59c60.04,-42.42 74.13,-61.45 107.32,-106.29l24.01 -32.11c15.14,-19.88 17.35,-46.8 12.03,-73.6 -6.76,-34.01 -25.46,-67.42 -45.82,-87.12 -21.32,-20.63 -35.32,-48.76 -48.47,-75.17 -6.67,-13.45 -13.13,-26.45 -19.88,-37.07 -4.46,-6.7 -6.75,-13.06 -8.97,-19.28 -2.63,-7.45 -5.26,-14.76 -12.19,-20.53 -16.32,-13.6 -26.1,-29.61 -30.71,-46.84 -6.03,-22.6 -3.1,-47.01 5.61,-70.73 8.41,-22.95 22.32,-45.4 38.55,-64.86 25.72,-30.81 57.88,-54.58 84.18,-61.61 15.09,-4.04 26.55,-11.58 35,-21.48 15.11,-17.68 21.38,-43.45 22.23,-71.07 0.9,-28.71 -4.06,-59.32 -11.07,-85.49 -8.38,-31.26 -19.05,-55.21 -25.68,-60.87 -79.35,-67.71 -70.22,-145.64 -59.78,-234.57 3.62,-31 7.45,-63.46 7.45,-97.15 0,-35.67 15.68,-65.16 39.95,-86.2 25.88,-22.44 61.64,-35.12 98.33,-35.12 58.15,0 78.7,-9.84 78.7,-25.27 0,-21.54 -29.99,-56.35 -61.12,-92.51 -31.88,-37.02 -64.91,-75.41 -72.68,-108.6 -14.06,-60.14 -15.21,-92.59 0.99,-115.36 16.11,-22.7 46.96,-32.5 97.81,-48.61 31.28,-9.92 67.08,-149.88 78.79,-195.69l1.11 -4.32c12.23,-47.45 50.36,-77.13 81.93,-101.72 13.35,-10.43 25.49,-19.89 32.79,-28.47 31.44,-37.04 70.45,-35.85 93.43,-35.15l10.08 0.47c38.93,-24.97 81.9,-24.84 125.19,-24.72 47.93,0.15 96.43,0.29 136.3,-36.99 31.74,-29.72 25.68,-162.82 21.74,-249.41 -1.06,-23.38 -1.99,-43.54 -1.99,-56.99 0,-155.51 -23.99,-205.26 -52.84,-265.04 -18.56,-38.46 -39.06,-80.98 -56.77,-156.24 -13.2,-56.13 -13.1,-63.98 -12.62,-104.45l0.2 -32.69c0,-15.71 11.47,-51.04 25.59,-87.08 17.49,-44.64 39.51,-91.44 48.57,-102.71 25.29,-31.48 29.11,-53.94 31.82,-69.95 1.54,-9.16 2.84,-16.65 6.92,-23.66 18.02,-30.92 24.58,-77.41 30.99,-122.96 9.54,-67.87 18.85,-133.87 65.93,-155.17 61.51,-27.83 53.66,-85.17 45.78,-142.65 -2.85,-20.79 -5.71,-41.66 -5.71,-61.44 0,-96.64 -44.21,-131.65 -94.68,-171.61 -15.76,-12.46 -32.12,-25.42 -48.25,-40.89l-4.07 -3.91 0.89 -5.58c2.75,-17.44 31.24,-113.89 59.1,-186.74 13.15,-34.38 26.71,-64.09 38.49,-79.57 -32.37,-26.45 -88.62,-55.9 -144.92,-85.36 -82.6,-43.23 -165.47,-86.63 -181.07,-125.83 -42.52,-106.71 -121.99,-108.9 -196.37,-110.94 -44.92,-1.21 -88.21,-2.41 -123.26,-24.28 -72.29,-45.08 -97.1,-88.49 -128.84,-144.08 -9.55,-16.74 -19.79,-34.68 -32.44,-54.39 -38.45,-59.96 -139.6,-99.44 -208.89,-126.45 -36.63,-14.28 -64.9,-25.33 -74.02,-36.12 -16.68,-19.73 -49.5,-26.93 -85.75,-34.87 -53.7,-11.76 -114.4,-25.06 -152.78,-82.34 -64.35,-96.06 -130.7,-103.96 -219.84,-114.52 -29.39,-3.48 -61.22,-7.26 -96.92,-14.56 -181.39,-37.1 -230.34,-102 -261.52,-143.32 -11.78,-15.62 -20.71,-27.45 -32.95,-31.28 -20.17,-6.28 -50.31,-18.7 -85.87,-33.33 -130.21,-53.54 -336.44,-138.41 -382.84,-58.79 -22.66,38.9 -71.44,89.81 -90.65,109.88 -4.04,4.22 -5.7,5.22 -6.15,6.06l-0.09 0.17c-27.66,49.25 -33.87,50.87 -43.19,53.18 -2.57,0.65 -5.73,1.45 -14.11,10.15 -74.58,77.41 -120.46,111.9 -169.43,111.64 -48.76,-0.26 -96.63,-35.02 -176.26,-96.08 -26.31,-20.18 -60.41,-39.03 -95.58,-58.47 -93.02,-51.42 -193.51,-106.98 -193.51,-207.9 0,-82.28 -20.26,-95.18 -54.53,-116.97 -10.18,-6.47 -21.49,-13.67 -34.17,-23.51 -82.04,-63.68 -130.9,-63.98 -171.65,-64.22 -56.12,-0.32 -98.56,-0.58 -177.7,-131.05 -48.6,-80.14 -89.94,-87.57 -127.81,-94.33 -22.07,-3.9 -43.16,-7.69 -64.52,-23.01 -32.44,-23.22 -49.78,-53.25 -58.27,-67.98l-3.07 -5.45c-17.35,-15.6 -35.13,-35.71 -53.48,-56.48 -36.05,-40.77 -74.54,-84.3 -112.55,-96.16 -118.66,-37.02 -121.64,-42.91 -128.59,-56.67 -2.72,-5.39 -6.41,-12.69 -34.33,-30.2 -50.42,-31.6 -329.65,-29.83 -449.28,-29.07l-35.93 0.22c-85.71,0 -116.26,-47.14 -141.33,-85.87 -15.07,-23.25 -27.83,-42.91 -50.05,-42.04 -124.88,4.93 -167.32,-45.53 -215.55,-102.94 -30.28,-36.01 -63.04,-74.99 -122.37,-103.03l-8.9 4.84 -2.18 0.17c-27.69,2.3 -72.71,17.6 -119.61,37.1 -63.37,26.34 -129.76,60.23 -162.3,80.49l-38.97 23.73c-79.6,47.96 -87.29,52.6 -98.75,168 -16.65,167.3 -100.6,193.84 -172.23,216.47 -27.4,8.65 -52.87,16.71 -70.05,32.3 -101.97,92.51 -147.55,101.54 -269.3,125.64l-14.38 2.85c-42.48,8.45 -75.86,14.63 -100.91,19.24 -39.86,7.34 -57.56,10.63 -69.57,15.59 -9,3.71 -15.89,9.04 -28.24,18.57 -17.6,13.58 -45.59,35.21 -104.66,72.01 -11.4,7.11 -48.76,17.73 -91.16,28.02 -61.16,14.85 -133.91,29.51 -152.62,31.67 -42.17,4.87 -73.16,24.6 -90.93,35.92 -4.57,2.91 -8.42,5.35 -11.79,7.13 -7.69,28.56 -44.15,102.33 -66.86,148.33 -7.23,14.61 -13.07,26.41 -16.04,32.85 -23.4,50.55 -45.62,78.66 -65.39,103.7 -21.77,27.56 -40.51,51.29 -54.3,99.7l-1.54 5.42 -5.37 1.86c-3.94,1.37 -11.76,10.53 -20.46,22.18 -16,21.43 -32.98,49.91 -38.7,60.07l-0.55 0.95c-10.32,18.99 -15.4,47.16 -13.57,73.17 1.73,24.6 9.58,46.72 24.9,55.35l0.35 0.22c37.11,20.24 75.57,38.62 113.89,56.92 41.69,19.91 83.28,39.77 124.78,63.01l7.49 4.46c52.57,32.97 89.61,94.61 105.57,161.66 15.97,66.96 11.1,139.85 -20.04,195.47l-4.87 8.17c-22.35,35.67 -40.14,55.91 -61.29,79.98 -8.88,10.11 -18.37,20.9 -27.5,31.88 -13.55,16.33 -45.28,30.52 -80.24,41.11 -44.72,13.51 -95.84,21.68 -119.56,20.68 -12.61,-0.54 -37.17,14.59 -67.4,33.2 -50.58,31.18 -116.01,71.44 -182.82,71.44 -43.41,0 -56.87,-5.12 -73.89,-11.58 -8,-3.02 -16.96,-6.43 -30.73,-9.57l-30.3 -7.11c-24.63,-5.85 -36.75,-8.74 -47.77,-8.38 -10.6,0.35 -22.34,3.81 -45.27,10.56l-36.01 10.38c-38.11,10.66 -60.77,18.96 -78.05,25.3 -40.72,14.95 -53.02,19.46 -161.21,19.46 -11.05,0 -35.87,-4.51 -59.27,-10.31 -21.22,-5.25 -41.78,-11.75 -50.74,-17.16 -86.49,-52.29 -118.08,-52 -203.37,-51.25l-37.23 0.25c-17.97,0 -71.41,5.77 -90.89,7.88 -2.79,0.29 -6.35,0.95 -9.1,0.8 -22.39,-1.45 -32.63,53.54 -40.56,96.38 -2.89,15.65 -5.55,29.9 -8.59,40.14 -32.62,109.64 -42.37,112.54 -89.33,126.45 -14.48,4.29 -33.05,9.8 -57.73,21.07 -10.89,4.96 -46.02,51.61 -79.78,101.24 -36.47,53.62 -70.6,109.34 -70.37,118.67l0 0.26c0.01,14.28 1.53,28.11 2.92,41.04 4.32,39.76 7.81,72.13 -28.62,101.91 -61.64,50.3 -61.6,56.03 -61.12,109.14 0.12,13.29 0.26,29.35 -0.33,49.12 -0.42,13.7 7.66,31.4 19.05,49.06 17.17,26.65 41.65,52.58 57.19,66.43 9.93,8.83 22,31.98 31.53,56.55 9.76,25.14 17.23,52.52 17.23,67.81 0,44.73 -5.5,69.23 -10.98,93.63 -4.06,18.09 -8.13,36.17 -9.66,63.4 -2.05,36.88 -0.48,67.2 0.86,93.13 4.29,82.35 6.43,123.44 -102.49,189.01 -22.69,13.64 -33.11,37.74 -39.42,52.35 -4.42,10.21 -7.47,17.32 -14.64,19.47 -0.99,0.31 -1.86,0.76 -2.54,1.29 -4.76,3.78 -6.88,12.8 -7.21,23.32 -0.39,12.24 1.82,26.09 5.18,37.27 2.17,7.2 4.7,13.03 7.11,16.1 4.52,5.76 7.72,10.35 10.73,14.67 5.61,8.11 10.66,15.34 23.51,28.2 8.16,8.13 29.19,38.93 45.76,67.08 13.31,22.6 24.05,44.37 24.05,53.67 0,15.11 -3.21,37.44 -8.61,57.43 -4.73,17.48 -11.33,33.65 -19.25,42.74 -4.23,4.86 -6.53,8.67 -8.68,12.24 -5.45,9.06 -10.34,17.17 -32.73,33.04 -6.37,4.48 -12.9,8.58 -19.41,12.65 -28.11,17.62 -56.51,35.45 -36.81,72.96 7.61,14.45 23.09,20.31 40.11,26.76 40.7,15.39 88.86,33.59 94.04,154.4 0.86,20.24 -10.03,42.56 -25.84,62.54 -18.32,23.18 -43.68,43.83 -64.42,54.15 -30.62,15.25 -41.3,43.17 -41.53,64.17 -0.06,6.86 0.95,12.81 2.69,17.09 0.95,2.3 1.61,3.66 1.79,3.71 0.49,0.12 -0.35,-0.76 0.65,-1.95l3.78 -4.45 5.71 0.65c7.5,0.84 15.41,11.4 25.72,25.22 12.23,16.39 28.75,38.51 43.38,48.58 12.69,8.74 16.88,16.2 21.2,23.83 5.48,9.68 11.23,19.91 52.18,37.39 18.38,7.84 33.49,37.28 51.48,72.39 20.71,40.4 45.62,89 79.83,114.33 28.85,21.38 46.66,44.22 63.05,65.23 32.57,41.79 59.2,75.91 166.87,69.47 52.39,-3.11 86.58,-27.61 112.38,-46.1 19.22,-13.77 34.43,-24.65 51.45,-23.88 15.4,0.71 23.4,-0.71 29.19,-1.75 16.43,-2.94 20.3,-3.61 65,23.89 15.78,9.76 39.55,21.96 63.31,30.71 17.6,6.49 35.02,11.01 48.61,11.01 13.42,0 30.68,-1.06 50.11,-2.27 83.73,-5.16 206.68,-12.71 237.54,47.93 17.14,33.72 27.59,67.27 29.23,100.95 1.66,33.93 -5.61,67.81 -23.78,101.89 -4.04,7.58 -6.25,20.77 -5.02,32.63 0.84,8.03 3.2,14.98 7.56,17.42 3.02,1.66 7.46,6.28 10.16,8.68 19.56,17.35 68.19,60.51 80.95,69.71 19.92,14.37 33.11,27.03 45.79,39.22 17.48,16.78 34.07,32.72 66.64,50.63 13.96,7.68 28.2,29.62 44.8,55.19 32.89,50.63 76.3,117.42 128.32,88.86 25.4,-13.95 45.09,-25.27 63.81,-37.74 18.67,-12.43 36.51,-26.09 58.3,-44.76 14.85,-12.69 87.38,-19.79 161.78,-21.52 82.22,-1.92 168.65,2.68 182.86,13.38 4.61,3.46 10.03,7.05 15.92,10.92 19.38,12.77 43.54,28.69 53.22,47.19 6.89,13.19 26.38,22.77 49.56,29.56 38.87,11.37 87.03,14.24 109.53,14.02 38.3,-0.41 76.61,2.6 111.29,5.32 57.82,4.55 105.21,8.26 117.15,-4.74l7.18 -7.82 7.98 7.01c39.82,34.84 70.63,89.68 92.05,149.43 25.19,70.22 37.65,147.74 36.75,207.57 -0.26,18.24 7.81,54.43 18.7,89.02 10.18,32.2 22.55,62.38 32.57,74.42l0.38 0.45c32.43,38.96 43.77,52.57 50.63,57.25 2.31,1.59 4.71,1.99 8.3,2.57 10.06,1.64 26.68,4.39 67.43,25.87 20.55,10.83 47.57,37.71 78.9,68.86 42.08,41.85 92.31,91.77 141.65,117.63 41.49,21.74 76.36,31.83 111.71,34.29 35.66,2.49 72.36,-2.7 117.05,-11.44 27.56,-5.38 77.46,-9.66 123.78,-8.48 35.69,0.92 69.61,5.12 90.51,14.54 11.98,5.41 38.72,7.18 65.68,5.95 26.8,-1.24 53.02,-5.44 64.39,-11.94 84.52,-48.38 147.44,-66.47 206.81,-55.93 59.14,10.51 113.34,49.3 180.78,114.71 31.29,30.33 67.75,97.11 88.36,163.54 17.33,55.87 23.66,112.26 6.94,148.35 -11.56,25 -21.09,41.91 -35.29,55.07 -14.27,13.22 -32.4,21.86 -60.94,30.07l-10.75 3.42c-11.11,3.71 -25.87,8.59 -35.87,10.24 -14.24,20.34 -27.88,17.9 -43.35,15.15 -16.34,-2.91 -35.99,-6.38 -68.58,63.39l-5.69 12.08c-8.25,17.35 -10.38,21.86 -17.99,47.87 -2.81,9.61 -7.14,20.23 -11.81,31.6 -7.5,18.31 -15.92,38.88 -19.36,59.87 -8.07,49.43 -26.54,98.01 -52.73,142.03 -26.58,44.73 -61.25,84.92 -101.17,116.78l-3.26 2.73c-20.84,18.85 -33.42,51.58 -36.14,85.68 -2.73,34.13 4.46,69.22 23.14,92.62l3.08 3.66c19.53,21.59 31.03,31.72 39.58,39.23 17.48,15.39 23.78,20.9 55.19,79.92 34.96,65.63 73.39,79.03 110.5,91.96 35.09,12.23 69.2,24.12 99.51,71.95 0.76,1.22 5.77,6.5 12.3,13.33 15.97,16.74 40.31,42.26 47.36,58.72 2.95,6.95 4.57,8.83 5.64,10.14z"/>
 </g>
</svg>
