<?xml version="1.0" encoding="UTF-8"?>
<!DOCTYPE svg PUBLIC "-//W3C//DTD SVG 1.1//EN" "http://www.w3.org/Graphics/SVG/1.1/DTD/svg11.dtd">
<!-- Creator: CorelDRAW 2019 (64-Bit) -->
<svg xmlns="http://www.w3.org/2000/svg" xml:space="preserve" width="53.6536mm" height="43.5754mm" version="1.1" style="shape-rendering:geometricPrecision; text-rendering:geometricPrecision; image-rendering:optimizeQuality; fill-rule:evenodd; clip-rule:evenodd"
viewBox="0 0 2090.77 1698.05"
 xmlns:xlink="http://www.w3.org/1999/xlink"
 xmlns:xodm="http://www.corel.com/coreldraw/odm/2003">
 <defs>
  <style type="text/css">
   <![CDATA[
    .fil0 {fill:#CE82B5}
   ]]>
  </style>
 </defs>
 <g id="Vrstva_x0020_1">
  <metadata id="CorelCorpID_0Corel-Layer"/>
  <path id="Obrys" class="fil0" d="M1278.55 2.33c-4.69,1.63 -11.26,3.91 -14.84,4.79 -0.13,0.63 -0.33,1.32 -0.91,2.22 -8.04,12.31 -11.9,20.77 -16.82,31.57 -1.75,3.85 -3.64,7.99 -5.57,12.03 -15.22,31.93 -28.22,27.91 -46.26,22.34 -12.58,-3.89 -27.93,-8.63 -48.99,0.55 -13.51,5.89 -20.25,12.4 -29.75,21.56l-2.81 2.71c-5.81,5.58 -12.26,15.22 -18.49,24.55 -4.87,7.28 -9.63,14.4 -14.03,19.51 -4.76,5.52 -8.72,12.72 -12.48,19.57 -3.36,6.11 -6.58,11.97 -10.24,16.45 -5.1,6.25 -6.14,23.55 -7.01,38.12 -0.49,8.25 -0.94,15.68 -2.08,20.24 -1.14,4.56 -4.15,10.53 -6.39,14.98 -1.18,2.35 -2.14,4.25 -2.34,4.93 -1.25,4.28 -3.77,7.75 -6.97,10.4 -3.53,2.93 -7.91,4.87 -12.29,5.8l-3.53 0.76c-22.23,4.79 -39.58,8.52 -60.58,-6.02 -10.82,-7.49 -19.2,-14.86 -27.84,-22.47 -4.36,-3.85 -8.8,-7.75 -13.57,-11.69 -4.77,-3.94 -7.24,-7.07 -9.59,-10.07 -1.46,-1.85 -2.88,-3.66 -4.73,-5.48 -14.31,-14.04 -21.63,-10.14 -31.56,-4.85 -5.16,2.74 -10.95,5.83 -18.53,7.51 -7.21,1.59 -10.43,3.95 -14.66,7.05 -2.37,1.72 -5.02,3.66 -8.73,5.83 0.04,3.67 0.19,9.88 0.61,15.14 0.29,3.67 0.69,6.82 1.22,8.08 13.69,32.56 10.64,43.15 1.63,74.41l-1.05 3.69c-8.34,29.07 -33.95,27.09 -58.9,25.17 -3.74,-0.29 -7.46,-0.58 -10.82,-0.74 -15.86,-0.78 -25.3,-5.22 -34.48,-9.54 -8.95,-4.2 -17.64,-8.29 -32.23,-8.29 -22.61,0 -38.06,13.48 -50.19,24.07 -6.21,5.42 -11.6,10.13 -16.98,12.3 -10.28,4.16 -17.03,5.07 -23.34,5.92 -9.14,1.22 -17.33,2.33 -35.38,14.45 -4.66,3.13 -6.91,2.91 -8.11,1.35 -8.24,2.83 -23.81,5.22 -37.6,5.08 -12.29,-0.12 -23.46,-2.31 -27.7,-8.03 -3.24,-4.37 -8.29,-9.39 -13.9,-12.86 -4.24,-2.63 -8.77,-4.35 -12.94,-4.14 -24.73,1.27 -37.29,-17.11 -48.25,-33.14 -7.17,-10.49 -13.59,-19.89 -21.75,-20.67 -10.33,-0.99 -16.71,-1.03 -20.91,1.15 -4.01,2.08 -6.49,6.62 -9.19,14.83 -1.11,3.39 -2.59,7.33 -4.1,11.4 -6.92,18.54 -15.02,40.3 -4.18,56.49 2.82,4.2 4.95,7.25 6.62,9.63 3.49,4.98 5.15,7.36 5.97,10 0.76,2.48 0.69,4.68 0.53,8.83 -0.11,3 -0.27,7.14 -0.16,13.21 0.24,13.59 -7.17,21.06 -14,27.95 -1.55,1.56 -3.07,3.09 -4.43,4.65 -1.73,1.99 -5.64,4.63 -9.65,7.06 -3.76,2.28 -7.83,4.49 -9.99,5.65 -4.81,2.59 -7.02,5.23 -9.14,7.78 -1.77,2.12 -3.5,4.2 -6.39,6.25 -1.82,1.29 -6.02,5.55 -9.59,9.18 -2.42,2.45 -4.61,4.68 -6.38,5.84l0.11 0.12 -18.17 25.56c-3.29,5.02 -10.42,13.23 -17.74,20.16 -6.04,5.72 -12.33,10.68 -16.92,12.48 -23.34,9.18 -26.93,9.15 -46.25,9.01l-8.87 -0.03c-6.96,0 -12.34,0.88 -17.23,1.69 -3.97,0.65 -7.65,1.26 -11.66,1.34 -5.53,0.12 -25.91,8.15 -46.57,17.27 -22.81,10.07 -45.67,21.31 -49.09,24.62 -1.8,6.17 -6.42,18.68 -11.32,31.14 -5.29,13.48 -10.91,26.94 -13.66,32.32 -0.88,1.74 0.39,3.87 2.3,7.03 3.47,5.76 8.52,14.12 8.52,30.04 0,17.21 -2.88,22.68 -5.33,27.32 -1.84,3.5 -3.4,6.44 -2.6,16.05 0.18,2.11 1.61,3.5 3.43,5.27 5.02,4.87 12.29,11.91 12.29,38.57 0,2.4 -0.14,5.63 -0.28,9.18 -0.23,5.55 -0.49,11.96 -0.3,18.24 0.49,15.56 3.85,30.86 18.22,30.4 3.41,-0.11 6.71,-0.28 9.76,-0.43 24.12,-1.2 33.24,-1.66 45.82,27.22 1.57,3.6 2.73,7.24 3.47,10.84 2.12,10.19 0.97,20.05 -3.05,28.39 -4.04,8.39 -10.97,15.22 -20.35,19.31 -2.9,1.26 -6.05,2.27 -9.43,2.97l-7.26 1.46c-26.14,5.15 -63.08,12.42 -63.08,42.4 0,28.96 -12.22,32.3 -23.13,35.27 -6.18,1.68 -11.83,3.22 -12.84,11.8 -3.3,27.83 6.44,32.53 22.52,40.29 5.98,2.88 12.77,6.16 20.19,11.05 18.99,12.51 30.19,6.07 43.73,-1.73 8.1,-4.67 16.99,-9.78 28.7,-12.17 6.66,-1.36 23.6,-4.01 36.57,-2.83 8.8,0.8 16.01,3.43 18.04,9.41 5.14,15.13 4.38,28.08 3.69,40.21 -1.34,23.17 -2.5,43.18 43.28,69.54 7.24,4.17 12.52,11.57 18.18,19.5 13.25,18.57 28.82,40.39 76.93,22.47 1.41,-0.53 3.1,-1.06 4.94,-1.54 7.31,-1.93 18.03,-3.53 27.64,-2.74 10.28,0.85 19.43,4.43 22.66,13.09l0.42 1.24 0.15 0.25c1.78,2.97 9.41,15.67 10.78,23.76 0.71,4.19 3.64,13.92 6.8,24.42 3.45,11.45 7.18,23.84 8.75,31.54 0.66,3.26 7.77,2.76 16.57,2.15 13.39,-0.94 30.02,-2.11 39.95,9.78 6.43,7.7 9.8,10.98 12.27,13.38 4.55,4.42 6.27,6.1 16.27,23.38 9.11,15.75 24.35,15.22 41.85,14.61 9.82,-0.34 20.32,-0.71 31.1,1.53l1.61 0.34 0.55 1.56c1.22,3.51 8.37,3.12 15.74,2.72 2.48,-0.14 4.99,-0.28 7.23,-0.28 6.8,0 13.84,-1.75 21.07,-3.55 15,-3.73 30.77,-7.65 48.45,1.94 2.16,1.18 6.23,2.7 11.09,4.51 7.38,2.74 16.57,6.16 24.57,10.44 8.8,4.7 8.58,8.44 8.05,17.43 -0.12,2.14 -0.27,4.66 -0.27,7.83 0,20.82 10.08,27.99 23.7,37.66 5.85,4.16 12.33,8.76 18.97,14.98 2.33,2.2 6.06,4.59 10.27,7.29 8.6,5.53 19.16,12.31 26.24,22.66 3.07,4.49 6.52,8.65 9.99,12.84 7.94,9.59 16.02,19.35 21.25,34.72 3.84,11.29 8.3,19.8 12.7,28.18 7.21,13.73 14.27,27.18 18.42,51.69 0.41,2.42 2.28,7.63 5.74,14.43 2.37,4.67 5.47,10.03 9.34,15.68 13.07,-4.3 26.34,-8.23 39.31,-12.08 37.4,-11.08 72.46,-21.47 87.1,-35.68 21.19,-20.59 24.48,-27.51 28.99,-37.04 2.3,-4.86 4.92,-10.38 10.14,-18.51 2.81,-4.36 4.7,-7.51 6.03,-9.71 1.93,-3.2 2.77,-4.58 4.15,-5.89 1.02,-0.96 2.14,-1.68 4.06,-2.93 3.37,-2.18 9.52,-6.15 22.37,-16.18 33.49,-26.12 87.25,-39.15 130.52,-49.63l9.47 -2.3c27.49,-6.73 33.28,-12.55 38.48,-17.79 3.32,-3.34 6.44,-6.49 13.63,-9.48 7.14,-2.97 15.55,-18.1 22.73,-35.68 9.63,-23.57 16.77,-51.16 15.97,-60.52 -0.8,-9.45 1.15,-14.3 3.81,-20.9 2.31,-5.74 5.22,-12.95 7.12,-26.46 3.98,-28.36 22.1,-36.41 42.93,-45.67l3.96 -1.77c9.05,-4.07 11.94,-4.02 12.96,-1.76 0.69,1.55 0.12,2.58 -0.55,3.77 -0.14,0.25 -0.46,-0.21 -0.39,0.16 0.06,0.28 1.38,-0.85 7.55,-2.1 12.35,-2.51 27.69,-4.16 48.31,-5.17 20.65,-1.01 46.45,-1.4 79.71,-1.4 48.76,0 69.19,-43.85 92.84,-94.64 7.63,-16.4 15.6,-33.51 25.03,-50.26 22.25,-39.55 26.39,-79.71 29.89,-113.84 2.58,-25.14 4.84,-47.08 13.69,-63.64 8.39,-15.72 7.82,-50.97 7.19,-90.25 -0.87,-53.53 -1.86,-114.45 19.75,-146.72 22.96,-34.3 61.52,-50.75 96.22,-65.55 21.73,-9.27 41.92,-17.88 55.29,-29.7 18.53,-16.38 50.95,-26.1 81.1,-35.13 27.98,-8.38 53.97,-16.17 63.76,-27.66 10.07,-11.83 29.28,-20.3 48.46,-28.75 22.32,-9.84 44.62,-19.67 50.46,-33.84 5.5,-13.33 4.8,-19.87 4.02,-27.17 -0.84,-7.88 -1.77,-16.6 3.63,-34.07 2.31,-7.46 3.94,-14.13 5.39,-20.08 2.46,-10.1 4.44,-18.2 8.39,-24.92 -8.6,-2.17 -10.17,-3.6 -12.73,-5.92 -1.51,-1.37 -3.46,-3.14 -8.53,-5.87 -7.74,-4.17 -11.55,-8.25 -15.21,-12.17 -4.75,-5.09 -9.24,-9.91 -23.51,-14.15 -13.22,-3.93 -22.89,-8.71 -31.07,-15.52 -8.15,-6.8 -14.71,-15.52 -21.75,-27.39 -5.65,-9.53 -6.05,-17.36 -6.45,-25.33 -0.59,-11.89 -1.22,-24.18 -22.8,-43.9 -9.16,-8.37 -17.71,-19.67 -25.33,-31.6 -7.58,-11.87 -14.24,-24.33 -19.69,-35.15 -2.35,-4.67 -3.69,-8.83 -4.91,-12.61 -2.81,-8.74 -4.93,-15.32 -19.69,-21.1 -8.49,-3.32 -16.74,-5.39 -25.11,-6.74 -8.43,-1.36 -17.09,-2.02 -26.29,-2.54 -7.2,-0.4 -16.5,-0.3 -26.53,-0.19 -24.54,0.27 -53.46,0.6 -67.82,-6.2 -1.98,-0.94 -4.41,-1.96 -6.93,-3.02 -7.03,-2.95 -14.87,-6.24 -20.04,-10.87 -4.76,-4.27 -34.92,-14.44 -55.12,-21.25 -7.22,-2.44 -13.2,-4.45 -16.36,-5.64l-6.53 -2.6c-9.02,1.75 -21.67,-8.14 -33.31,-17.25 -8.27,-6.47 -16,-12.52 -20.13,-12.86 -2.36,-0.19 -4.15,-0.8 -6.16,-1.48 -2.83,-0.95 -6.18,-2.08 -12.72,-2.03 -3.3,0.03 -6.6,0 -9.89,-0.03 -12.57,-0.11 -25.14,-0.23 -37.08,3.08 -7.03,1.95 -12.08,2.64 -16.7,3.27 -7.29,0.99 -13.5,1.85 -25.48,7.82 -6.06,3.02 -9.62,5.34 -12.4,7.14 -6.9,4.48 -9.44,6.13 -27.2,6.78l-2.33 0.09c-9.46,0.39 -26.75,1.1 -33.36,-3.81 -3.91,-2.9 -8.32,-8.08 -12.08,-13.65 -3.9,-5.79 -7.2,-12.13 -8.56,-16.9 -1.57,-5.48 -6.41,-15.9 -12.17,-24.43 -3.98,-5.89 -8.3,-10.76 -11.97,-12.06 -3.32,-1.15 -10.7,-4.62 -13.97,-6.4 -4.06,-2.12 -11.57,-3.41 -19.72,-4.07 -11.18,-0.91 -23.41,-0.64 -30.01,0.18l-4.58 1.59z"/>
 </g>
</svg>
